<?xml version="1.0" standalone="no"?>
<!DOCTYPE svg PUBLIC "-//W3C//DTD SVG 1.1//EN" "http://www.w3.org/Graphics/SVG/1.1/DTD/svg11.dtd" >
<svg xmlns="http://www.w3.org/2000/svg" xmlns:xlink="http://www.w3.org/1999/xlink" version="1.1">
<metadata>
Created by FontForge 20230101 at Sun Sep 23 17:00:18 2018
 By vladi
This software is the property of Hoefler &#38; Co. You may not copy, modify, distribute, or download this software, or install it upon any computer, or host it from any location. Your right to use this software is subject to the Terms of Service agreement that exists between you and Hoefler &#38; Co. If no such agreement exists, you may not use this software for any purpose. For more information, please visit http://www.typography.com/webfont-software, or contact Hoefler &#38; Co. at www.typography.com
</metadata>
<defs>
<font id="GothamCond-Bold" horiz-adv-x="240" >
  <font-face 
    font-family="Gotham Cond"
    font-weight="700"
    font-stretch="extra-condensed"
    units-per-em="1000"
    panose-1="0 0 0 0 0 0 0 0 0 0"
    ascent="800"
    descent="-200"
    x-height="536"
    cap-height="700"
    bbox="-142 -229 804 937"
    underline-thickness="50"
    underline-position="-100"
    unicode-range="U+0020-FB04"
  />
<missing-glyph horiz-adv-x="500" 
d="M0 -200v1000h500v-1000h-500zM71 750l179 -390l179 390h-358zM50 -76l172 376l-172 376v-752zM450 676l-172 -376l172 -376v752zM250 240l-179 -390h358z" />
    <glyph glyph-name="f_f" unicode="ff" horiz-adv-x="460" 
d="M276 0v440h-31v96h31v39c0 43 11 76 33 98c23 23 57 34 102 34c19 0 33 -1 44 -4v-98c-3 1 -8 1 -14 1c-29 0 -47 -16 -47 -49v-21h61v-96h-61v-440h-118zM46 0v440h-33v96h33v39c0 43 11 76 33 98c23 23 57 34 102 34c19 0 33 -1 44 -4v-98c-3 1 -8 1 -14 1
c-29 0 -47 -16 -47 -49v-21h59v-96h-59v-440h-118z" />
    <glyph glyph-name="fi" unicode="fi" horiz-adv-x="420" 
d="M46 0v440h-33v96h33v39c0 43 11 76 33 98c23 23 57 34 102 34c19 0 33 -1 44 -4v-98c-3 1 -8 1 -14 1c-29 0 -47 -16 -47 -49v-21h61v-96h-61v-440h-118zM268 0v536h118v-536h-118zM267 587v118h120v-118h-120z" />
    <glyph glyph-name="fl" unicode="fl" horiz-adv-x="420" 
d="M46 0v440h-33v96h33v39c0 43 11 76 33 98c23 23 57 34 102 34c19 0 33 -1 44 -4v-98c-3 1 -8 1 -14 1c-29 0 -47 -16 -47 -49v-21h61v-96h-61v-440h-118zM268 0v705h118v-705h-118z" />
    <glyph glyph-name="f_f_i" unicode="ffi" horiz-adv-x="650" 
d="M276 0v440h-31v96h31v39c0 43 11 76 33 98c23 23 57 34 102 34c19 0 33 -1 44 -4v-98c-3 1 -8 1 -14 1c-29 0 -47 -16 -47 -49v-21h61v-96h-61v-440h-118zM46 0v440h-33v96h33v39c0 43 11 76 33 98c23 23 57 34 102 34c19 0 33 -1 44 -4v-98c-3 1 -8 1 -14 1
c-29 0 -47 -16 -47 -49v-21h59v-96h-59v-440h-118zM498 0v536h118v-536h-118zM497 587v118h120v-118h-120z" />
    <glyph glyph-name="f_f_l" unicode="ffl" horiz-adv-x="650" 
d="M276 0v440h-31v96h31v39c0 43 11 76 33 98c23 23 57 34 102 34c19 0 33 -1 44 -4v-98c-3 1 -8 1 -14 1c-29 0 -47 -16 -47 -49v-21h61v-96h-61v-440h-118zM46 0v440h-33v96h33v39c0 43 11 76 33 98c23 23 57 34 102 34c19 0 33 -1 44 -4v-98c-3 1 -8 1 -14 1
c-29 0 -47 -16 -47 -49v-21h59v-96h-59v-440h-118zM498 0v705h118v-705h-118z" />
    <glyph glyph-name=".notdef" horiz-adv-x="500" 
d="M0 -200v1000h500v-1000h-500zM71 750l179 -390l179 390h-358zM50 -76l172 376l-172 376v-752zM450 676l-172 -376l172 -376v752zM250 240l-179 -390h358z" />
    <glyph glyph-name="NUL" horiz-adv-x="0" 
 />
    <glyph glyph-name="CR" horiz-adv-x="159" 
 />
    <glyph glyph-name="space" unicode=" " horiz-adv-x="158" 
 />
    <glyph glyph-name="D" unicode="D" horiz-adv-x="419" 
d="M36 0v700h114c157 0 245 -111 245 -338v-24c0 -227 -88 -338 -245 -338h-114zM163 588h-5v-476h5c59 0 108 50 108 226v24c0 176 -49 226 -108 226z" />
    <glyph glyph-name="E" unicode="E" horiz-adv-x="330" 
d="M36 0v700h268v-116h-146v-174h129v-116h-129v-178h149v-116h-271z" />
    <glyph glyph-name="F" unicode="F" horiz-adv-x="310" 
d="M36 0v700h255v-116h-133v-176h116v-116h-116v-292h-122z" />
    <glyph glyph-name="G" unicode="G" horiz-adv-x="405" 
d="M247 -10c-123 0 -223 100 -223 348v24c0 230 95 348 234 348c37 0 68 -8 93 -20v-127c-31 19 -57 30 -89 30c-71 0 -114 -70 -114 -226v-34c0 -188 53 -230 104 -230c4 0 4 0 11 1v184h-60v109h171v-377c-44 -19 -80 -30 -127 -30z" />
    <glyph glyph-name="H" unicode="H" horiz-adv-x="422" 
d="M36 0v700h122v-290h106v290h122v-700h-122v294h-106v-294h-122z" />
    <glyph glyph-name="I" unicode="I" horiz-adv-x="198" 
d="M38 0v700h122v-700h-122z" />
    <glyph glyph-name="J" unicode="J" horiz-adv-x="295" 
d="M93 -6c-31 0 -54 5 -77 10v121c19 -7 38 -12 59 -12c40 0 64 21 64 72v515h122v-524c0 -61 -16 -108 -47 -139c-29 -29 -69 -43 -121 -43z" />
    <glyph glyph-name="K" unicode="K" horiz-adv-x="403" 
d="M36 0v700h122v-300l101 300h134l-117 -296l119 -404h-132l-77 268l-28 -78v-190h-122z" />
    <glyph glyph-name="L" unicode="L" horiz-adv-x="300" 
d="M36 0v700h122v-584h129v-116h-251z" />
    <glyph glyph-name="M" unicode="M" horiz-adv-x="486" 
d="M36 0v700h123l84 -266l84 266h123v-700h-117v425l-89 -267h-2l-89 267v-425h-117z" />
    <glyph glyph-name="N" unicode="N" horiz-adv-x="428" 
d="M36 0v700h113l126 -362v362h117v-700h-107l-132 379v-379h-117z" />
    <glyph glyph-name="O" unicode="O" horiz-adv-x="420" 
d="M210 -10c-111 0 -186 111 -186 342v36c0 231 75 342 186 342s186 -111 186 -342v-36c0 -231 -75 -342 -186 -342zM210 102c37 0 62 50 62 230v36c0 180 -25 230 -62 230s-62 -50 -62 -230v-36c0 -180 25 -230 62 -230z" />
    <glyph glyph-name="P" unicode="P" horiz-adv-x="385" 
d="M36 0v700h109c133 0 226 -72 226 -236v-2c0 -157 -88 -234 -212 -242h-1v-220h-122zM158 333h1c51 3 90 40 90 125v2c0 89 -34 127 -87 127h-4v-254z" />
    <glyph glyph-name="Q" unicode="Q" horiz-adv-x="427" 
d="M421 49l-61 -65l-48 50c-29 -29 -62 -44 -99 -44c-115 0 -189 111 -189 342v36c0 231 75 342 186 342s186 -111 186 -342v-36c0 -96 -14 -169 -38 -225zM219 100c9 0 16 3 22 8l-60 59l57 63l29 -31c3 33 5 76 5 133v36c0 180 -25 230 -62 230s-62 -50 -62 -230v-36
c0 -196 27 -232 71 -232z" />
    <glyph glyph-name="Q.alt" horiz-adv-x="420" 
d="M295 -81l-48 76c-13 -3 -26 -5 -37 -5c-111 0 -186 111 -186 342v36c0 231 75 342 186 342s186 -111 186 -342v-36c0 -124 -22 -212 -58 -269l85 -144h-128zM210 102c37 0 62 50 62 230v36c0 180 -25 230 -62 230s-62 -50 -62 -230v-36c0 -180 25 -230 62 -230z" />
    <glyph glyph-name="R" unicode="R" horiz-adv-x="398" 
d="M36 0v700h126c65 0 119 -17 158 -56c37 -37 58 -91 58 -167v-9c0 -92 -35 -149 -82 -184l94 -284h-130l-79 244h-23v-244h-122zM158 354h6c53 0 92 30 92 113v8c0 88 -42 111 -95 111h-3v-232z" />
    <glyph glyph-name="S" unicode="S" horiz-adv-x="325" 
d="M145 -5c-48 0 -89 12 -124 29v125c43 -25 71 -39 108 -39c39 0 67 22 67 69v1c0 22 -8 54 -67 119c-85 93 -118 143 -118 224v1c0 110 73 181 173 181c47 0 78 -10 105 -22v-125c-39 23 -61 32 -93 32c-35 0 -63 -22 -63 -63v-1c0 -27 10 -49 68 -115
c96 -112 117 -157 117 -233v-1c0 -109 -77 -182 -173 -182z" />
    <glyph glyph-name="T" unicode="T" horiz-adv-x="324" 
d="M101 0v584h-86v116h294v-116h-86v-584h-122z" />
    <glyph glyph-name="U" unicode="U" horiz-adv-x="416" 
d="M208 -9c-100 0 -174 66 -174 213v496h122v-508c0 -64 21 -87 52 -87s52 23 52 87v508h122v-496c0 -147 -74 -213 -174 -213z" />
    <glyph glyph-name="V" unicode="V" horiz-adv-x="378" 
d="M126 -2l-125 702h124l66 -456l66 456h120l-125 -702h-126z" />
    <glyph glyph-name="W" unicode="W" horiz-adv-x="592" 
d="M109 -2l-106 702h125l51 -429l61 429h113l60 -429l52 429h122l-106 -702h-128l-58 415l-58 -415h-128z" />
    <glyph glyph-name="X" unicode="X" horiz-adv-x="392" 
d="M253 700h127l-110 -343l114 -357h-130l-59 213l-60 -213h-127l114 357l-110 343h130l55 -203z" />
    <glyph glyph-name="Y" unicode="Y" horiz-adv-x="382" 
d="M130 0v276l-130 424h126l66 -262l67 262h123l-130 -424v-276h-122z" />
    <glyph glyph-name="Z" unicode="Z" horiz-adv-x="340" 
d="M23 0v97l161 488h-155v115h289v-97l-161 -488h161v-115h-295z" />
    <glyph glyph-name="a" unicode="a" horiz-adv-x="350" 
d="M115 -9c-60 0 -101 59 -101 158v17c0 120 48 170 119 170c24 0 48 -7 71 -20v32c0 56 -25 84 -75 84c-31 0 -62 -12 -89 -25v112c36 16 76 23 107 23c59 0 97 -14 126 -43c32 -32 48 -80 48 -143v-356h-118v57c-21 -44 -51 -66 -88 -66zM164 90c20 0 40 16 40 51v92
c-9 5 -26 11 -37 11c-24 0 -40 -20 -40 -71v-14c0 -53 16 -69 37 -69z" />
    <glyph glyph-name="a.alt" horiz-adv-x="384" 
d="M139 -10c-64 0 -114 61 -114 254v48c0 191 50 254 114 254c53 0 76 -43 94 -75v65h118v-536h-118v67c-16 -32 -43 -77 -94 -77zM187 103c31 0 47 51 47 147v36c0 96 -16 147 -47 147s-44 -51 -44 -147v-36c0 -96 13 -147 44 -147z" />
    <glyph glyph-name="b" unicode="b" horiz-adv-x="384" 
d="M245 -10c-53 0 -75 43 -94 75v-65h-118v705h118v-236c16 32 42 77 94 77c64 0 114 -61 114 -254v-48c0 -191 -50 -254 -114 -254zM197 103c31 0 44 51 44 147v36c0 96 -13 147 -44 147s-47 -51 -47 -147v-36c0 -96 16 -147 47 -147z" />
    <glyph glyph-name="c" unicode="c" horiz-adv-x="286" 
d="M189 -10c-100 0 -166 88 -166 261v32c0 172 73 261 169 261c35 0 50 -3 74 -14v-121c-20 12 -38 20 -59 20c-37 0 -64 -39 -64 -144v-36c0 -104 27 -144 66 -144c17 0 38 10 58 23v-116c-27 -15 -47 -22 -78 -22z" />
    <glyph glyph-name="d" unicode="d" horiz-adv-x="384" 
d="M139 -10c-64 0 -114 61 -114 254v48c0 191 50 254 114 254c53 0 76 -43 94 -75v234h118v-705h-118v67c-16 -32 -43 -77 -94 -77zM187 103c31 0 47 51 47 147v36c0 96 -16 147 -47 147s-44 -51 -44 -147v-36c0 -96 13 -147 44 -147z" />
    <glyph glyph-name="e" unicode="e" horiz-adv-x="350" 
d="M204 -10c-100 0 -184 91 -184 264v26c0 172 74 264 163 264c93 0 152 -92 152 -269v-62h-197c7 -84 42 -113 81 -113c36 0 59 15 94 39l9 -108c-41 -27 -73 -41 -118 -41zM137 306h87c0 89 -14 133 -41 133s-43 -37 -46 -133z" />
    <glyph glyph-name="f" unicode="f" horiz-adv-x="230" 
d="M46 0v440h-33v96h33v39c0 43 11 76 33 98c23 23 57 34 102 34c19 0 33 -1 44 -4v-98c-3 1 -8 1 -14 1c-29 0 -47 -16 -47 -49v-21h61v-96h-61v-440h-118z" />
    <glyph glyph-name="g" unicode="g" horiz-adv-x="384" 
d="M163 -132c-51 0 -77 6 -116 17v109c33 -12 76 -22 100 -22c53 0 86 21 86 84v53c-17 -33 -44 -77 -95 -77c-64 0 -113 65 -113 254v6c0 191 49 254 113 254c52 0 76 -42 95 -75v65h118v-489c0 -60 -15 -102 -46 -133c-32 -32 -81 -46 -142 -46zM187 145
c28 0 47 47 47 143v2c0 96 -19 143 -47 143c-29 0 -44 -48 -44 -143v-2c0 -95 15 -143 44 -143z" />
    <glyph glyph-name="h" unicode="h" horiz-adv-x="379" 
d="M33 0v705h118v-233c21 41 48 74 95 74c68 0 103 -57 103 -140v-406h-118v379c0 39 -15 61 -39 61s-41 -22 -41 -61v-379h-118z" />
    <glyph glyph-name="i" unicode="i" horiz-adv-x="186" 
d="M33 587v118h120v-118h-120zM34 0v536h118v-536h-118z" />
    <glyph glyph-name="j" unicode="j" horiz-adv-x="186" 
d="M26 -133c-23 0 -31 1 -47 4v93h11c27 0 44 11 44 43v529h118v-539c0 -92 -47 -130 -126 -130zM33 587v118h120v-118h-120z" />
    <glyph glyph-name="k" unicode="k" horiz-adv-x="357" 
d="M33 0v705h118v-379l77 210h126l-92 -217l88 -319h-129l-48 206l-22 -59v-147h-118z" />
    <glyph glyph-name="l" unicode="l" horiz-adv-x="186" 
d="M34 0v705h118v-705h-118z" />
    <glyph glyph-name="m" unicode="m" horiz-adv-x="573" 
d="M33 0v536h118v-63c24 45 51 73 95 73c45 0 71 -27 90 -62c21 29 49 62 96 62c56 0 111 -49 111 -142v-404h-118v378c0 39 -14 62 -38 62s-40 -23 -40 -62v-378h-118v378c0 39 -14 62 -38 62s-40 -23 -40 -62v-378h-118z" />
    <glyph glyph-name="n" unicode="n" horiz-adv-x="379" 
d="M33 0v536h118v-64c21 41 48 74 95 74c68 0 103 -57 103 -140v-406h-118v379c0 39 -15 61 -39 61s-41 -22 -41 -61v-379h-118z" />
    <glyph glyph-name="o" unicode="o" horiz-adv-x="378" 
d="M189 -10c-96 0 -166 89 -166 261v32c0 172 70 261 166 261s166 -89 166 -261v-32c0 -172 -70 -261 -166 -261zM189 95c31 0 48 50 48 154v36c0 107 -17 154 -48 154s-48 -47 -48 -154v-36c0 -104 17 -154 48 -154z" />
    <glyph glyph-name="p" unicode="p" horiz-adv-x="384" 
d="M33 -130v666h118v-67c16 32 42 77 94 77c64 0 114 -61 114 -254v-48c0 -191 -50 -254 -114 -254c-53 0 -75 43 -94 75v-195h-118zM197 103c31 0 44 51 44 147v36c0 96 -13 147 -44 147s-47 -51 -47 -147v-36c0 -96 16 -147 47 -147z" />
    <glyph glyph-name="q" unicode="q" horiz-adv-x="384" 
d="M233 -130v197c-16 -32 -43 -77 -94 -77c-64 0 -114 61 -114 254v48c0 191 50 254 114 254c53 0 76 -43 94 -75v65h118v-666h-118zM187 103c31 0 47 51 47 147v36c0 96 -16 147 -47 147s-44 -51 -44 -147v-36c0 -96 13 -147 44 -147z" />
    <glyph glyph-name="r" unicode="r" horiz-adv-x="250" 
d="M33 0v536h118v-67c16 47 41 76 86 73v-142h-2c-56 0 -84 -38 -84 -114v-286h-118z" />
    <glyph glyph-name="s" unicode="s" horiz-adv-x="284" 
d="M126 -10c-35 0 -74 10 -109 25v116c40 -21 74 -35 101 -35c29 0 44 14 44 43v1c0 19 -8 39 -60 88c-55 53 -91 101 -91 169v2c0 89 60 145 152 145c33 0 57 -3 88 -14v-116c-25 13 -53 24 -81 24c-29 0 -45 -14 -45 -37v-1c0 -19 9 -35 64 -88c66 -63 87 -107 87 -168v-2
c0 -93 -65 -152 -150 -152z" />
    <glyph glyph-name="t" unicode="t" horiz-adv-x="244" 
d="M157 -7c-56 0 -110 18 -110 99v348h-32v96h32v137h118v-137h63v-96h-63v-308c0 -24 12 -33 33 -33c9 0 19 2 29 6v-94c-19 -11 -46 -18 -70 -18z" />
    <glyph glyph-name="u" unicode="u" horiz-adv-x="379" 
d="M133 -10c-68 0 -103 57 -103 140v406h118v-379c0 -39 15 -61 39 -61s41 22 41 61v379h118v-536h-118v64c-21 -41 -48 -74 -95 -74z" />
    <glyph glyph-name="v" unicode="v" horiz-adv-x="362" 
d="M121 -2l-111 538h117l55 -348l55 348h115l-110 -538h-121z" />
    <glyph glyph-name="w" unicode="w" horiz-adv-x="526" 
d="M103 -2l-92 538h119l41 -309l47 309h92l47 -309l41 309h117l-91 -538h-112l-49 301l-48 -301h-112z" />
    <glyph glyph-name="x" unicode="x" horiz-adv-x="346" 
d="M127 536l47 -160l47 160h120l-95 -261l97 -275h-124l-47 170l-47 -170h-122l97 275l-95 261h122z" />
    <glyph glyph-name="y" unicode="y" horiz-adv-x="362" 
d="M179 220l56 316h116l-148 -666h-115v1l34 148l-111 517h117z" />
    <glyph glyph-name="z" unicode="z" horiz-adv-x="290" 
d="M12 0v84l141 352h-136v100h262v-84l-141 -352h141v-100h-267z" />
    <glyph glyph-name="uni0391" unicode="&#x391;" horiz-adv-x="398" 
d="M1 0l133 702h130l133 -702h-122l-23 139h-111l-22 -139h-118zM159 249h75l-37 231z" />
    <glyph glyph-name="uni0392" unicode="&#x392;" horiz-adv-x="392" 
d="M36 0v700h104c72 0 141 -18 182 -59c31 -31 46 -68 46 -119v-5c0 -90 -51 -134 -101 -158c59 -27 110 -67 110 -156v-9c0 -124 -96 -194 -232 -194h-109zM248 498v2c0 61 -35 87 -90 87h-2v-181h2c55 0 90 31 90 92zM255 204v5c0 59 -40 91 -96 91h-3v-187h3
c56 0 96 32 96 91z" />
    <glyph glyph-name="uni0393" unicode="&#x393;" horiz-adv-x="300" 
d="M36 0v700h251v-116h-129v-584h-122z" />
    <glyph glyph-name="uni0394" unicode="&#x394;" horiz-adv-x="402" 
d="M27 0l-12 98l120 604h132l120 -604l-12 -98h-348zM134 112h130l-65 386z" />
    <glyph glyph-name="uni0395" unicode="&#x395;" horiz-adv-x="330" 
d="M36 0v700h268v-116h-146v-174h129v-116h-129v-178h149v-116h-271z" />
    <glyph glyph-name="uni0396" unicode="&#x396;" horiz-adv-x="340" 
d="M23 0v97l161 488h-155v115h289v-97l-161 -488h161v-115h-295z" />
    <glyph glyph-name="uni0397" unicode="&#x397;" horiz-adv-x="422" 
d="M36 0v700h122v-290h106v290h122v-700h-122v294h-106v-294h-122z" />
    <glyph glyph-name="uni0398" unicode="&#x398;" horiz-adv-x="418" 
d="M209 -10c-109 0 -185 111 -185 342v36c0 231 76 342 185 342s185 -111 185 -342v-36c0 -231 -76 -342 -185 -342zM209 100c38 0 63 47 66 197h-133c3 -150 30 -197 67 -197zM209 600c-37 0 -64 -46 -67 -193h133c-3 147 -28 193 -66 193z" />
    <glyph glyph-name="uni0399" unicode="&#x399;" horiz-adv-x="198" 
d="M38 0v700h122v-700h-122z" />
    <glyph glyph-name="uni039A" unicode="&#x39a;" horiz-adv-x="403" 
d="M36 0v700h122v-300l101 300h134l-117 -296l119 -404h-132l-77 268l-28 -78v-190h-122z" />
    <glyph glyph-name="uni039B" unicode="&#x39b;" horiz-adv-x="384" 
d="M255 702l128 -702h-124l-69 449l-69 -449h-120l128 702h126z" />
    <glyph glyph-name="uni039C" unicode="&#x39c;" horiz-adv-x="486" 
d="M36 0v700h123l84 -266l84 266h123v-700h-117v425l-89 -267h-2l-89 267v-425h-117z" />
    <glyph glyph-name="uni039D" unicode="&#x39d;" horiz-adv-x="428" 
d="M36 0v700h113l126 -362v362h117v-700h-107l-132 379v-379h-117z" />
    <glyph glyph-name="uni039E" unicode="&#x39e;" horiz-adv-x="327" 
d="M301 584h-275v116h275v-116zM289 294h-251v116h251v-116zM304 0h-281v116h281v-116z" />
    <glyph glyph-name="uni039E.alt" horiz-adv-x="392" 
d="M369 116v-116h-346v116h115v178h-100v116h100v174h-112v116h340v-116h-112v-174h100v-116h-100v-178h115z" />
    <glyph glyph-name="uni039F" unicode="&#x39f;" horiz-adv-x="420" 
d="M210 -10c-111 0 -186 111 -186 342v36c0 231 75 342 186 342s186 -111 186 -342v-36c0 -231 -75 -342 -186 -342zM210 102c37 0 62 50 62 230v36c0 180 -25 230 -62 230s-62 -50 -62 -230v-36c0 -180 25 -230 62 -230z" />
    <glyph glyph-name="uni03A0" unicode="&#x3a0;" horiz-adv-x="422" 
d="M36 0v700h350v-700h-122v584h-106v-584h-122z" />
    <glyph glyph-name="uni03A1" unicode="&#x3a1;" horiz-adv-x="385" 
d="M36 0v700h109c133 0 226 -72 226 -236v-2c0 -157 -88 -234 -212 -242h-1v-220h-122zM158 333h1c51 3 90 40 90 125v2c0 89 -34 127 -87 127h-4v-254z" />
    <glyph glyph-name="uni03A3" unicode="&#x3a3;" horiz-adv-x="336" 
d="M259 350l-102 -235h157v-115h-291v97l110 253l-110 253v97h289v-115h-155z" />
    <glyph glyph-name="uni03A4" unicode="&#x3a4;" horiz-adv-x="324" 
d="M101 0v584h-86v116h294v-116h-86v-584h-122z" />
    <glyph glyph-name="uni03A5" unicode="&#x3a5;" horiz-adv-x="382" 
d="M130 0v276l-130 424h126l66 -262l67 262h123l-130 -424v-276h-122z" />
    <glyph glyph-name="uni03A6" unicode="&#x3a6;" horiz-adv-x="586" 
d="M232 -8v72c-122 19 -212 122 -212 285v6c0 167 90 265 212 284v69h122v-69c122 -19 212 -117 212 -284v-6c0 -163 -90 -266 -212 -285v-72h-122zM444 347v10c0 100 -36 160 -93 177v-365c60 17 93 75 93 178zM142 357v-10c0 -101 36 -159 93 -178v366
c-60 -17 -93 -77 -93 -178z" />
    <glyph glyph-name="uni03A7" unicode="&#x3a7;" horiz-adv-x="392" 
d="M253 700h127l-110 -343l114 -357h-130l-59 213l-60 -213h-127l114 357l-110 343h130l55 -203z" />
    <glyph glyph-name="uni03A8" unicode="&#x3a8;" horiz-adv-x="580" 
d="M549 700v-340c0 -156 -86 -209 -198 -212v-148h-122v148c-113 3 -198 57 -198 212v340h121v-349c0 -68 29 -87 78 -90v439h120v-439c48 3 78 22 78 90v349h121z" />
    <glyph glyph-name="uni03A9" unicode="&#x3a9;" horiz-adv-x="432" 
d="M217 710c111 0 185 -86 185 -283v-13c0 -104 -31 -210 -79 -298h84v-116h-171v111c21 81 42 160 42 292v7c0 152 -26 188 -63 188c-36 0 -61 -34 -61 -186v-7c0 -132 20 -213 42 -294v-111h-171v116h84c-49 88 -79 194 -79 298v13c0 197 76 283 187 283z" />
    <glyph glyph-name="uni03B1" unicode="&#x3b1;" horiz-adv-x="404" 
d="M401 99v-93c-19 -7 -43 -13 -72 -13c-40 0 -81 13 -92 74c-21 -40 -48 -77 -98 -77c-64 0 -114 61 -114 254v48c0 191 50 254 114 254c53 0 76 -43 94 -75v65h118v-407c0 -24 8 -32 28 -32c8 0 15 1 22 2zM187 103c31 0 47 51 47 147v36c0 96 -16 147 -47 147
s-44 -51 -44 -147v-36c0 -96 13 -147 44 -147z" />
    <glyph glyph-name="uni03B2" unicode="&#x3b2;" horiz-adv-x="391" 
d="M250 -10c-47 0 -76 28 -99 75v-195h-118v634c0 123 55 206 170 206c101 0 162 -79 162 -180v-5c0 -79 -28 -144 -96 -173c69 -27 104 -71 104 -166v-8c0 -119 -47 -188 -123 -188zM208 103c27 0 47 21 47 82v4c0 84 -22 113 -82 113h-23v-73c0 -84 19 -126 58 -126z
M150 515v-117h27c53 0 70 41 70 114v2c0 56 -13 93 -48 93c-31 0 -49 -27 -49 -92z" />
    <glyph glyph-name="uni03B3" unicode="&#x3b3;" horiz-adv-x="362" 
d="M240 -130h-118v137l-112 529h117l55 -337l55 337h115l-112 -529v-137z" />
    <glyph glyph-name="uni03B4" unicode="&#x3b4;" horiz-adv-x="378" 
d="M67 615v90h261v-102l-128 2l64 -95c59 -85 89 -167 89 -276v-4c0 -160 -69 -240 -165 -240s-165 78 -165 235v4c0 106 27 187 107 291zM237 224v4c0 76 -11 136 -51 204c-37 -72 -47 -140 -47 -203v-4c0 -92 17 -130 49 -130s49 38 49 129z" />
    <glyph glyph-name="uni03B5" unicode="&#x3b5;" horiz-adv-x="294" 
d="M242 217h-33c-49 0 -75 -15 -75 -62v-1c0 -37 18 -56 55 -56c25 0 50 5 85 22v-110c-27 -12 -67 -20 -102 -20c-100 0 -152 49 -152 148v2c0 61 26 107 86 131c-47 16 -84 52 -84 124v5c0 83 58 144 150 144c35 0 68 -7 98 -21v-112c-32 16 -54 25 -79 25
c-35 0 -55 -21 -55 -57v-2c0 -39 21 -58 77 -58h29v-102z" />
    <glyph glyph-name="uni03B6" unicode="&#x3b6;" horiz-adv-x="329" 
d="M308 69v-167h-103v90l-58 22c-79 29 -127 72 -127 155v4c0 38 11 75 45 154l118 276h-134v102h261v-84l-144 -339c-27 -64 -30 -82 -30 -98v-2c0 -37 16 -56 75 -77z" />
    <glyph glyph-name="uni03B7" unicode="&#x3b7;" horiz-adv-x="379" 
d="M151 0h-118v536h118v-64c21 41 48 74 95 74c68 0 103 -57 103 -140v-536h-118v509c0 39 -15 61 -39 61s-41 -22 -41 -61v-379z" />
    <glyph glyph-name="uni03B8" unicode="&#x3b8;" horiz-adv-x="386" 
d="M193 -10c-100 0 -165 96 -165 339v39c0 243 65 339 165 339s165 -96 165 -339v-39c0 -243 -65 -339 -165 -339zM193 94c33 0 49 51 52 207h-104c0 -156 18 -207 52 -207zM193 603c-34 0 -52 -49 -52 -206h104c-3 157 -19 206 -52 206z" />
    <glyph glyph-name="uni03B9" unicode="&#x3b9;" horiz-adv-x="203" 
d="M32 98v438h118v-405c0 -24 8 -32 28 -32c8 0 15 1 22 2v-93c-19 -7 -43 -13 -72 -13c-44 0 -96 17 -96 103z" />
    <glyph glyph-name="uni03BA" unicode="&#x3ba;" horiz-adv-x="361" 
d="M151 536v-221l79 221h128l-97 -230l88 -306h-129l-48 190l-21 -55v-135h-118v536h118z" />
    <glyph glyph-name="uni03BB" unicode="&#x3bb;" horiz-adv-x="365" 
d="M126 0h-115l111 539l-6 27c-7 27 -20 36 -49 36c-9 0 -18 -1 -28 -3v102c21 6 41 9 62 9c68 0 106 -33 125 -113l131 -597h-117l-59 346z" />
    <glyph glyph-name="uni03BC" unicode="&#x3bc;" horiz-adv-x="406" 
d="M403 100v-93c-20 -8 -41 -13 -70 -13s-53 12 -66 45c-17 -37 -38 -44 -58 -44c-27 0 -52 17 -68 61h-2c7 -43 10 -78 10 -131v-55h-116v666h118v-374c0 -41 14 -61 42 -61s42 20 42 61v374h118v-413c1 -19 9 -25 28 -25c8 0 15 1 22 2z" />
    <glyph glyph-name="uni03BD" unicode="&#x3bd;" horiz-adv-x="362" 
d="M121 -2l-111 538h117l55 -348l55 348h115l-110 -538h-121z" />
    <glyph glyph-name="uni03BE" unicode="&#x3be;" horiz-adv-x="322" 
d="M301 685v-116c-31 19 -52 27 -79 27c-40 0 -68 -28 -68 -85v-2c0 -59 21 -91 82 -91h30v-106h-30c-75 0 -100 -39 -100 -98v-2c0 -63 22 -92 99 -118l68 -25v-167h-103v90l-45 18c-97 39 -135 100 -135 192v3c0 83 27 137 99 168c-52 27 -81 75 -81 148v2
c0 107 63 182 171 182c39 0 69 -9 92 -20z" />
    <glyph glyph-name="uni03BF" unicode="&#x3bf;" horiz-adv-x="378" 
d="M189 -10c-96 0 -166 89 -166 261v32c0 172 70 261 166 261s166 -89 166 -261v-32c0 -172 -70 -261 -166 -261zM189 95c31 0 48 50 48 154v36c0 107 -17 154 -48 154s-48 -47 -48 -154v-36c0 -104 17 -154 48 -154z" />
    <glyph glyph-name="uni03C0" unicode="&#x3c0;" horiz-adv-x="442" 
d="M257 98v327h-78v-425h-118v425h-50v111h414v-111h-50v-294c0 -24 8 -32 28 -32c8 0 15 1 22 2v-93c-19 -7 -43 -13 -72 -13c-44 0 -96 17 -96 103z" />
    <glyph glyph-name="uni03C1" unicode="&#x3c1;" horiz-adv-x="381" 
d="M30 -130v445c0 151 50 229 162 229c108 0 164 -82 164 -259v-35c0 -197 -50 -260 -114 -260c-53 0 -75 43 -94 75v-195h-118zM194 103c31 0 44 51 44 147v35c0 108 -14 154 -45 154s-46 -46 -46 -154v-35c0 -96 16 -147 47 -147z" />
    <glyph glyph-name="uni03C3" unicode="&#x3c3;" horiz-adv-x="388" 
d="M189 -10c-96 0 -166 88 -166 257v32c0 171 66 257 178 257h180v-108l-82 4c40 -56 56 -118 56 -190v-1c0 -158 -70 -251 -166 -251zM189 95c31 0 48 48 48 147v36c0 107 -17 153 -48 153s-48 -46 -48 -150v-36c0 -101 17 -150 48 -150z" />
    <glyph glyph-name="uni03C2" unicode="&#x3c2;" horiz-adv-x="287" 
d="M165 -98v92l-30 21c-71 49 -112 123 -112 256v12c0 173 73 261 172 261c26 0 50 -5 71 -14v-121c-20 12 -38 20 -59 20c-36 0 -64 -37 -64 -146v-5c0 -98 19 -136 84 -179l41 -27v-170h-103z" />
    <glyph glyph-name="uni03C4" unicode="&#x3c4;" horiz-adv-x="300" 
d="M288 425h-82v-289c0 -29 11 -37 36 -37c10 0 21 1 34 4v-94c-21 -8 -54 -14 -78 -14c-56 0 -110 20 -110 107v323h-77v111h277v-111z" />
    <glyph glyph-name="uni03C5" unicode="&#x3c5;" horiz-adv-x="380" 
d="M190 -10c-107 0 -160 61 -160 184v362h118v-368c0 -49 13 -70 42 -70s42 21 42 70v368h118v-362c0 -119 -57 -184 -160 -184z" />
    <glyph glyph-name="uni03C6" unicode="&#x3c6;" horiz-adv-x="544" 
d="M331 -130h-118v127c-111 16 -190 112 -190 265v12c0 151 79 248 190 264v167h118v-166c110 -16 190 -113 190 -265v-12c0 -152 -80 -248 -190 -264v-128zM405 262v12c0 93 -30 151 -77 164v-341c47 13 77 69 77 165zM139 274v-12c0 -95 30 -152 77 -165v341
c-47 -12 -77 -68 -77 -164z" />
    <glyph glyph-name="uni03C7" unicode="&#x3c7;" horiz-adv-x="364" 
d="M123 536l60 -199l60 199h119l-112 -318l119 -348h-123l-65 230l-65 -230h-121l117 348l-110 318h121z" />
    <glyph glyph-name="uni03C8" unicode="&#x3c8;" horiz-adv-x="558" 
d="M338 -130h-118v130c-127 3 -190 61 -190 193v343h117v-341c0 -65 19 -87 74 -88v598h116v-598c55 3 74 23 74 88v341h117v-343c0 -131 -65 -189 -190 -193v-130z" />
    <glyph glyph-name="uni03C9" unicode="&#x3c9;" horiz-adv-x="560" 
d="M225 426h110v-194c0 -85 15 -128 44 -128c21 0 38 18 38 101v3c0 108 -18 208 -66 328h122c41 -108 62 -202 62 -328v-2c0 -140 -45 -216 -133 -216c-68 0 -102 46 -123 103c-21 -57 -53 -103 -121 -103c-88 0 -133 76 -133 216v2c0 126 21 220 62 328h120
c-48 -119 -64 -220 -64 -328v-3c0 -83 17 -101 38 -101c29 0 44 43 44 128v194z" />
    <glyph glyph-name="uni0410" unicode="&#x410;" horiz-adv-x="398" 
d="M1 0l133 702h130l133 -702h-122l-23 139h-111l-22 -139h-118zM159 249h75l-37 231z" />
    <glyph glyph-name="uni0411" unicode="&#x411;" horiz-adv-x="387" 
d="M36 0v700h300v-116h-178v-146c126 -5 213 -69 213 -214v-2c0 -145 -89 -222 -242 -222h-93zM158 113h1c51 3 90 33 90 105v2c0 75 -34 107 -87 107h-4v-214z" />
    <glyph glyph-name="uni0412" unicode="&#x412;" horiz-adv-x="392" 
d="M36 0v700h104c72 0 141 -18 182 -59c31 -31 46 -68 46 -119v-5c0 -90 -51 -134 -101 -158c59 -27 110 -67 110 -156v-9c0 -124 -96 -194 -232 -194h-109zM248 498v2c0 61 -35 87 -90 87h-2v-181h2c55 0 90 31 90 92zM255 204v5c0 59 -40 91 -96 91h-3v-187h3
c56 0 96 32 96 91z" />
    <glyph glyph-name="uni0413" unicode="&#x413;" horiz-adv-x="300" 
d="M36 0v700h251v-116h-129v-584h-122z" />
    <glyph glyph-name="uni0414" unicode="&#x414;" horiz-adv-x="466" 
d="M10 118h45l109 584h138l109 -584h45v-230h-112v112h-222v-112h-112v230zM231 484l-59 -372h117z" />
    <glyph glyph-name="uni0415" unicode="&#x415;" horiz-adv-x="330" 
d="M36 0v700h268v-116h-146v-174h129v-116h-129v-178h149v-116h-271z" />
    <glyph glyph-name="uni0401" unicode="&#x401;" horiz-adv-x="330" 
d="M36 0v700h268v-116h-146v-174h129v-116h-129v-178h149v-116h-271zM193 738v108h108v-108h-108zM43 738v108h108v-108h-108z" />
    <glyph glyph-name="uni0416" unicode="&#x416;" horiz-adv-x="615" 
d="M10 700h135l89 -293h16l-3 293h122l-3 -293h16l89 293h134l-114 -337l116 -363h-132l-94 297h-16l4 -297h-122l3 297h-16l-95 -297h-131l116 360z" />
    <glyph glyph-name="uni0417" unicode="&#x417;" horiz-adv-x="338" 
d="M33 564v119c35 15 71 22 114 22c103 0 170 -57 170 -177v-5c0 -88 -40 -137 -100 -165c64 -23 103 -76 103 -159v-5c0 -127 -72 -199 -185 -199c-40 0 -77 10 -110 25v124c31 -19 65 -33 100 -33c48 0 75 29 75 93v3c0 57 -24 90 -92 90h-39v110h38c61 0 92 33 92 98v2
c0 55 -22 84 -70 84c-33 0 -67 -12 -96 -27z" />
    <glyph glyph-name="uni0418" unicode="&#x418;" horiz-adv-x="428" 
d="M392 0h-118v394l-123 -394h-115v700h118v-377l117 377h121v-700z" />
    <glyph glyph-name="uni0419" unicode="&#x419;" horiz-adv-x="428" 
d="M392 0h-118v394l-123 -394h-115v700h118v-377l117 377h121v-700zM215 725c-65 0 -114 35 -115 111h70c4 -26 19 -39 45 -39c24 0 41 12 45 39h70c-3 -76 -51 -111 -115 -111z" />
    <glyph glyph-name="uni041A" unicode="&#x41a;" horiz-adv-x="404" 
d="M36 0v700h122v-292h17l83 292h134l-108 -335l112 -365h-132l-89 296h-17v-296h-122z" />
    <glyph glyph-name="uni041B" unicode="&#x41b;" horiz-adv-x="384" 
d="M255 702l128 -702h-124l-69 449l-69 -449h-120l128 702h126z" />
    <glyph glyph-name="uni041C" unicode="&#x41c;" horiz-adv-x="486" 
d="M36 0v700h123l84 -266l84 266h123v-700h-117v425l-89 -267h-2l-89 267v-425h-117z" />
    <glyph glyph-name="uni041D" unicode="&#x41d;" horiz-adv-x="422" 
d="M36 0v700h122v-290h106v290h122v-700h-122v294h-106v-294h-122z" />
    <glyph glyph-name="uni041E" unicode="&#x41e;" horiz-adv-x="420" 
d="M210 -10c-111 0 -186 111 -186 342v36c0 231 75 342 186 342s186 -111 186 -342v-36c0 -231 -75 -342 -186 -342zM210 102c37 0 62 50 62 230v36c0 180 -25 230 -62 230s-62 -50 -62 -230v-36c0 -180 25 -230 62 -230z" />
    <glyph glyph-name="uni041F" unicode="&#x41f;" horiz-adv-x="422" 
d="M36 0v700h350v-700h-122v584h-106v-584h-122z" />
    <glyph glyph-name="uni0420" unicode="&#x420;" horiz-adv-x="385" 
d="M36 0v700h109c133 0 226 -72 226 -236v-2c0 -157 -88 -234 -212 -242h-1v-220h-122zM158 333h1c51 3 90 40 90 125v2c0 89 -34 127 -87 127h-4v-254z" />
    <glyph glyph-name="uni0421" unicode="&#x421;" horiz-adv-x="336" 
d="M221 -5c-112 0 -197 99 -197 343v24c0 245 90 343 205 343c35 0 53 -4 80 -16v-126c-25 15 -45 23 -68 23c-53 0 -93 -47 -93 -223v-26c0 -184 39 -223 95 -223c21 0 43 7 68 22v-120c-28 -16 -55 -21 -90 -21z" />
    <glyph glyph-name="uni0422" unicode="&#x422;" horiz-adv-x="324" 
d="M101 0v584h-86v116h294v-116h-86v-584h-122z" />
    <glyph glyph-name="uni0423" unicode="&#x423;" horiz-adv-x="388" 
d="M204 0h-122l52 202l-132 498h124l71 -310l69 310h122z" />
    <glyph glyph-name="uni0424" unicode="&#x424;" horiz-adv-x="586" 
d="M232 -8v72c-122 19 -212 122 -212 285v6c0 167 90 265 212 284v69h122v-69c122 -19 212 -117 212 -284v-6c0 -163 -90 -266 -212 -285v-72h-122zM444 347v10c0 100 -36 160 -93 177v-365c60 17 93 75 93 178zM142 357v-10c0 -101 36 -159 93 -178v366
c-60 -17 -93 -77 -93 -178z" />
    <glyph glyph-name="uni0424.bgr" horiz-adv-x="600" 
d="M238 -91v91c-131 24 -215 139 -215 347v6c0 206 86 323 215 347v91h124v-91c129 -25 215 -139 215 -347v-6c0 -207 -87 -323 -215 -347v-91h-124zM453 345v10c0 136 -36 209 -95 234v-478c59 25 95 98 95 234zM147 355v-10c0 -136 36 -209 95 -234v478
c-59 -25 -95 -98 -95 -234z" />
    <glyph glyph-name="uni0425" unicode="&#x425;" horiz-adv-x="392" 
d="M253 700h127l-110 -343l114 -357h-130l-59 213l-60 -213h-127l114 357l-110 343h130l55 -203z" />
    <glyph glyph-name="uni0426" unicode="&#x426;" horiz-adv-x="455" 
d="M330 -112v112h-294v700h122v-584h106v584h122v-584h56v-228h-112z" />
    <glyph glyph-name="uni0427" unicode="&#x427;" horiz-adv-x="407" 
d="M248 0v239c-25 -4 -46 -5 -66 -5c-107 0 -154 55 -154 180v286h122v-277c0 -55 11 -70 55 -70c11 0 30 1 43 4v343h123v-700h-123z" />
    <glyph glyph-name="uni0428" unicode="&#x428;" horiz-adv-x="629" 
d="M36 0v700h122v-584h95v584h123v-584h95v584h122v-700h-557z" />
    <glyph glyph-name="uni0429" unicode="&#x429;" horiz-adv-x="662" 
d="M36 0v700h122v-584h95v584h123v-584h95v584h122v-584h56v-228h-112v112h-501z" />
    <glyph glyph-name="uni042A" unicode="&#x42a;" horiz-adv-x="447" 
d="M98 0v586h-83v114h205v-230c128 -5 213 -80 213 -231v-2c0 -156 -94 -237 -237 -237h-98zM220 114h1c51 3 90 37 90 120v2c0 85 -34 122 -87 122h-4v-244z" />
    <glyph glyph-name="uni042B" unicode="&#x42b;" horiz-adv-x="568" 
d="M36 0v700h122v-230c128 -5 213 -80 213 -231v-2c0 -156 -94 -237 -237 -237h-98zM410 0v700h122v-700h-122zM158 114h1c51 3 90 37 90 120v2c0 85 -34 122 -87 122h-4v-244z" />
    <glyph glyph-name="uni042C" unicode="&#x42c;" horiz-adv-x="385" 
d="M36 0v700h122v-230c128 -5 213 -80 213 -231v-2c0 -156 -94 -237 -237 -237h-98zM158 114h1c51 3 90 37 90 120v2c0 85 -34 122 -87 122h-4v-244z" />
    <glyph glyph-name="uni042D" unicode="&#x42d;" horiz-adv-x="345" 
d="M64 297v110h134c-5 152 -45 179 -99 179c-19 0 -49 -7 -72 -22v120c27 13 59 21 94 21c112 0 200 -99 200 -343v-24c0 -246 -94 -343 -210 -343c-35 0 -59 4 -86 16v126c25 -15 50 -23 74 -23c57 0 94 36 99 183h-134z" />
    <glyph glyph-name="uni042E" unicode="&#x42e;" horiz-adv-x="590" 
d="M36 0v700h122v-290h50c9 203 78 300 179 300c107 0 179 -111 179 -342v-36c0 -231 -72 -342 -179 -342c-101 0 -171 97 -179 304h-50v-294h-122zM387 102c33 0 55 50 55 230v36c0 180 -22 230 -55 230s-55 -50 -55 -230v-36c0 -180 22 -230 55 -230z" />
    <glyph glyph-name="uni042F" unicode="&#x42f;" horiz-adv-x="398" 
d="M362 700v-700h-122v244h-21l-85 -244h-131l101 280c-51 37 -85 100 -84 187v8c0 132 70 225 226 225h116zM240 586h-3c-53 0 -95 -27 -95 -111v-8c0 -83 37 -113 92 -113h6v232z" />
    <glyph glyph-name="uni0430" unicode="&#x430;" horiz-adv-x="350" 
d="M115 -9c-60 0 -101 59 -101 158v17c0 120 48 170 119 170c24 0 48 -7 71 -20v32c0 56 -25 84 -75 84c-31 0 -62 -12 -89 -25v112c36 16 76 23 107 23c59 0 97 -14 126 -43c32 -32 48 -80 48 -143v-356h-118v57c-21 -44 -51 -66 -88 -66zM164 90c20 0 40 16 40 51v92
c-9 5 -26 11 -37 11c-24 0 -40 -20 -40 -71v-14c0 -53 16 -69 37 -69z" />
    <glyph glyph-name="uni0431" unicode="&#x431;" horiz-adv-x="378" 
d="M189 -10c-37 0 -69 9 -97 37c-40 40 -66 120 -66 268v1c0 256 45 372 198 396l109 18v-111l-82 -14c-92 -16 -126 -42 -139 -169c31 59 72 71 109 71c71 0 134 -58 134 -227v-22c0 -163 -69 -248 -166 -248zM190 92c29 0 47 46 47 139v20c0 95 -19 139 -47 139
c-29 0 -47 -46 -47 -139v-20c0 -93 19 -139 47 -139z" />
    <glyph glyph-name="uni0432" unicode="&#x432;" horiz-adv-x="355" 
d="M33 0v536h114c127 0 190 -46 190 -138v-3c0 -56 -34 -99 -77 -119c49 -20 81 -59 81 -118v-6c0 -98 -78 -152 -190 -152h-118zM148 317h9c43 0 65 21 65 62v1c0 43 -23 59 -64 59h-10v-122zM148 226v-129h11c39 0 66 19 66 63v3c0 42 -22 63 -67 63h-10z" />
    <glyph glyph-name="uni0432.bgr" horiz-adv-x="386" 
d="M196 -10c-108 0 -168 64 -168 207v307c0 123 55 206 170 206c101 0 162 -79 162 -180v-5c0 -79 -28 -144 -96 -173c69 -27 104 -73 104 -165v-5c0 -113 -63 -192 -172 -192zM196 93c33 0 54 32 54 96v2c0 81 -22 111 -82 111h-23v-102c0 -76 15 -107 51 -107zM145 515
v-117h27c53 0 70 41 70 114v2c0 56 -13 93 -48 93c-31 0 -49 -27 -49 -92z" />
    <glyph glyph-name="uni0433" unicode="&#x433;" horiz-adv-x="273" 
d="M33 0v536h230v-111h-112v-425h-118z" />
    <glyph glyph-name="uni0433.bgr" horiz-adv-x="295" 
d="M160 -10c-101 0 -152 57 -152 145v2c0 61 27 110 92 173c56 54 70 70 70 93v1c0 20 -15 35 -44 34c-28 0 -61 -12 -88 -27v116c28 11 67 17 99 17c96 0 147 -54 147 -135v-2c0 -68 -34 -116 -98 -177c-47 -45 -64 -67 -64 -94v-1c0 -24 17 -40 46 -39c29 0 62 12 102 33
v-116c-36 -15 -75 -23 -110 -23z" />
    <glyph glyph-name="uni0434" unicode="&#x434;" horiz-adv-x="418" 
d="M275 538l96 -432h39v-204h-103v98h-196v-98h-103v204h38l96 432h133zM208 378l-50 -277h100z" />
    <glyph glyph-name="uni0434.bgr" horiz-adv-x="384" 
d="M163 -132c-51 0 -77 6 -116 17v109c33 -12 76 -22 100 -22c53 0 86 21 86 84v53c-17 -33 -44 -77 -95 -77c-64 0 -113 65 -113 254v6c0 191 49 254 113 254c52 0 76 -42 95 -75v65h118v-489c0 -60 -15 -102 -46 -133c-32 -32 -81 -46 -142 -46zM187 145
c28 0 47 47 47 143v2c0 96 -19 143 -47 143c-29 0 -44 -48 -44 -143v-2c0 -95 15 -143 44 -143z" />
    <glyph glyph-name="uni0435" unicode="&#x435;" horiz-adv-x="350" 
d="M204 -10c-100 0 -184 91 -184 264v26c0 172 74 264 163 264c93 0 152 -92 152 -269v-62h-197c7 -84 42 -113 81 -113c36 0 59 15 94 39l9 -108c-41 -27 -73 -41 -118 -41zM137 306h87c0 89 -14 133 -41 133s-43 -37 -46 -133z" />
    <glyph glyph-name="uni0451" unicode="&#x451;" horiz-adv-x="350" 
d="M204 -10c-100 0 -184 91 -184 264v26c0 172 74 264 163 264c93 0 152 -92 152 -269v-62h-197c7 -84 42 -113 81 -113c36 0 59 15 94 39l9 -108c-41 -27 -73 -41 -118 -41zM137 306h87c0 89 -14 133 -41 133s-43 -37 -46 -133zM200 583v108h106v-108h-106zM58 583v108h106
v-108h-106z" />
    <glyph glyph-name="uni0436" unicode="&#x436;" horiz-adv-x="536" 
d="M326 536l-4 -213h15l71 213h124l-94 -259l93 -277h-126l-68 218h-15l4 -218h-116l3 218h-15l-68 -218h-125l93 271l-94 265h125l69 -213h15l-3 213h116z" />
    <glyph glyph-name="uni0436.bgr" horiz-adv-x="536" 
d="M326 705l-4 -382h15l71 213h124l-94 -259l93 -277h-126l-68 218h-15l4 -218h-116l3 218h-15l-68 -218h-125l93 271l-94 265h125l69 -213h15l-3 382h116z" />
    <glyph glyph-name="uni0437" unicode="&#x437;" horiz-adv-x="291" 
d="M20 10v113c35 -19 61 -25 86 -25c36 0 54 19 54 57v1c0 41 -24 61 -80 61h-28v102h28c51 0 78 15 78 60v1c0 35 -15 56 -50 56c-25 0 -53 -10 -84 -27v110c32 15 67 25 106 25c88 0 142 -48 142 -144v-4c0 -67 -35 -106 -86 -125c60 -21 88 -59 88 -128v-4
c0 -96 -60 -149 -155 -149c-35 0 -71 8 -99 20z" />
    <glyph glyph-name="uni0438" unicode="&#x438;" horiz-adv-x="385" 
d="M33 0v536h116v-271l93 271h110v-536h-116v271l-93 -271h-110z" />
    <glyph glyph-name="uni0438.bgr" horiz-adv-x="379" 
d="M133 -10c-68 0 -103 57 -103 140v406h118v-379c0 -39 15 -61 39 -61s41 22 41 61v379h118v-536h-118v64c-21 -41 -48 -74 -95 -74z" />
    <glyph glyph-name="uni0439" unicode="&#x439;" horiz-adv-x="385" 
d="M33 0v536h116v-271l93 271h110v-536h-116v271l-93 -271h-110zM195 565c-63 0 -113 36 -118 119h70c4 -28 19 -47 48 -47s44 19 48 47h70c-5 -83 -55 -119 -118 -119z" />
    <glyph glyph-name="uni0439.bgr" horiz-adv-x="379" 
d="M133 -10c-68 0 -103 57 -103 140v406h118v-379c0 -39 15 -61 39 -61s41 22 41 61v379h118v-536h-118v64c-21 -41 -48 -74 -95 -74zM189 565c-63 0 -113 36 -118 119h70c4 -28 19 -47 48 -47s44 19 48 47h70c-5 -83 -55 -119 -118 -119z" />
    <glyph glyph-name="uni043A" unicode="&#x43a;" horiz-adv-x="365" 
d="M151 536v-211h16l69 211h126l-93 -258l91 -278h-128l-65 216h-16v-216h-118v536h118z" />
    <glyph glyph-name="uni043A.bgr" horiz-adv-x="365" 
d="M360 0h-128l-65 216h-16v-216h-118v705h118v-380h16l69 211h126l-93 -258z" />
    <glyph glyph-name="uni043B" unicode="&#x43b;" horiz-adv-x="372" 
d="M250 538l112 -538h-117l-60 350l-60 -350h-115l111 538h129z" />
    <glyph glyph-name="uni043C" unicode="&#x43c;" horiz-adv-x="426" 
d="M33 0v536h118l62 -184l62 184h118v-536h-114v306l-65 -184h-2l-65 184v-306h-114z" />
    <glyph glyph-name="uni043D" unicode="&#x43d;" horiz-adv-x="386" 
d="M33 0v536h118v-210h84v210h118v-536h-118v215h-84v-215h-118z" />
    <glyph glyph-name="uni043E" unicode="&#x43e;" horiz-adv-x="378" 
d="M189 -10c-96 0 -166 89 -166 261v32c0 172 70 261 166 261s166 -89 166 -261v-32c0 -172 -70 -261 -166 -261zM189 95c31 0 48 50 48 154v36c0 107 -17 154 -48 154s-48 -47 -48 -154v-36c0 -104 17 -154 48 -154z" />
    <glyph glyph-name="uni043F" unicode="&#x43f;" horiz-adv-x="386" 
d="M33 0v536h320v-536h-118v425h-84v-425h-118z" />
    <glyph glyph-name="uni043F.bgr" horiz-adv-x="379" 
d="M33 0v536h118v-64c21 41 48 74 95 74c68 0 103 -57 103 -140v-406h-118v379c0 39 -15 61 -39 61s-41 -22 -41 -61v-379h-118z" />
    <glyph glyph-name="uni0440" unicode="&#x440;" horiz-adv-x="384" 
d="M33 -130v666h118v-67c16 32 42 77 94 77c64 0 114 -61 114 -254v-48c0 -191 -50 -254 -114 -254c-53 0 -75 43 -94 75v-195h-118zM197 103c31 0 44 51 44 147v36c0 96 -13 147 -44 147s-47 -51 -47 -147v-36c0 -96 16 -147 47 -147z" />
    <glyph glyph-name="uni0441" unicode="&#x441;" horiz-adv-x="286" 
d="M189 -10c-100 0 -166 88 -166 261v32c0 172 73 261 169 261c35 0 50 -3 74 -14v-121c-20 12 -38 20 -59 20c-37 0 -64 -39 -64 -144v-36c0 -104 27 -144 66 -144c17 0 38 10 58 23v-116c-27 -15 -47 -22 -78 -22z" />
    <glyph glyph-name="uni0442" unicode="&#x442;" horiz-adv-x="302" 
d="M92 0v425h-80v111h278v-111h-80v-425h-118z" />
    <glyph glyph-name="uni0442.bgr" horiz-adv-x="573" 
d="M33 0v536h118v-63c24 45 51 73 95 73c45 0 71 -27 90 -62c21 29 49 62 96 62c56 0 111 -49 111 -142v-404h-118v378c0 39 -14 62 -38 62s-40 -23 -40 -62v-378h-118v378c0 39 -14 62 -38 62s-40 -23 -40 -62v-378h-118z" />
    <glyph glyph-name="uni0443" unicode="&#x443;" horiz-adv-x="362" 
d="M179 220l56 316h116l-148 -666h-115v1l34 148l-111 517h117z" />
    <glyph glyph-name="uni0444" unicode="&#x444;" horiz-adv-x="544" 
d="M331 -130h-118v127c-111 16 -190 112 -190 265v12c0 151 79 248 190 264v167h118v-166c110 -16 190 -113 190 -265v-12c0 -152 -80 -248 -190 -264v-128zM405 262v12c0 93 -30 151 -77 164v-341c47 13 77 69 77 165zM139 274v-12c0 -95 30 -152 77 -165v341
c-47 -12 -77 -68 -77 -164z" />
    <glyph glyph-name="uni0445" unicode="&#x445;" horiz-adv-x="346" 
d="M127 536l47 -160l47 160h120l-95 -261l97 -275h-124l-47 170l-47 -170h-122l97 275l-95 261h122z" />
    <glyph glyph-name="uni0446" unicode="&#x446;" horiz-adv-x="410" 
d="M295 -98v98h-262v536h118v-425h84v425h118v-430h45v-204h-103z" />
    <glyph glyph-name="uni0446.bgr" horiz-adv-x="403" 
d="M288 -98v98h-60v64c-21 -41 -48 -74 -95 -74c-68 0 -103 57 -103 140v406h118v-379c0 -39 15 -61 39 -61s41 22 41 61v379h118v-430h45v-204h-103z" />
    <glyph glyph-name="uni0447" unicode="&#x447;" horiz-adv-x="376" 
d="M225 0v175c-17 -2 -34 -3 -49 -3c-84 0 -150 30 -150 146v218h118v-204c0 -39 12 -51 47 -51c11 0 23 1 34 3v252h118v-536h-118z" />
    <glyph glyph-name="uni0448" unicode="&#x448;" horiz-adv-x="576" 
d="M33 0v536h118v-425h78v425h118v-425h78v425h118v-536h-510z" />
    <glyph glyph-name="uni0448.bgr" horiz-adv-x="573" 
d="M540 536v-536h-118v63c-24 -45 -51 -73 -95 -73c-45 0 -71 27 -90 62c-21 -29 -49 -62 -96 -62c-56 0 -111 49 -111 142v404h118v-378c0 -39 14 -62 38 -62s40 23 40 62v378h118v-378c0 -39 14 -62 38 -62s40 23 40 62v378h118z" />
    <glyph glyph-name="uni0449" unicode="&#x449;" horiz-adv-x="600" 
d="M33 0v536h118v-425h78v425h118v-425h78v425h118v-430h45v-204h-103v98h-452z" />
    <glyph glyph-name="uni0449.bgr" horiz-adv-x="597" 
d="M540 536v-430h45v-204h-103v98h-60v63c-24 -45 -51 -73 -95 -73c-45 0 -71 27 -90 62c-21 -29 -49 -62 -96 -62c-56 0 -111 49 -111 142v404h118v-378c0 -39 14 -62 38 -62s40 23 40 62v378h118v-378c0 -39 14 -62 38 -62s40 23 40 62v378h118z" />
    <glyph glyph-name="uni044A" unicode="&#x44a;" horiz-adv-x="408" 
d="M88 0v431h-76v105h194v-155h1c96 0 188 -47 188 -185v-4c0 -124 -80 -192 -208 -192h-99zM206 284v-187h5c39 0 66 32 66 91v3c0 63 -26 93 -65 93h-6z" />
    <glyph glyph-name="uni044B" unicode="&#x44b;" horiz-adv-x="526" 
d="M151 536v-155h1c96 0 188 -47 188 -185v-4c0 -124 -80 -192 -208 -192h-99v536h118zM151 284v-187h5c39 0 66 32 66 91v3c0 63 -26 93 -65 93h-6zM375 0v536h118v-536h-118z" />
    <glyph glyph-name="uni044C" unicode="&#x44c;" horiz-adv-x="353" 
d="M33 0v536h118v-155h1c96 0 188 -47 188 -185v-4c0 -124 -80 -192 -208 -192h-99zM151 97h5c39 0 66 32 66 91v3c0 63 -26 93 -65 93h-6v-187z" />
    <glyph glyph-name="uni044D" unicode="&#x44d;" horiz-adv-x="300" 
d="M47 320l112 -2c-3 87 -35 114 -74 114c-20 0 -44 -7 -63 -19v112c29 15 57 19 84 19c101 0 171 -84 171 -256v-38c0 -172 -76 -260 -180 -260c-27 0 -54 3 -77 14v116c20 -11 43 -18 66 -18c37 0 71 26 74 115l-113 -1v104z" />
    <glyph glyph-name="uni044E" unicode="&#x44e;" horiz-adv-x="547" 
d="M151 215v-215h-118v536h118v-210h45c11 145 75 218 163 218c97 0 165 -88 165 -261v-32c0 -173 -68 -261 -165 -261c-89 0 -154 76 -163 225h-45zM359 95c31 0 47 51 47 154v36c0 107 -16 154 -47 154s-46 -47 -46 -154v-36c0 -103 15 -154 46 -154z" />
    <glyph glyph-name="uni044E.bgr" horiz-adv-x="547" 
d="M151 215v-215h-118v705h118v-379h45c11 145 75 218 163 218c97 0 165 -88 165 -261v-32c0 -173 -68 -261 -165 -261c-89 0 -154 76 -163 225h-45zM359 95c31 0 47 51 47 154v36c0 107 -16 154 -47 154s-46 -47 -46 -154v-36c0 -103 15 -154 46 -154z" />
    <glyph glyph-name="uni044F" unicode="&#x44f;" horiz-adv-x="368" 
d="M130 0h-124l81 211c-39 31 -64 79 -63 140v3c0 90 45 182 197 182h114v-536h-118v172h-10h-15zM217 439h-2c-49 0 -73 -28 -73 -83v-2c0 -59 22 -84 71 -84h4v169z" />
    <glyph glyph-name="Aacute" unicode="&#xc1;" horiz-adv-x="398" 
d="M1 0l133 702h130l133 -702h-122l-23 139h-111l-22 -139h-118zM159 249h75l-37 231zM149 740l86 127l101 -50l-99 -77h-88z" />
    <glyph glyph-name="aacute" unicode="&#xe1;" horiz-adv-x="350" 
d="M115 -9c-60 0 -101 59 -101 158v17c0 120 48 170 119 170c24 0 48 -7 71 -20v32c0 56 -25 84 -75 84c-31 0 -62 -12 -89 -25v112c36 16 76 23 107 23c59 0 97 -14 126 -43c32 -32 48 -80 48 -143v-356h-118v57c-21 -44 -51 -66 -88 -66zM164 90c20 0 40 16 40 51v92
c-9 5 -26 11 -37 11c-24 0 -40 -20 -40 -71v-14c0 -53 16 -69 37 -69zM126 580l86 147l93 -49l-99 -98h-80z" />
    <glyph glyph-name="aacute.alt" horiz-adv-x="384" 
d="M139 -10c-64 0 -114 61 -114 254v48c0 191 50 254 114 254c53 0 76 -43 94 -75v65h118v-536h-118v67c-16 -32 -43 -77 -94 -77zM187 103c31 0 47 51 47 147v36c0 96 -16 147 -47 147s-44 -51 -44 -147v-36c0 -96 13 -147 44 -147zM154 580l86 147l93 -49l-99 -98h-80z
" />
    <glyph glyph-name="Abreve" unicode="&#x102;" horiz-adv-x="398" 
d="M1 0l133 702h130l133 -702h-122l-23 139h-111l-22 -139h-118zM159 249h75l-37 231zM200 734c-65 0 -114 35 -115 111h70c4 -26 19 -39 45 -39c24 0 41 12 45 39h70c-3 -76 -51 -111 -115 -111z" />
    <glyph glyph-name="abreve" unicode="&#x103;" horiz-adv-x="350" 
d="M115 -9c-60 0 -101 59 -101 158v17c0 120 48 170 119 170c24 0 48 -7 71 -20v32c0 56 -25 84 -75 84c-31 0 -62 -12 -89 -25v112c36 16 76 23 107 23c59 0 97 -14 126 -43c32 -32 48 -80 48 -143v-356h-118v57c-21 -44 -51 -66 -88 -66zM164 90c20 0 40 16 40 51v92
c-9 5 -26 11 -37 11c-24 0 -40 -20 -40 -71v-14c0 -53 16 -69 37 -69zM173 574c-63 0 -113 36 -118 119h70c4 -28 19 -47 48 -47s44 19 48 47h70c-5 -83 -55 -119 -118 -119z" />
    <glyph glyph-name="abreve.alt" horiz-adv-x="384" 
d="M139 -10c-64 0 -114 61 -114 254v48c0 191 50 254 114 254c53 0 76 -43 94 -75v65h118v-536h-118v67c-16 -32 -43 -77 -94 -77zM187 103c31 0 47 51 47 147v36c0 96 -16 147 -47 147s-44 -51 -44 -147v-36c0 -96 13 -147 44 -147zM201 574c-63 0 -113 36 -118 119h70
c4 -28 19 -47 48 -47s44 19 48 47h70c-5 -83 -55 -119 -118 -119z" />
    <glyph glyph-name="Acircumflex" unicode="&#xc2;" horiz-adv-x="398" 
d="M1 0l133 702h130l133 -702h-122l-23 139h-111l-22 -139h-118zM159 249h75l-37 231zM78 740l74 119h96l74 -119h-82l-41 48l-41 -48h-80z" />
    <glyph glyph-name="acircumflex" unicode="&#xe2;" horiz-adv-x="350" 
d="M115 -9c-60 0 -101 59 -101 158v17c0 120 48 170 119 170c24 0 48 -7 71 -20v32c0 56 -25 84 -75 84c-31 0 -62 -12 -89 -25v112c36 16 76 23 107 23c59 0 97 -14 126 -43c32 -32 48 -80 48 -143v-356h-118v57c-21 -44 -51 -66 -88 -66zM164 90c20 0 40 16 40 51v92
c-9 5 -26 11 -37 11c-24 0 -40 -20 -40 -71v-14c0 -53 16 -69 37 -69zM51 580l78 139h88l78 -139h-77l-46 62l-46 -62h-75z" />
    <glyph glyph-name="acircumflex.alt" horiz-adv-x="384" 
d="M139 -10c-64 0 -114 61 -114 254v48c0 191 50 254 114 254c53 0 76 -43 94 -75v65h118v-536h-118v67c-16 -32 -43 -77 -94 -77zM187 103c31 0 47 51 47 147v36c0 96 -16 147 -47 147s-44 -51 -44 -147v-36c0 -96 13 -147 44 -147zM79 580l78 139h88l78 -139h-77l-46 62
l-46 -62h-75z" />
    <glyph glyph-name="Adieresis" unicode="&#xc4;" horiz-adv-x="398" 
d="M1 0l133 702h130l133 -702h-122l-23 139h-111l-22 -139h-118zM159 249h75l-37 231zM221 743v108h108v-108h-108zM71 743v108h108v-108h-108z" />
    <glyph glyph-name="adieresis" unicode="&#xe4;" horiz-adv-x="350" 
d="M115 -9c-60 0 -101 59 -101 158v17c0 120 48 170 119 170c24 0 48 -7 71 -20v32c0 56 -25 84 -75 84c-31 0 -62 -12 -89 -25v112c36 16 76 23 107 23c59 0 97 -14 126 -43c32 -32 48 -80 48 -143v-356h-118v57c-21 -44 -51 -66 -88 -66zM164 90c20 0 40 16 40 51v92
c-9 5 -26 11 -37 11c-24 0 -40 -20 -40 -71v-14c0 -53 16 -69 37 -69zM191 583v108h106v-108h-106zM49 583v108h106v-108h-106z" />
    <glyph glyph-name="adieresis.alt" horiz-adv-x="384" 
d="M139 -10c-64 0 -114 61 -114 254v48c0 191 50 254 114 254c53 0 76 -43 94 -75v65h118v-536h-118v67c-16 -32 -43 -77 -94 -77zM187 103c31 0 47 51 47 147v36c0 96 -16 147 -47 147s-44 -51 -44 -147v-36c0 -96 13 -147 44 -147zM219 583v108h106v-108h-106zM77 583v108
h106v-108h-106z" />
    <glyph glyph-name="Agrave" unicode="&#xc0;" horiz-adv-x="398" 
d="M1 0l133 702h130l133 -702h-122l-23 139h-111l-22 -139h-118zM159 249h75l-37 231zM251 740h-88l-99 77l101 50z" />
    <glyph glyph-name="agrave" unicode="&#xe0;" horiz-adv-x="350" 
d="M115 -9c-60 0 -101 59 -101 158v17c0 120 48 170 119 170c24 0 48 -7 71 -20v32c0 56 -25 84 -75 84c-31 0 -62 -12 -89 -25v112c36 16 76 23 107 23c59 0 97 -14 126 -43c32 -32 48 -80 48 -143v-356h-118v57c-21 -44 -51 -66 -88 -66zM164 90c20 0 40 16 40 51v92
c-9 5 -26 11 -37 11c-24 0 -40 -20 -40 -71v-14c0 -53 16 -69 37 -69zM140 580l-99 98l93 49l86 -147h-80z" />
    <glyph glyph-name="agrave.alt" horiz-adv-x="384" 
d="M139 -10c-64 0 -114 61 -114 254v48c0 191 50 254 114 254c53 0 76 -43 94 -75v65h118v-536h-118v67c-16 -32 -43 -77 -94 -77zM187 103c31 0 47 51 47 147v36c0 96 -16 147 -47 147s-44 -51 -44 -147v-36c0 -96 13 -147 44 -147zM168 580l-99 98l93 49l86 -147h-80z" />
    <glyph glyph-name="Amacron" unicode="&#x100;" horiz-adv-x="398" 
d="M1 0l133 702h130l133 -702h-122l-23 139h-111l-22 -139h-118zM159 249h75l-37 231zM79 743v79h242v-79h-242z" />
    <glyph glyph-name="amacron" unicode="&#x101;" horiz-adv-x="350" 
d="M115 -9c-60 0 -101 59 -101 158v17c0 120 48 170 119 170c24 0 48 -7 71 -20v32c0 56 -25 84 -75 84c-31 0 -62 -12 -89 -25v112c36 16 76 23 107 23c59 0 97 -14 126 -43c32 -32 48 -80 48 -143v-356h-118v57c-21 -44 -51 -66 -88 -66zM164 90c20 0 40 16 40 51v92
c-9 5 -26 11 -37 11c-24 0 -40 -20 -40 -71v-14c0 -53 16 -69 37 -69zM57 583v78h232v-78h-232z" />
    <glyph glyph-name="amacron.alt" horiz-adv-x="384" 
d="M139 -10c-64 0 -114 61 -114 254v48c0 191 50 254 114 254c53 0 76 -43 94 -75v65h118v-536h-118v67c-16 -32 -43 -77 -94 -77zM187 103c31 0 47 51 47 147v36c0 96 -16 147 -47 147s-44 -51 -44 -147v-36c0 -96 13 -147 44 -147zM85 583v78h232v-78h-232z" />
    <glyph glyph-name="Aogonek" unicode="&#x104;" horiz-adv-x="398" 
d="M403 -79v-68c-15 -3 -29 -4 -41 -4c-63 0 -97 24 -97 71c0 33 13 56 36 80h-26l-23 139h-111l-22 -139h-118l133 702h130l133 -702h-14c-16 -21 -21 -36 -21 -51c0 -23 14 -31 41 -28zM159 249h75l-37 231z" />
    <glyph glyph-name="aogonek" unicode="&#x105;" horiz-adv-x="350" 
d="M325 -79v-68c-15 -3 -29 -4 -41 -4c-63 0 -97 24 -97 71c0 33 13 56 36 80h-20v57c-21 -44 -51 -66 -88 -66c-60 0 -101 59 -101 158v17c0 120 48 170 119 170c24 0 48 -7 71 -20v32c0 56 -25 84 -75 84c-31 0 -62 -12 -89 -25v112c36 16 76 23 107 23
c59 0 97 -14 126 -43c32 -32 48 -80 48 -143v-356h-16c-16 -21 -21 -36 -21 -51c0 -23 14 -31 41 -28zM164 90c20 0 40 16 40 51v92c-9 5 -26 11 -37 11c-24 0 -40 -20 -40 -71v-14c0 -53 16 -69 37 -69z" />
    <glyph glyph-name="aogonek.alt" horiz-adv-x="384" 
d="M355 -79v-68c-15 -3 -29 -4 -41 -4c-63 0 -97 24 -97 71c0 33 13 56 36 80h-20v67c-16 -32 -43 -77 -94 -77c-64 0 -114 61 -114 254v48c0 191 50 254 114 254c53 0 76 -43 94 -75v65h118v-536h-16c-16 -21 -21 -36 -21 -51c0 -23 14 -31 41 -28zM187 103
c31 0 47 51 47 147v36c0 96 -16 147 -47 147s-44 -51 -44 -147v-36c0 -96 13 -147 44 -147z" />
    <glyph glyph-name="Aring" unicode="&#xc5;" horiz-adv-x="398" 
d="M1 0l128 679c-11 15 -16 32 -16 51c0 48 39 84 87 84s87 -35 87 -84c0 -21 -6 -38 -19 -53l129 -677h-122l-23 139h-111l-22 -139h-118zM159 249h75l-37 231zM200 690c23 0 39 17 39 40s-16 40 -39 40s-39 -17 -39 -40s16 -40 39 -40z" />
    <glyph glyph-name="aring" unicode="&#xe5;" horiz-adv-x="350" 
d="M115 -9c-60 0 -101 59 -101 158v17c0 120 48 170 119 170c24 0 48 -7 71 -20v32c0 56 -25 84 -75 84c-31 0 -62 -12 -89 -25v112c36 16 76 23 107 23c59 0 97 -14 126 -43c32 -32 48 -80 48 -143v-356h-118v57c-21 -44 -51 -66 -88 -66zM164 90c20 0 40 16 40 51v92
c-9 5 -26 11 -37 11c-24 0 -40 -20 -40 -71v-14c0 -53 16 -69 37 -69zM173 574c-48 0 -87 37 -87 90c0 52 39 90 87 90s87 -37 87 -90c0 -52 -39 -90 -87 -90zM173 619c23 0 39 18 39 45s-16 45 -39 45s-39 -18 -39 -45s16 -45 39 -45z" />
    <glyph glyph-name="aring.alt" horiz-adv-x="384" 
d="M139 -10c-64 0 -114 61 -114 254v48c0 191 50 254 114 254c53 0 76 -43 94 -75v65h118v-536h-118v67c-16 -32 -43 -77 -94 -77zM187 103c31 0 47 51 47 147v36c0 96 -16 147 -47 147s-44 -51 -44 -147v-36c0 -96 13 -147 44 -147zM201 574c-48 0 -87 37 -87 90
c0 52 39 90 87 90s87 -37 87 -90c0 -52 -39 -90 -87 -90zM201 619c23 0 39 18 39 45s-16 45 -39 45s-39 -18 -39 -45s16 -45 39 -45z" />
    <glyph glyph-name="aring.alt2" horiz-adv-x="350" 
d="M116 -9c-60 0 -102 59 -102 158v17c0 120 48 170 119 170c24 0 48 -7 71 -20v32c0 56 -27 84 -75 84c-31 0 -60 -12 -89 -25v112c21 9 41 15 61 19c-10 13 -15 29 -15 50c0 52 39 90 87 90s87 -37 87 -90c0 -27 -11 -47 -26 -62c14 -7 27 -16 39 -27
c32 -32 48 -80 48 -143v-356h-118v57c-21 -44 -50 -66 -87 -66zM164 90c20 0 40 16 40 51v92c-9 5 -26 11 -37 11c-24 0 -40 -20 -40 -71v-14c0 -53 16 -69 37 -69zM134 588c0 -27 16 -45 39 -45s39 18 39 45s-16 45 -39 45s-39 -18 -39 -45z" />
    <glyph glyph-name="Aringacute" unicode="&#x1fa;" horiz-adv-x="398" 
d="M1 0l128 679c-11 15 -16 32 -16 51c0 48 39 84 87 84s87 -35 87 -84c0 -21 -6 -38 -19 -53l129 -677h-122l-23 139h-111l-22 -139h-118zM155 830l80 107l101 -50l-88 -57h-93zM159 249h75l-37 231zM200 690c23 0 39 17 39 40s-16 40 -39 40s-39 -17 -39 -40
s16 -40 39 -40z" />
    <glyph glyph-name="aringacute" unicode="&#x1fb;" horiz-adv-x="350" 
d="M129 773l76 112l93 -44l-85 -68h-84zM115 -9c-60 0 -101 59 -101 158v17c0 120 48 170 119 170c24 0 48 -7 71 -20v32c0 56 -25 84 -75 84c-31 0 -62 -12 -89 -25v112c36 16 76 23 107 23c59 0 97 -14 126 -43c32 -32 48 -80 48 -143v-356h-118v57
c-21 -44 -51 -66 -88 -66zM164 90c20 0 40 16 40 51v92c-9 5 -26 11 -37 11c-24 0 -40 -20 -40 -71v-14c0 -53 16 -69 37 -69zM173 574c-48 0 -87 37 -87 90c0 52 39 90 87 90s87 -37 87 -90c0 -52 -39 -90 -87 -90zM173 619c23 0 39 18 39 45s-16 45 -39 45
s-39 -18 -39 -45s16 -45 39 -45z" />
    <glyph glyph-name="aringacute.alt" horiz-adv-x="384" 
d="M156 773l76 112l93 -44l-85 -68h-84zM139 -10c-64 0 -114 61 -114 254v48c0 191 50 254 114 254c53 0 76 -43 94 -75v65h118v-536h-118v67c-16 -32 -43 -77 -94 -77zM187 103c31 0 47 51 47 147v36c0 96 -16 147 -47 147s-44 -51 -44 -147v-36c0 -96 13 -147 44 -147z
M200 574c-48 0 -87 37 -87 90c0 52 39 90 87 90s87 -37 87 -90c0 -52 -39 -90 -87 -90zM200 619c23 0 39 18 39 45s-16 45 -39 45s-39 -18 -39 -45s16 -45 39 -45z" />
    <glyph glyph-name="aringacute.alt2" horiz-adv-x="350" 
d="M129 701l76 112l93 -44l-85 -68h-84zM116 -9c-60 0 -102 59 -102 158v17c0 120 48 170 119 170c24 0 48 -7 71 -20v32c0 56 -27 84 -75 84c-31 0 -60 -12 -89 -25v112c21 9 41 15 61 19c-10 13 -15 29 -15 50c0 52 39 90 87 90s87 -37 87 -90c0 -27 -11 -47 -26 -62
c14 -7 27 -16 39 -27c32 -32 48 -80 48 -143v-356h-118v57c-21 -44 -50 -66 -87 -66zM164 90c20 0 40 16 40 51v92c-9 5 -26 11 -37 11c-24 0 -40 -20 -40 -71v-14c0 -53 16 -69 37 -69zM134 588c0 -27 16 -45 39 -45s39 18 39 45s-16 45 -39 45s-39 -18 -39 -45z" />
    <glyph glyph-name="Atilde" unicode="&#xc3;" horiz-adv-x="398" 
d="M1 0l133 702h130l133 -702h-122l-23 139h-111l-22 -139h-118zM159 249h75l-37 231zM263 739c-21 0 -43 10 -62 19c-17 8 -32 16 -43 16c-13 0 -18 -8 -26 -39l-69 17c13 80 34 109 74 109c23 0 46 -10 66 -21c16 -7 28 -14 39 -14c13 0 18 8 26 39l69 -17
c-13 -80 -34 -109 -74 -109z" />
    <glyph glyph-name="atilde" unicode="&#xe3;" horiz-adv-x="350" 
d="M115 -9c-60 0 -101 59 -101 158v17c0 120 48 170 119 170c24 0 48 -7 71 -20v32c0 56 -25 84 -75 84c-31 0 -62 -12 -89 -25v112c36 16 76 23 107 23c59 0 97 -14 126 -43c32 -32 48 -80 48 -143v-356h-118v57c-21 -44 -51 -66 -88 -66zM164 90c20 0 40 16 40 51v92
c-9 5 -26 11 -37 11c-24 0 -40 -20 -40 -71v-14c0 -53 16 -69 37 -69zM239 579c-20 0 -43 11 -63 20c-17 8 -31 15 -42 15c-15 0 -20 -8 -28 -39l-65 16c13 79 33 106 72 106c20 0 43 -11 63 -20c17 -8 31 -15 42 -15c15 0 20 8 28 39l65 -16c-13 -79 -33 -106 -72 -106z
" />
    <glyph glyph-name="atilde.alt" horiz-adv-x="384" 
d="M139 -10c-64 0 -114 61 -114 254v48c0 191 50 254 114 254c53 0 76 -43 94 -75v65h118v-536h-118v67c-16 -32 -43 -77 -94 -77zM187 103c31 0 47 51 47 147v36c0 96 -16 147 -47 147s-44 -51 -44 -147v-36c0 -96 13 -147 44 -147zM267 579c-20 0 -43 11 -63 20
c-17 8 -31 15 -42 15c-15 0 -20 -8 -28 -39l-65 16c13 79 33 106 72 106c20 0 43 -11 63 -20c17 -8 31 -15 42 -15c15 0 20 8 28 39l65 -16c-13 -79 -33 -106 -72 -106z" />
    <glyph glyph-name="Cacute" unicode="&#x106;" horiz-adv-x="336" 
d="M221 -5c-112 0 -197 99 -197 343v24c0 245 90 343 205 343c35 0 53 -4 80 -16v-126c-25 15 -45 23 -68 23c-53 0 -93 -47 -93 -223v-26c0 -184 39 -223 95 -223c21 0 43 7 68 22v-120c-28 -16 -55 -21 -90 -21zM153 740l86 127l101 -50l-99 -77h-88z" />
    <glyph glyph-name="cacute" unicode="&#x107;" horiz-adv-x="286" 
d="M189 -10c-100 0 -166 88 -166 261v32c0 172 73 261 169 261c35 0 50 -3 74 -14v-121c-20 12 -38 20 -59 20c-37 0 -64 -39 -64 -144v-36c0 -104 27 -144 66 -144c17 0 38 10 58 23v-116c-27 -15 -47 -22 -78 -22zM128 580l86 147l93 -49l-99 -98h-80z" />
    <glyph glyph-name="Ccaron" unicode="&#x10c;" horiz-adv-x="336" 
d="M221 -5c-112 0 -197 99 -197 343v24c0 245 90 343 205 343c35 0 53 -4 80 -16v-126c-25 15 -45 23 -68 23c-53 0 -93 -47 -93 -223v-26c0 -184 39 -223 95 -223c21 0 43 7 68 22v-120c-28 -16 -55 -21 -90 -21zM326 859l-74 -119h-96l-74 119h82l41 -48l41 48h80z" />
    <glyph glyph-name="ccaron" unicode="&#x10d;" horiz-adv-x="286" 
d="M189 -10c-100 0 -166 88 -166 261v32c0 172 73 261 169 261c35 0 50 -3 74 -14v-121c-20 12 -38 20 -59 20c-37 0 -64 -39 -64 -144v-36c0 -104 27 -144 66 -144c17 0 38 10 58 23v-116c-27 -15 -47 -22 -78 -22zM297 719l-78 -139h-88l-78 139h77l46 -62l46 62h75z" />
    <glyph glyph-name="Ccedilla" unicode="&#xc7;" horiz-adv-x="336" 
d="M202 -127l-100 38l62 93c-84 30 -140 134 -140 334v24c0 245 90 343 205 343c35 0 53 -4 80 -16v-126c-25 15 -45 23 -68 23c-53 0 -93 -47 -93 -223v-26c0 -184 39 -223 95 -223c21 0 43 7 68 22v-120c-23 -13 -44 -17 -69 -20z" />
    <glyph glyph-name="ccedilla" unicode="&#xe7;" horiz-adv-x="286" 
d="M171 -127l-100 38l60 90c-68 29 -108 113 -108 250v32c0 172 73 261 169 261c35 0 50 -3 74 -14v-121c-20 12 -38 20 -59 20c-37 0 -64 -39 -64 -144v-36c0 -104 27 -144 66 -144c17 0 38 10 58 23v-116c-21 -12 -37 -18 -58 -21z" />
    <glyph glyph-name="Cdotaccent" unicode="&#x10a;" horiz-adv-x="336" 
d="M221 -5c-112 0 -197 99 -197 343v24c0 245 90 343 205 343c35 0 53 -4 80 -16v-126c-25 15 -45 23 -68 23c-53 0 -93 -47 -93 -223v-26c0 -184 39 -223 95 -223c21 0 43 7 68 22v-120c-28 -16 -55 -21 -90 -21zM149 743v108h110v-108h-110z" />
    <glyph glyph-name="cdotaccent" unicode="&#x10b;" horiz-adv-x="286" 
d="M189 -10c-100 0 -166 88 -166 261v32c0 172 73 261 169 261c35 0 50 -3 74 -14v-121c-20 12 -38 20 -59 20c-37 0 -64 -39 -64 -144v-36c0 -104 27 -144 66 -144c17 0 38 10 58 23v-116c-27 -15 -47 -22 -78 -22zM121 583v108h108v-108h-108z" />
    <glyph glyph-name="Dcaron" unicode="&#x10e;" horiz-adv-x="419" 
d="M36 0v700h114c157 0 245 -111 245 -338v-24c0 -227 -88 -338 -245 -338h-114zM163 588h-5v-476h5c59 0 108 50 108 226v24c0 176 -49 226 -108 226zM326 854l-74 -119h-96l-74 119h82l41 -48l41 48h80z" />
    <glyph glyph-name="dcaron" unicode="&#x10f;" horiz-adv-x="384" 
d="M139 -10c-64 0 -114 61 -114 254v48c0 191 50 254 114 254c53 0 76 -43 94 -75v234h118v-705h-118v67c-16 -32 -43 -77 -94 -77zM187 103c31 0 47 51 47 147v36c0 96 -16 147 -47 147s-44 -51 -44 -147v-36c0 -96 13 -147 44 -147zM374 560l10 145h79v-2l-38 -143h-51z
" />
    <glyph glyph-name="Dcroat" unicode="&#x110;" horiz-adv-x="427" 
d="M8 309v86h36v305h114c157 0 245 -111 245 -338v-24c0 -227 -88 -338 -245 -338h-114v309h-36zM279 338v24c0 176 -49 226 -108 226h-5v-193h54v-86h-54v-197h5c59 0 108 50 108 226z" />
    <glyph glyph-name="dcroat" unicode="&#x111;" horiz-adv-x="384" 
d="M154 579v80h79v46h118v-46h33v-82h-33v-577h-118v67c-16 -32 -43 -77 -94 -77c-64 0 -114 61 -114 254v48c0 191 50 254 114 254c53 0 76 -43 94 -75v108h-79zM187 103c31 0 47 51 47 147v36c0 96 -16 147 -47 147s-44 -51 -44 -147v-36c0 -96 13 -147 44 -147z" />
    <glyph glyph-name="Eacute" unicode="&#xc9;" horiz-adv-x="330" 
d="M36 0v700h268v-116h-146v-174h129v-116h-129v-178h149v-116h-271zM121 735l86 127l101 -50l-99 -77h-88z" />
    <glyph glyph-name="eacute" unicode="&#xe9;" horiz-adv-x="350" 
d="M204 -10c-100 0 -184 91 -184 264v26c0 172 74 264 163 264c93 0 152 -92 152 -269v-62h-197c7 -84 42 -113 81 -113c36 0 59 15 94 39l9 -108c-41 -27 -73 -41 -118 -41zM137 306h87c0 89 -14 133 -41 133s-43 -37 -46 -133zM135 580l86 147l93 -49l-99 -98h-80z" />
    <glyph glyph-name="Ebreve" unicode="&#x114;" horiz-adv-x="330" 
d="M36 0v700h268v-116h-146v-174h129v-116h-129v-178h149v-116h-271zM172 729c-65 0 -114 35 -115 111h70c4 -26 19 -39 45 -39c24 0 41 12 45 39h70c-3 -76 -51 -111 -115 -111z" />
    <glyph glyph-name="ebreve" unicode="&#x115;" horiz-adv-x="350" 
d="M204 -10c-100 0 -184 91 -184 264v26c0 172 74 264 163 264c93 0 152 -92 152 -269v-62h-197c7 -84 42 -113 81 -113c36 0 59 15 94 39l9 -108c-41 -27 -73 -41 -118 -41zM137 306h87c0 89 -14 133 -41 133s-43 -37 -46 -133zM182 574c-63 0 -113 36 -118 119h70
c4 -28 19 -47 48 -47s44 19 48 47h70c-5 -83 -55 -119 -118 -119z" />
    <glyph glyph-name="Ecaron" unicode="&#x11a;" horiz-adv-x="330" 
d="M36 0v700h268v-116h-146v-174h129v-116h-129v-178h149v-116h-271zM294 854l-74 -119h-96l-74 119h82l41 -48l41 48h80z" />
    <glyph glyph-name="ecaron" unicode="&#x11b;" horiz-adv-x="350" 
d="M204 -10c-100 0 -184 91 -184 264v26c0 172 74 264 163 264c93 0 152 -92 152 -269v-62h-197c7 -84 42 -113 81 -113c36 0 59 15 94 39l9 -108c-41 -27 -73 -41 -118 -41zM137 306h87c0 89 -14 133 -41 133s-43 -37 -46 -133zM304 719l-78 -139h-88l-78 139h77l46 -62
l46 62h75z" />
    <glyph glyph-name="Ecircumflex" unicode="&#xca;" horiz-adv-x="330" 
d="M36 0v700h268v-116h-146v-174h129v-116h-129v-178h149v-116h-271zM50 735l74 119h96l74 -119h-82l-41 48l-41 -48h-80z" />
    <glyph glyph-name="ecircumflex" unicode="&#xea;" horiz-adv-x="350" 
d="M204 -10c-100 0 -184 91 -184 264v26c0 172 74 264 163 264c93 0 152 -92 152 -269v-62h-197c7 -84 42 -113 81 -113c36 0 59 15 94 39l9 -108c-41 -27 -73 -41 -118 -41zM137 306h87c0 89 -14 133 -41 133s-43 -37 -46 -133zM60 580l78 139h88l78 -139h-77l-46 62
l-46 -62h-75z" />
    <glyph glyph-name="Edieresis" unicode="&#xcb;" horiz-adv-x="330" 
d="M36 0v700h268v-116h-146v-174h129v-116h-129v-178h149v-116h-271zM193 738v108h108v-108h-108zM43 738v108h108v-108h-108z" />
    <glyph glyph-name="edieresis" unicode="&#xeb;" horiz-adv-x="350" 
d="M204 -10c-100 0 -184 91 -184 264v26c0 172 74 264 163 264c93 0 152 -92 152 -269v-62h-197c7 -84 42 -113 81 -113c36 0 59 15 94 39l9 -108c-41 -27 -73 -41 -118 -41zM137 306h87c0 89 -14 133 -41 133s-43 -37 -46 -133zM200 583v108h106v-108h-106zM58 583v108h106
v-108h-106z" />
    <glyph glyph-name="Edotaccent" unicode="&#x116;" horiz-adv-x="330" 
d="M36 0v700h268v-116h-146v-174h129v-116h-129v-178h149v-116h-271zM117 738v108h110v-108h-110z" />
    <glyph glyph-name="edotaccent" unicode="&#x117;" horiz-adv-x="350" 
d="M204 -10c-100 0 -184 91 -184 264v26c0 172 74 264 163 264c93 0 152 -92 152 -269v-62h-197c7 -84 42 -113 81 -113c36 0 59 15 94 39l9 -108c-41 -27 -73 -41 -118 -41zM137 306h87c0 89 -14 133 -41 133s-43 -37 -46 -133zM128 583v108h108v-108h-108z" />
    <glyph glyph-name="Egrave" unicode="&#xc8;" horiz-adv-x="330" 
d="M36 0v700h268v-116h-146v-174h129v-116h-129v-178h149v-116h-271zM223 735h-88l-99 77l101 50z" />
    <glyph glyph-name="egrave" unicode="&#xe8;" horiz-adv-x="350" 
d="M204 -10c-100 0 -184 91 -184 264v26c0 172 74 264 163 264c93 0 152 -92 152 -269v-62h-197c7 -84 42 -113 81 -113c36 0 59 15 94 39l9 -108c-41 -27 -73 -41 -118 -41zM137 306h87c0 89 -14 133 -41 133s-43 -37 -46 -133zM149 580l-99 98l93 49l86 -147h-80z" />
    <glyph glyph-name="Emacron" unicode="&#x112;" horiz-adv-x="330" 
d="M36 0v700h268v-116h-146v-174h129v-116h-129v-178h149v-116h-271zM51 738v79h242v-79h-242z" />
    <glyph glyph-name="emacron" unicode="&#x113;" horiz-adv-x="350" 
d="M204 -10c-100 0 -184 91 -184 264v26c0 172 74 264 163 264c93 0 152 -92 152 -269v-62h-197c7 -84 42 -113 81 -113c36 0 59 15 94 39l9 -108c-41 -27 -73 -41 -118 -41zM137 306h87c0 89 -14 133 -41 133s-43 -37 -46 -133zM66 583v78h232v-78h-232z" />
    <glyph glyph-name="Eogonek" unicode="&#x118;" horiz-adv-x="330" 
d="M36 0v700h268v-116h-146v-174h129v-116h-129v-178h149v-116h-19c-16 -21 -21 -36 -21 -51c0 -23 14 -31 41 -28v-68c-15 -3 -29 -4 -41 -4c-63 0 -97 24 -97 71c0 33 13 56 36 80h-170z" />
    <glyph glyph-name="eogonek" unicode="&#x119;" horiz-adv-x="350" 
d="M137 306h87c0 89 -14 133 -41 133s-43 -37 -46 -133zM313 139l9 -106v-1c-39 -40 -49 -66 -49 -83c0 -23 14 -31 41 -28v-68c-15 -3 -29 -4 -41 -4c-63 0 -97 24 -97 71c0 29 10 49 29 72h-1c-100 0 -184 89 -184 262v26c0 172 74 264 163 264c93 0 152 -92 152 -269v-62
h-197c7 -84 42 -113 81 -113c36 0 59 15 94 39z" />
    <glyph glyph-name="Gbreve" unicode="&#x11e;" horiz-adv-x="405" 
d="M247 -10c-123 0 -223 100 -223 348v24c0 230 95 348 234 348c37 0 68 -8 93 -20v-127c-31 19 -57 30 -89 30c-71 0 -114 -70 -114 -226v-34c0 -188 53 -230 104 -230c4 0 4 0 11 1v184h-60v109h171v-377c-44 -19 -80 -30 -127 -30zM234 734c-65 0 -114 35 -115 111h70
c4 -26 19 -39 45 -39c24 0 41 12 45 39h70c-3 -76 -51 -111 -115 -111z" />
    <glyph glyph-name="gbreve" unicode="&#x11f;" horiz-adv-x="384" 
d="M163 -132c-51 0 -77 6 -116 17v109c33 -12 76 -22 100 -22c53 0 86 21 86 84v53c-17 -33 -44 -77 -95 -77c-64 0 -113 65 -113 254v6c0 191 49 254 113 254c52 0 76 -42 95 -75v65h118v-489c0 -60 -15 -102 -46 -133c-32 -32 -81 -46 -142 -46zM187 145
c28 0 47 47 47 143v2c0 96 -19 143 -47 143c-29 0 -44 -48 -44 -143v-2c0 -95 15 -143 44 -143zM201 574c-63 0 -113 36 -118 119h70c4 -28 19 -47 48 -47s44 19 48 47h70c-5 -83 -55 -119 -118 -119z" />
    <glyph glyph-name="Gcommaaccent" unicode="&#x122;" horiz-adv-x="405" 
d="M247 -10c-123 0 -223 100 -223 348v24c0 230 95 348 234 348c37 0 68 -8 93 -20v-127c-31 19 -57 30 -89 30c-71 0 -114 -70 -114 -226v-34c0 -188 53 -230 104 -230c4 0 4 0 11 1v184h-60v109h171v-377c-44 -19 -80 -30 -127 -30zM180 -229l-5 40c43 7 55 18 54 53h-48
v90h106v-81c0 -71 -38 -97 -107 -102z" />
    <glyph glyph-name="gcommaaccent" unicode="&#x123;" horiz-adv-x="384" 
d="M163 -132c-51 0 -77 6 -116 17v109c33 -12 76 -22 100 -22c53 0 86 21 86 84v53c-17 -33 -44 -77 -95 -77c-64 0 -113 65 -113 254v6c0 191 49 254 113 254c52 0 76 -42 95 -75v65h118v-489c0 -60 -15 -102 -46 -133c-32 -32 -81 -46 -142 -46zM187 145
c28 0 47 47 47 143v2c0 96 -19 143 -47 143c-29 0 -44 -48 -44 -143v-2c0 -95 15 -143 44 -143zM254 766l5 -40c-43 -7 -55 -18 -54 -53h48v-90h-106v81c0 71 38 97 107 102z" />
    <glyph glyph-name="Gdotaccent" unicode="&#x120;" horiz-adv-x="405" 
d="M247 -10c-123 0 -223 100 -223 348v24c0 230 95 348 234 348c37 0 68 -8 93 -20v-127c-31 19 -57 30 -89 30c-71 0 -114 -70 -114 -226v-34c0 -188 53 -230 104 -230c4 0 4 0 11 1v184h-60v109h171v-377c-44 -19 -80 -30 -127 -30zM179 743v108h110v-108h-110z" />
    <glyph glyph-name="gdotaccent" unicode="&#x121;" horiz-adv-x="384" 
d="M163 -132c-51 0 -77 6 -116 17v109c33 -12 76 -22 100 -22c53 0 86 21 86 84v53c-17 -33 -44 -77 -95 -77c-64 0 -113 65 -113 254v6c0 191 49 254 113 254c52 0 76 -42 95 -75v65h118v-489c0 -60 -15 -102 -46 -133c-32 -32 -81 -46 -142 -46zM187 145
c28 0 47 47 47 143v2c0 96 -19 143 -47 143c-29 0 -44 -48 -44 -143v-2c0 -95 15 -143 44 -143zM147 583v108h108v-108h-108z" />
    <glyph glyph-name="Hbar" unicode="&#x126;" horiz-adv-x="438" 
d="M8 517v104h36v79h122v-81h106v81h122v-79h36v-104h-36v-517h-122v294h-106v-294h-122v517h-36zM166 410h106v109h-106v-109z" />
    <glyph glyph-name="hbar" unicode="&#x127;" horiz-adv-x="379" 
d="M230 579h-79v-107c21 41 48 74 95 74c68 0 103 -57 103 -140v-406h-118v379c0 39 -15 61 -39 61s-41 -22 -41 -61v-379h-118v577h-33v82h33v46h118v-46h79v-80z" />
    <glyph glyph-name="Iacute" unicode="&#xcd;" horiz-adv-x="198" 
d="M38 0v700h122v-700h-122zM49 735l86 127l101 -50l-99 -77h-88z" />
    <glyph glyph-name="iacute" unicode="&#xed;" horiz-adv-x="186" 
d="M34 0v536h118v-536h-118zM47 575l86 147l93 -49l-99 -98h-80z" />
    <glyph glyph-name="Ibreve" unicode="&#x12c;" horiz-adv-x="198" 
d="M38 0v700h122v-700h-122zM100 729c-65 0 -114 35 -115 111h70c4 -26 19 -39 45 -39c24 0 41 12 45 39h70c-3 -76 -51 -111 -115 -111z" />
    <glyph glyph-name="ibreve" unicode="&#x12d;" horiz-adv-x="186" 
d="M34 0v536h118v-536h-118zM94 569c-63 0 -113 36 -118 119h70c4 -28 19 -47 48 -47s44 19 48 47h70c-5 -83 -55 -119 -118 -119z" />
    <glyph glyph-name="Icircumflex" unicode="&#xce;" horiz-adv-x="198" 
d="M38 0v700h122v-700h-122zM-22 735l74 119h96l74 -119h-82l-41 48l-41 -48h-80z" />
    <glyph glyph-name="icircumflex" unicode="&#xee;" horiz-adv-x="186" 
d="M34 0v536h118v-536h-118zM-28 575l78 139h88l78 -139h-77l-46 62l-46 -62h-75z" />
    <glyph glyph-name="Idieresis" unicode="&#xcf;" horiz-adv-x="198" 
d="M38 0v700h122v-700h-122zM121 738v108h108v-108h-108zM-29 738v108h108v-108h-108z" />
    <glyph glyph-name="idieresis" unicode="&#xef;" horiz-adv-x="186" 
d="M34 0v536h118v-536h-118zM112 578v108h106v-108h-106zM-30 578v108h106v-108h-106z" />
    <glyph glyph-name="Idotaccent" unicode="&#x130;" horiz-adv-x="198" 
d="M38 0v700h122v-700h-122zM45 738v108h110v-108h-110z" />
    <glyph glyph-name="i.dot" horiz-adv-x="186" 
d="M33 587v118h120v-118h-120zM34 0v536h118v-536h-118z" />
    <glyph glyph-name="dotlessi" unicode="&#x131;" horiz-adv-x="186" 
d="M34 0v536h118v-536h-118z" />
    <glyph glyph-name="Igrave" unicode="&#xcc;" horiz-adv-x="198" 
d="M38 0v700h122v-700h-122zM151 735h-88l-99 77l101 50z" />
    <glyph glyph-name="igrave" unicode="&#xec;" horiz-adv-x="186" 
d="M34 0v536h118v-536h-118zM61 575l-99 98l93 49l86 -147h-80z" />
    <glyph glyph-name="Imacron" unicode="&#x12a;" horiz-adv-x="198" 
d="M38 0v700h122v-700h-122zM-21 738v79h242v-79h-242z" />
    <glyph glyph-name="imacron" unicode="&#x12b;" horiz-adv-x="186" 
d="M34 0v536h118v-536h-118zM-22 578v78h232v-78h-232z" />
    <glyph glyph-name="Iogonek" unicode="&#x12e;" horiz-adv-x="198" 
d="M38 0v700h122v-700h-17c-16 -21 -21 -36 -21 -51c0 -23 14 -31 41 -28v-68c-15 -3 -29 -4 -41 -4c-63 0 -97 24 -97 71c0 33 13 56 36 80h-23z" />
    <glyph glyph-name="iogonek" unicode="&#x12f;" horiz-adv-x="186" 
d="M34 0v536h118v-536h-15c-16 -21 -21 -36 -21 -51c0 -23 14 -31 41 -28v-68c-15 -3 -29 -4 -41 -4c-63 0 -97 24 -97 71c0 33 13 56 36 80h-21zM33 587v118h120v-118h-120z" />
    <glyph glyph-name="Kcommaaccent" unicode="&#x136;" horiz-adv-x="403" 
d="M36 0v700h122v-300l101 300h134l-117 -296l119 -404h-132l-77 268l-28 -78v-190h-122zM152 -220l-5 40c43 7 55 18 54 53h-48v90h106v-81c0 -71 -38 -97 -107 -102z" />
    <glyph glyph-name="kcommaaccent" unicode="&#x137;" horiz-adv-x="357" 
d="M33 0v705h118v-379l77 210h126l-92 -217l88 -319h-129l-48 206l-22 -59v-147h-118zM130 -220l-5 40c43 7 55 18 54 53h-48v90h106v-81c0 -71 -38 -97 -107 -102z" />
    <glyph glyph-name="Lacute" unicode="&#x139;" horiz-adv-x="300" 
d="M36 0v700h122v-584h129v-116h-251zM63 734l86 127l101 -50l-99 -77h-88z" />
    <glyph glyph-name="lacute" unicode="&#x13a;" horiz-adv-x="186" 
d="M34 0v705h118v-705h-118zM53 735l86 127l101 -50l-99 -77h-88z" />
    <glyph glyph-name="Lcaron" unicode="&#x13d;" horiz-adv-x="300" 
d="M36 0v700h122v-584h129v-116h-251zM181 556l10 145h79v-2l-38 -143h-51z" />
    <glyph glyph-name="lcaron" unicode="&#x13e;" horiz-adv-x="186" 
d="M34 0v705h118v-705h-118zM175 560l10 145h79v-2l-38 -143h-51z" />
    <glyph glyph-name="Lcommaaccent" unicode="&#x13b;" horiz-adv-x="300" 
d="M36 0v700h122v-584h129v-116h-251zM108 -225l-5 40c43 7 55 18 54 53h-48v90h106v-81c0 -71 -38 -97 -107 -102z" />
    <glyph glyph-name="lcommaaccent" unicode="&#x13c;" horiz-adv-x="186" 
d="M34 0v705h118v-705h-118zM40 -225l-5 40c43 7 55 18 54 53h-48v90h106v-81c0 -71 -38 -97 -107 -102z" />
    <glyph glyph-name="Ldot" unicode="&#x13f;" horiz-adv-x="300" 
d="M199 307v108h98v-108h-98zM36 0v700h122v-584h129v-116h-251z" />
    <glyph glyph-name="ldot" unicode="&#x140;" horiz-adv-x="274" 
d="M186 304v108h88v-108h-88zM34 0v705h118v-705h-118z" />
    <glyph glyph-name="Lslash" unicode="&#x141;" horiz-adv-x="308" 
d="M236 370l-70 -40v-214h129v-116h-251v259l-36 -21v118l36 20v324h122v-253l70 41v-118z" />
    <glyph glyph-name="lslash" unicode="&#x142;" horiz-adv-x="222" 
d="M216 367l-46 -28v-339h-118v268l-46 -28v114l46 27v324h118v-252l46 28v-114z" />
    <glyph glyph-name="Nacute" unicode="&#x143;" horiz-adv-x="428" 
d="M36 0v700h113l126 -362v362h117v-700h-107l-132 379v-379h-117zM163 731l86 127l101 -50l-99 -77h-88z" />
    <glyph glyph-name="nacute" unicode="&#x144;" horiz-adv-x="379" 
d="M33 0v536h118v-64c21 41 48 74 95 74c68 0 103 -57 103 -140v-406h-118v379c0 39 -15 61 -39 61s-41 -22 -41 -61v-379h-118zM145 580l86 147l93 -49l-99 -98h-80z" />
    <glyph glyph-name="Ncaron" unicode="&#x147;" horiz-adv-x="428" 
d="M36 0v700h113l126 -362v362h117v-700h-107l-132 379v-379h-117zM337 850l-74 -119h-96l-74 119h82l41 -48l41 48h80z" />
    <glyph glyph-name="ncaron" unicode="&#x148;" horiz-adv-x="379" 
d="M33 0v536h118v-64c21 41 48 74 95 74c68 0 103 -57 103 -140v-406h-118v379c0 39 -15 61 -39 61s-41 -22 -41 -61v-379h-118zM314 719l-78 -139h-88l-78 139h77l46 -62l46 62h75z" />
    <glyph glyph-name="Ncommaaccent" unicode="&#x145;" horiz-adv-x="428" 
d="M36 0v700h113l126 -362v362h117v-700h-107l-132 379v-379h-117zM161 -220l-5 40c43 7 55 18 54 53h-48v90h106v-81c0 -71 -38 -97 -107 -102z" />
    <glyph glyph-name="ncommaaccent" unicode="&#x146;" horiz-adv-x="379" 
d="M33 0v536h118v-64c21 41 48 74 95 74c68 0 103 -57 103 -140v-406h-118v379c0 39 -15 61 -39 61s-41 -22 -41 -61v-379h-118zM138 -220l-5 40c43 7 55 18 54 53h-48v90h106v-81c0 -71 -38 -97 -107 -102z" />
    <glyph glyph-name="Ntilde" unicode="&#xd1;" horiz-adv-x="428" 
d="M36 0v700h113l126 -362v362h117v-700h-107l-132 379v-379h-117zM278 730c-21 0 -43 10 -62 19c-17 8 -32 16 -43 16c-13 0 -18 -8 -26 -39l-69 17c13 80 34 109 74 109c23 0 46 -10 66 -21c16 -7 28 -14 39 -14c13 0 18 8 26 39l69 -17c-13 -80 -34 -109 -74 -109z" />
    <glyph glyph-name="ntilde" unicode="&#xf1;" horiz-adv-x="379" 
d="M33 0v536h118v-64c21 41 48 74 95 74c68 0 103 -57 103 -140v-406h-118v379c0 39 -15 61 -39 61s-41 -22 -41 -61v-379h-118zM258 579c-20 0 -43 11 -63 20c-17 8 -31 15 -42 15c-15 0 -20 -8 -28 -39l-65 16c13 79 33 106 72 106c20 0 43 -11 63 -20
c17 -8 31 -15 42 -15c15 0 20 8 28 39l65 -16c-13 -79 -33 -106 -72 -106z" />
    <glyph glyph-name="Oacute" unicode="&#xd3;" horiz-adv-x="420" 
d="M210 -10c-111 0 -186 111 -186 342v36c0 231 75 342 186 342s186 -111 186 -342v-36c0 -231 -75 -342 -186 -342zM210 102c37 0 62 50 62 230v36c0 180 -25 230 -62 230s-62 -50 -62 -230v-36c0 -180 25 -230 62 -230zM159 740l86 127l101 -50l-99 -77h-88z" />
    <glyph glyph-name="oacute" unicode="&#xf3;" horiz-adv-x="378" 
d="M189 -10c-96 0 -166 89 -166 261v32c0 172 70 261 166 261s166 -89 166 -261v-32c0 -172 -70 -261 -166 -261zM189 95c31 0 48 50 48 154v36c0 107 -17 154 -48 154s-48 -47 -48 -154v-36c0 -104 17 -154 48 -154zM143 580l86 147l93 -49l-99 -98h-80z" />
    <glyph glyph-name="Obreve" unicode="&#x14e;" horiz-adv-x="420" 
d="M210 -10c-111 0 -186 111 -186 342v36c0 231 75 342 186 342s186 -111 186 -342v-36c0 -231 -75 -342 -186 -342zM210 102c37 0 62 50 62 230v36c0 180 -25 230 -62 230s-62 -50 -62 -230v-36c0 -180 25 -230 62 -230zM211 734c-65 0 -114 35 -115 111h70
c4 -26 19 -39 45 -39c24 0 41 12 45 39h70c-3 -76 -51 -111 -115 -111z" />
    <glyph glyph-name="obreve" unicode="&#x14f;" horiz-adv-x="378" 
d="M189 -10c-96 0 -166 89 -166 261v32c0 172 70 261 166 261s166 -89 166 -261v-32c0 -172 -70 -261 -166 -261zM189 95c31 0 48 50 48 154v36c0 107 -17 154 -48 154s-48 -47 -48 -154v-36c0 -104 17 -154 48 -154zM190 574c-63 0 -113 36 -118 119h70
c4 -28 19 -47 48 -47s44 19 48 47h70c-5 -83 -55 -119 -118 -119z" />
    <glyph glyph-name="Ocircumflex" unicode="&#xd4;" horiz-adv-x="420" 
d="M210 -10c-111 0 -186 111 -186 342v36c0 231 75 342 186 342s186 -111 186 -342v-36c0 -231 -75 -342 -186 -342zM210 102c37 0 62 50 62 230v36c0 180 -25 230 -62 230s-62 -50 -62 -230v-36c0 -180 25 -230 62 -230zM89 740l74 119h96l74 -119h-82l-41 48l-41 -48h-80z
" />
    <glyph glyph-name="ocircumflex" unicode="&#xf4;" horiz-adv-x="378" 
d="M189 -10c-96 0 -166 89 -166 261v32c0 172 70 261 166 261s166 -89 166 -261v-32c0 -172 -70 -261 -166 -261zM189 95c31 0 48 50 48 154v36c0 107 -17 154 -48 154s-48 -47 -48 -154v-36c0 -104 17 -154 48 -154zM68 580l78 139h88l78 -139h-77l-46 62l-46 -62h-75z" />
    <glyph glyph-name="Odieresis" unicode="&#xd6;" horiz-adv-x="420" 
d="M210 -10c-111 0 -186 111 -186 342v36c0 231 75 342 186 342s186 -111 186 -342v-36c0 -231 -75 -342 -186 -342zM210 102c37 0 62 50 62 230v36c0 180 -25 230 -62 230s-62 -50 -62 -230v-36c0 -180 25 -230 62 -230zM232 743v108h108v-108h-108zM82 743v108h108v-108
h-108z" />
    <glyph glyph-name="odieresis" unicode="&#xf6;" horiz-adv-x="378" 
d="M189 -10c-96 0 -166 89 -166 261v32c0 172 70 261 166 261s166 -89 166 -261v-32c0 -172 -70 -261 -166 -261zM189 95c31 0 48 50 48 154v36c0 107 -17 154 -48 154s-48 -47 -48 -154v-36c0 -104 17 -154 48 -154zM208 583v108h106v-108h-106zM66 583v108h106v-108h-106z
" />
    <glyph glyph-name="Ograve" unicode="&#xd2;" horiz-adv-x="420" 
d="M210 -10c-111 0 -186 111 -186 342v36c0 231 75 342 186 342s186 -111 186 -342v-36c0 -231 -75 -342 -186 -342zM210 102c37 0 62 50 62 230v36c0 180 -25 230 -62 230s-62 -50 -62 -230v-36c0 -180 25 -230 62 -230zM262 740h-88l-99 77l101 50z" />
    <glyph glyph-name="ograve" unicode="&#xf2;" horiz-adv-x="378" 
d="M189 -10c-96 0 -166 89 -166 261v32c0 172 70 261 166 261s166 -89 166 -261v-32c0 -172 -70 -261 -166 -261zM189 95c31 0 48 50 48 154v36c0 107 -17 154 -48 154s-48 -47 -48 -154v-36c0 -104 17 -154 48 -154zM157 580l-99 98l93 49l86 -147h-80z" />
    <glyph glyph-name="Ohungarumlaut" unicode="&#x150;" horiz-adv-x="420" 
d="M210 -10c-111 0 -186 111 -186 342v36c0 231 75 342 186 342s186 -111 186 -342v-36c0 -231 -75 -342 -186 -342zM210 102c37 0 62 50 62 230v36c0 180 -25 230 -62 230s-62 -50 -62 -230v-36c0 -180 25 -230 62 -230zM222 740l44 64l-80 -64h-82l86 127l86 -48l32 48
l91 -50l-95 -77h-82z" />
    <glyph glyph-name="ohungarumlaut" unicode="&#x151;" horiz-adv-x="378" 
d="M189 -10c-96 0 -166 89 -166 261v32c0 172 70 261 166 261s166 -89 166 -261v-32c0 -172 -70 -261 -166 -261zM189 95c31 0 48 50 48 154v36c0 107 -17 154 -48 154s-48 -47 -48 -154v-36c0 -104 17 -154 48 -154zM89 580l86 147l83 -47l28 47l85 -48l-96 -99h-75l55 93
l-91 -93h-75z" />
    <glyph glyph-name="Omacron" unicode="&#x14c;" horiz-adv-x="420" 
d="M210 -10c-111 0 -186 111 -186 342v36c0 231 75 342 186 342s186 -111 186 -342v-36c0 -231 -75 -342 -186 -342zM210 102c37 0 62 50 62 230v36c0 180 -25 230 -62 230s-62 -50 -62 -230v-36c0 -180 25 -230 62 -230zM90 743v79h242v-79h-242z" />
    <glyph glyph-name="omacron" unicode="&#x14d;" horiz-adv-x="378" 
d="M189 -10c-96 0 -166 89 -166 261v32c0 172 70 261 166 261s166 -89 166 -261v-32c0 -172 -70 -261 -166 -261zM189 95c31 0 48 50 48 154v36c0 107 -17 154 -48 154s-48 -47 -48 -154v-36c0 -104 17 -154 48 -154zM74 583v78h232v-78h-232z" />
    <glyph glyph-name="Oslash" unicode="&#xd8;" horiz-adv-x="420" 
d="M321 705h69l-39 -92c29 -57 45 -137 45 -245v-36c0 -231 -75 -342 -186 -342c-38 0 -71 12 -98 37l-13 -32h-69l38 92c-28 56 -44 137 -44 245v36c0 231 75 342 186 342c37 0 70 -13 97 -38zM146 368v-36c0 -21 0 -38 1 -57l111 268c-11 43 -28 57 -48 57
c-38 0 -64 -52 -64 -232zM210 100c38 0 64 52 64 232v36c0 20 -1 39 -1 56l-112 -268c12 -41 28 -56 49 -56z" />
    <glyph glyph-name="oslash" unicode="&#xf8;" horiz-adv-x="378" 
d="M295 542h69l-44 -84c23 -43 35 -102 35 -175v-32c0 -172 -70 -261 -166 -261c-35 0 -65 11 -90 33l-16 -31h-69l44 84c-23 43 -35 100 -35 175v32c0 172 70 261 166 261c34 0 64 -11 90 -33zM134 249v-26l94 181c-9 25 -22 37 -39 37c-33 0 -55 -49 -55 -156v-36zM189 93
c33 0 55 52 55 156v36c0 9 0 17 -1 25l-94 -180c10 -25 23 -37 40 -37z" />
    <glyph glyph-name="Oslashacute" unicode="&#x1fe;" horiz-adv-x="420" 
d="M321 705h69l-39 -92c29 -57 45 -137 45 -245v-36c0 -231 -75 -342 -186 -342c-38 0 -71 12 -98 37l-13 -32h-69l38 92c-28 56 -44 137 -44 245v36c0 231 75 342 186 342c37 0 70 -13 97 -38zM146 368v-36c0 -21 0 -38 1 -57l111 268c-11 43 -28 57 -48 57
c-38 0 -64 -52 -64 -232zM210 100c38 0 64 52 64 232v36c0 20 -1 39 -1 56l-112 -268c12 -41 28 -56 49 -56zM159 740l86 127l101 -50l-99 -77h-88z" />
    <glyph glyph-name="oslashacute" unicode="&#x1ff;" horiz-adv-x="378" 
d="M295 542h69l-44 -84c23 -43 35 -102 35 -175v-32c0 -172 -70 -261 -166 -261c-35 0 -65 11 -90 33l-16 -31h-69l44 84c-23 43 -35 100 -35 175v32c0 172 70 261 166 261c34 0 64 -11 90 -33zM134 249v-26l94 181c-9 25 -22 37 -39 37c-33 0 -55 -49 -55 -156v-36zM189 93
c33 0 55 52 55 156v36c0 9 0 17 -1 25l-94 -180c10 -25 23 -37 40 -37zM143 580l86 147l93 -49l-99 -98h-80z" />
    <glyph glyph-name="Otilde" unicode="&#xd5;" horiz-adv-x="420" 
d="M210 -10c-111 0 -186 111 -186 342v36c0 231 75 342 186 342s186 -111 186 -342v-36c0 -231 -75 -342 -186 -342zM210 102c37 0 62 50 62 230v36c0 180 -25 230 -62 230s-62 -50 -62 -230v-36c0 -180 25 -230 62 -230zM274 739c-21 0 -43 10 -62 19c-17 8 -32 16 -43 16
c-13 0 -18 -8 -26 -39l-69 17c13 80 34 109 74 109c23 0 46 -10 66 -21c16 -7 28 -14 39 -14c13 0 18 8 26 39l69 -17c-13 -80 -34 -109 -74 -109z" />
    <glyph glyph-name="otilde" unicode="&#xf5;" horiz-adv-x="378" 
d="M189 -10c-96 0 -166 89 -166 261v32c0 172 70 261 166 261s166 -89 166 -261v-32c0 -172 -70 -261 -166 -261zM189 95c31 0 48 50 48 154v36c0 107 -17 154 -48 154s-48 -47 -48 -154v-36c0 -104 17 -154 48 -154zM256 579c-20 0 -43 11 -63 20c-17 8 -31 15 -42 15
c-15 0 -20 -8 -28 -39l-65 16c13 79 33 106 72 106c20 0 43 -11 63 -20c17 -8 31 -15 42 -15c15 0 20 8 28 39l65 -16c-13 -79 -33 -106 -72 -106z" />
    <glyph glyph-name="Racute" unicode="&#x154;" horiz-adv-x="398" 
d="M36 0v700h126c65 0 119 -17 158 -56c37 -37 58 -91 58 -167v-9c0 -92 -35 -149 -82 -184l94 -284h-130l-79 244h-23v-244h-122zM158 354h6c53 0 92 30 92 113v8c0 88 -42 111 -95 111h-3v-232zM143 735l86 127l101 -50l-99 -77h-88z" />
    <glyph glyph-name="racute" unicode="&#x155;" horiz-adv-x="250" 
d="M33 0v536h118v-67c16 47 41 76 86 73v-142h-2c-56 0 -84 -38 -84 -114v-286h-118zM83 575l86 147l93 -49l-99 -98h-80z" />
    <glyph glyph-name="Rcaron" unicode="&#x158;" horiz-adv-x="398" 
d="M36 0v700h126c65 0 119 -17 158 -56c37 -37 58 -91 58 -167v-9c0 -92 -35 -149 -82 -184l94 -284h-130l-79 244h-23v-244h-122zM158 354h6c53 0 92 30 92 113v8c0 88 -42 111 -95 111h-3v-232zM316 854l-74 -119h-96l-74 119h82l41 -48l41 48h80z" />
    <glyph glyph-name="rcaron" unicode="&#x159;" horiz-adv-x="250" 
d="M33 0v536h118v-67c16 47 41 76 86 73v-142h-2c-56 0 -84 -38 -84 -114v-286h-118zM252 714l-78 -139h-88l-78 139h77l46 -62l46 62h75z" />
    <glyph glyph-name="Rcommaaccent" unicode="&#x156;" horiz-adv-x="398" 
d="M36 0v700h126c65 0 119 -17 158 -56c37 -37 58 -91 58 -167v-9c0 -92 -35 -149 -82 -184l94 -284h-130l-79 244h-23v-244h-122zM158 354h6c53 0 92 30 92 113v8c0 88 -42 111 -95 111h-3v-232zM140 -220l-5 40c43 7 55 18 54 53h-48v90h106v-81c0 -71 -38 -97 -107 -102z
" />
    <glyph glyph-name="rcommaaccent" unicode="&#x157;" horiz-adv-x="250" 
d="M33 0v536h118v-67c16 47 41 76 86 73v-142h-2c-56 0 -84 -38 -84 -114v-286h-118zM45 -225l-5 40c43 7 55 18 54 53h-48v90h106v-81c0 -71 -38 -97 -107 -102z" />
    <glyph glyph-name="Sacute" unicode="&#x15a;" horiz-adv-x="325" 
d="M145 -5c-48 0 -89 12 -124 29v125c43 -25 71 -39 108 -39c39 0 67 22 67 69v1c0 22 -8 54 -67 119c-85 93 -118 143 -118 224v1c0 110 73 181 173 181c47 0 78 -10 105 -22v-125c-39 23 -61 32 -93 32c-35 0 -63 -22 -63 -63v-1c0 -27 10 -49 68 -115
c96 -112 117 -157 117 -233v-1c0 -109 -77 -182 -173 -182zM118 740l86 127l101 -50l-99 -77h-88z" />
    <glyph glyph-name="sacute" unicode="&#x15b;" horiz-adv-x="284" 
d="M126 -10c-35 0 -74 10 -109 25v116c40 -21 74 -35 101 -35c29 0 44 14 44 43v1c0 19 -8 39 -60 88c-55 53 -91 101 -91 169v2c0 89 60 145 152 145c33 0 57 -3 88 -14v-116c-25 13 -53 24 -81 24c-29 0 -45 -14 -45 -37v-1c0 -19 9 -35 64 -88c66 -63 87 -107 87 -168v-2
c0 -93 -65 -152 -150 -152zM99 580l86 147l93 -49l-99 -98h-80z" />
    <glyph glyph-name="Scaron" unicode="&#x160;" horiz-adv-x="325" 
d="M145 -5c-48 0 -89 12 -124 29v125c43 -25 71 -39 108 -39c39 0 67 22 67 69v1c0 22 -8 54 -67 119c-85 93 -118 143 -118 224v1c0 110 73 181 173 181c47 0 78 -10 105 -22v-125c-39 23 -61 32 -93 32c-35 0 -63 -22 -63 -63v-1c0 -27 10 -49 68 -115
c96 -112 117 -157 117 -233v-1c0 -109 -77 -182 -173 -182zM291 859l-74 -119h-96l-74 119h82l41 -48l41 48h80z" />
    <glyph glyph-name="scaron" unicode="&#x161;" horiz-adv-x="284" 
d="M126 -10c-35 0 -74 10 -109 25v116c40 -21 74 -35 101 -35c29 0 44 14 44 43v1c0 19 -8 39 -60 88c-55 53 -91 101 -91 169v2c0 89 60 145 152 145c33 0 57 -3 88 -14v-116c-25 13 -53 24 -81 24c-29 0 -45 -14 -45 -37v-1c0 -19 9 -35 64 -88c66 -63 87 -107 87 -168v-2
c0 -93 -65 -152 -150 -152zM268 719l-78 -139h-88l-78 139h77l46 -62l46 62h75z" />
    <glyph glyph-name="Scedilla" unicode="&#x15e;" horiz-adv-x="325" 
d="M162 -127l-100 38l57 85c-36 4 -69 13 -98 28v125c43 -25 71 -39 108 -39c39 0 67 22 67 69v1c0 22 -8 54 -67 119c-85 93 -118 143 -118 224v1c0 110 73 181 173 181c47 0 78 -10 105 -22v-125c-39 23 -61 32 -93 32c-35 0 -63 -22 -63 -63v-1c0 -27 10 -49 68 -115
c96 -112 117 -157 117 -233v-1c0 -85 -46 -149 -113 -172z" />
    <glyph glyph-name="scedilla" unicode="&#x15f;" horiz-adv-x="284" 
d="M140 -127l-100 38l54 82c-27 4 -53 11 -77 22v116c40 -21 74 -35 101 -35c29 0 44 14 44 43v1c0 19 -8 39 -60 88c-55 53 -91 101 -91 169v2c0 89 60 145 152 145c33 0 57 -3 88 -14v-116c-25 13 -53 24 -81 24c-29 0 -45 -14 -45 -37v-1c0 -19 9 -35 64 -88
c66 -63 87 -107 87 -168v-2c0 -72 -39 -123 -95 -143z" />
    <glyph glyph-name="Scommaaccent" unicode="&#x218;" horiz-adv-x="325" 
d="M145 -5c-48 0 -89 12 -124 29v125c43 -25 71 -39 108 -39c39 0 67 22 67 69v1c0 22 -8 54 -67 119c-85 93 -118 143 -118 224v1c0 110 73 181 173 181c47 0 78 -10 105 -22v-125c-39 23 -61 32 -93 32c-35 0 -63 -22 -63 -63v-1c0 -27 10 -49 68 -115
c96 -112 117 -157 117 -233v-1c0 -109 -77 -182 -173 -182zM105 -229l-5 40c43 7 55 18 54 53h-48v90h106v-81c0 -71 -38 -97 -107 -102z" />
    <glyph glyph-name="scommaaccent" unicode="&#x219;" horiz-adv-x="284" 
d="M126 -10c-35 0 -74 10 -109 25v116c40 -21 74 -35 101 -35c29 0 44 14 44 43v1c0 19 -8 39 -60 88c-55 53 -91 101 -91 169v2c0 89 60 145 152 145c33 0 57 -3 88 -14v-116c-25 13 -53 24 -81 24c-29 0 -45 -14 -45 -37v-1c0 -19 9 -35 64 -88c66 -63 87 -107 87 -168v-2
c0 -93 -65 -152 -150 -152zM85 -229l-5 40c43 7 55 18 54 53h-48v90h106v-81c0 -71 -38 -97 -107 -102z" />
    <glyph glyph-name="Tcaron" unicode="&#x164;" horiz-adv-x="324" 
d="M101 0v584h-86v116h294v-116h-86v-584h-122zM285 854l-74 -119h-96l-74 119h82l41 -48l41 48h80z" />
    <glyph glyph-name="tcaron" unicode="&#x165;" horiz-adv-x="244" 
d="M157 -7c-56 0 -110 18 -110 99v348h-32v96h32v137h118v-137h63v-96h-63v-308c0 -24 12 -33 33 -33c9 0 19 2 29 6v-94c-19 -11 -46 -18 -70 -18zM188 560l10 145h79v-2l-38 -143h-51z" />
    <glyph glyph-name="Tcommaaccent" unicode="&#x162;" horiz-adv-x="324" 
d="M101 0v584h-86v116h294v-116h-86v-584h-122zM109 -225l-5 40c43 7 55 18 54 53h-48v90h106v-81c0 -71 -38 -97 -107 -102z" />
    <glyph glyph-name="Tcommaaccent" unicode="&#x21a;" horiz-adv-x="324" 
d="M101 0v584h-86v116h294v-116h-86v-584h-122zM109 -225l-5 40c43 7 55 18 54 53h-48v90h106v-81c0 -71 -38 -97 -107 -102z" />
    <glyph glyph-name="Tcommaaccent" unicode="&#x21a;" horiz-adv-x="324" 
d="M101 0v584h-86v116h294v-116h-86v-584h-122zM109 -225l-5 40c43 7 55 18 54 53h-48v90h106v-81c0 -71 -38 -97 -107 -102z" />
    <glyph glyph-name="tcommaaccent" unicode="&#x163;" horiz-adv-x="244" 
d="M157 -7c-56 0 -110 18 -110 99v348h-32v96h32v137h118v-137h63v-96h-63v-308c0 -24 12 -33 33 -33c9 0 19 2 29 6v-94c-19 -11 -46 -18 -70 -18zM80 -229l-5 40c43 7 55 18 54 53h-48v90h106v-81c0 -71 -38 -97 -107 -102z" />
    <glyph glyph-name="tcommaaccent" unicode="&#x21b;" horiz-adv-x="244" 
d="M157 -7c-56 0 -110 18 -110 99v348h-32v96h32v137h118v-137h63v-96h-63v-308c0 -24 12 -33 33 -33c9 0 19 2 29 6v-94c-19 -11 -46 -18 -70 -18zM80 -229l-5 40c43 7 55 18 54 53h-48v90h106v-81c0 -71 -38 -97 -107 -102z" />
    <glyph glyph-name="tcommaaccent" unicode="&#x21b;" horiz-adv-x="244" 
d="M157 -7c-56 0 -110 18 -110 99v348h-32v96h32v137h118v-137h63v-96h-63v-308c0 -24 12 -33 33 -33c9 0 19 2 29 6v-94c-19 -11 -46 -18 -70 -18zM80 -229l-5 40c43 7 55 18 54 53h-48v90h106v-81c0 -71 -38 -97 -107 -102z" />
    <glyph glyph-name="Uacute" unicode="&#xda;" horiz-adv-x="416" 
d="M208 -9c-100 0 -174 66 -174 213v496h122v-508c0 -64 21 -87 52 -87s52 23 52 87v508h122v-496c0 -147 -74 -213 -174 -213zM157 731l86 127l101 -50l-99 -77h-88z" />
    <glyph glyph-name="uacute" unicode="&#xfa;" horiz-adv-x="379" 
d="M133 -10c-68 0 -103 57 -103 140v406h118v-379c0 -39 15 -61 39 -61s41 22 41 61v379h118v-536h-118v64c-21 -41 -48 -74 -95 -74zM142 571l86 147l93 -49l-99 -98h-80z" />
    <glyph glyph-name="Ubreve" unicode="&#x16c;" horiz-adv-x="416" 
d="M208 -9c-100 0 -174 66 -174 213v496h122v-508c0 -64 21 -87 52 -87s52 23 52 87v508h122v-496c0 -147 -74 -213 -174 -213zM209 720c-65 0 -114 35 -115 111h70c4 -26 19 -39 45 -39c24 0 41 12 45 39h70c-3 -76 -51 -111 -115 -111z" />
    <glyph glyph-name="ubreve" unicode="&#x16d;" horiz-adv-x="379" 
d="M133 -10c-68 0 -103 57 -103 140v406h118v-379c0 -39 15 -61 39 -61s41 22 41 61v379h118v-536h-118v64c-21 -41 -48 -74 -95 -74zM189 565c-63 0 -113 36 -118 119h70c4 -28 19 -47 48 -47s44 19 48 47h70c-5 -83 -55 -119 -118 -119z" />
    <glyph glyph-name="Ucircumflex" unicode="&#xdb;" horiz-adv-x="416" 
d="M208 -9c-100 0 -174 66 -174 213v496h122v-508c0 -64 21 -87 52 -87s52 23 52 87v508h122v-496c0 -147 -74 -213 -174 -213zM87 731l74 119h96l74 -119h-82l-41 48l-41 -48h-80z" />
    <glyph glyph-name="ucircumflex" unicode="&#xfb;" horiz-adv-x="379" 
d="M133 -10c-68 0 -103 57 -103 140v406h118v-379c0 -39 15 -61 39 -61s41 22 41 61v379h118v-536h-118v64c-21 -41 -48 -74 -95 -74zM67 571l78 139h88l78 -139h-77l-46 62l-46 -62h-75z" />
    <glyph glyph-name="Udieresis" unicode="&#xdc;" horiz-adv-x="416" 
d="M208 -9c-100 0 -174 66 -174 213v496h122v-508c0 -64 21 -87 52 -87s52 23 52 87v508h122v-496c0 -147 -74 -213 -174 -213zM230 734v108h108v-108h-108zM80 734v108h108v-108h-108z" />
    <glyph glyph-name="udieresis" unicode="&#xfc;" horiz-adv-x="379" 
d="M133 -10c-68 0 -103 57 -103 140v406h118v-379c0 -39 15 -61 39 -61s41 22 41 61v379h118v-536h-118v64c-21 -41 -48 -74 -95 -74zM207 574v108h106v-108h-106zM65 574v108h106v-108h-106z" />
    <glyph glyph-name="Ugrave" unicode="&#xd9;" horiz-adv-x="416" 
d="M208 -9c-100 0 -174 66 -174 213v496h122v-508c0 -64 21 -87 52 -87s52 23 52 87v508h122v-496c0 -147 -74 -213 -174 -213zM260 731h-88l-99 77l101 50z" />
    <glyph glyph-name="ugrave" unicode="&#xf9;" horiz-adv-x="379" 
d="M133 -10c-68 0 -103 57 -103 140v406h118v-379c0 -39 15 -61 39 -61s41 22 41 61v379h118v-536h-118v64c-21 -41 -48 -74 -95 -74zM156 571l-99 98l93 49l86 -147h-80z" />
    <glyph glyph-name="Uhungarumlaut" unicode="&#x170;" horiz-adv-x="416" 
d="M208 -9c-100 0 -174 66 -174 213v496h122v-508c0 -64 21 -87 52 -87s52 23 52 87v508h122v-496c0 -147 -74 -213 -174 -213zM220 731l44 64l-80 -64h-82l86 127l86 -48l32 48l91 -50l-95 -77h-82z" />
    <glyph glyph-name="uhungarumlaut" unicode="&#x171;" horiz-adv-x="379" 
d="M133 -10c-68 0 -103 57 -103 140v406h118v-379c0 -39 15 -61 39 -61s41 22 41 61v379h118v-536h-118v64c-21 -41 -48 -74 -95 -74zM88 571l86 147l83 -47l28 47l85 -48l-96 -99h-75l55 93l-91 -93h-75z" />
    <glyph glyph-name="Umacron" unicode="&#x16a;" horiz-adv-x="416" 
d="M208 -9c-100 0 -174 66 -174 213v496h122v-508c0 -64 21 -87 52 -87s52 23 52 87v508h122v-496c0 -147 -74 -213 -174 -213zM88 734v79h242v-79h-242z" />
    <glyph glyph-name="umacron" unicode="&#x16b;" horiz-adv-x="379" 
d="M133 -10c-68 0 -103 57 -103 140v406h118v-379c0 -39 15 -61 39 -61s41 22 41 61v379h118v-536h-118v64c-21 -41 -48 -74 -95 -74zM73 574v78h232v-78h-232z" />
    <glyph glyph-name="Uogonek" unicode="&#x172;" horiz-adv-x="416" 
d="M271 -79v-68c-15 -3 -29 -4 -41 -4c-63 0 -97 24 -97 71c0 31 12 53 32 76c-77 16 -131 83 -131 208v496h122v-508c0 -64 21 -87 52 -87s52 23 52 87v508h122v-496c0 -127 -55 -193 -134 -209c-13 -19 -18 -31 -18 -46c0 -23 14 -31 41 -28z" />
    <glyph glyph-name="uogonek" unicode="&#x173;" horiz-adv-x="379" 
d="M350 -79v-68c-15 -3 -29 -4 -41 -4c-63 0 -97 24 -97 71c0 33 13 56 36 80h-20v64c-21 -41 -48 -74 -95 -74c-68 0 -103 57 -103 140v406h118v-379c0 -39 15 -61 39 -61s41 22 41 61v379h118v-536h-16c-16 -21 -21 -36 -21 -51c0 -23 14 -31 41 -28z" />
    <glyph glyph-name="Uring" unicode="&#x16e;" horiz-adv-x="416" 
d="M208 -9c-100 0 -174 66 -174 213v496h122v-508c0 -64 21 -87 52 -87s52 23 52 87v508h122v-496c0 -147 -74 -213 -174 -213zM209 715c-48 0 -87 35 -87 84c0 48 39 84 87 84s87 -35 87 -84c0 -48 -39 -84 -87 -84zM209 759c23 0 39 17 39 40s-16 40 -39 40
s-39 -17 -39 -40s16 -40 39 -40z" />
    <glyph glyph-name="uring" unicode="&#x16f;" horiz-adv-x="379" 
d="M133 -10c-68 0 -103 57 -103 140v406h118v-379c0 -39 15 -61 39 -61s41 22 41 61v379h118v-536h-118v64c-21 -41 -48 -74 -95 -74zM189 565c-48 0 -87 37 -87 90c0 52 39 90 87 90s87 -37 87 -90c0 -52 -39 -90 -87 -90zM189 610c23 0 39 18 39 45s-16 45 -39 45
s-39 -18 -39 -45s16 -45 39 -45z" />
    <glyph glyph-name="Wacute" unicode="&#x1e82;" horiz-adv-x="592" 
d="M109 -2l-106 702h125l51 -429l61 429h113l60 -429l52 429h122l-106 -702h-128l-58 415l-58 -415h-128zM244 735l86 127l101 -50l-99 -77h-88z" />
    <glyph glyph-name="wacute" unicode="&#x1e83;" horiz-adv-x="526" 
d="M103 -2l-92 538h119l41 -309l47 309h92l47 -309l41 309h117l-91 -538h-112l-49 301l-48 -301h-112zM216 575l86 147l93 -49l-99 -98h-80z" />
    <glyph glyph-name="Wcircumflex" unicode="&#x174;" horiz-adv-x="592" 
d="M109 -2l-106 702h125l51 -429l61 429h113l60 -429l52 429h122l-106 -702h-128l-58 415l-58 -415h-128zM173 735l74 119h96l74 -119h-82l-41 48l-41 -48h-80z" />
    <glyph glyph-name="wcircumflex" unicode="&#x175;" horiz-adv-x="526" 
d="M103 -2l-92 538h119l41 -309l47 309h92l47 -309l41 309h117l-91 -538h-112l-49 301l-48 -301h-112zM141 575l78 139h88l78 -139h-77l-46 62l-46 -62h-75z" />
    <glyph glyph-name="Wdieresis" unicode="&#x1e84;" horiz-adv-x="592" 
d="M109 -2l-106 702h125l51 -429l61 429h113l60 -429l52 429h122l-106 -702h-128l-58 415l-58 -415h-128zM316 738v108h108v-108h-108zM166 738v108h108v-108h-108z" />
    <glyph glyph-name="wdieresis" unicode="&#x1e85;" horiz-adv-x="526" 
d="M103 -2l-92 538h119l41 -309l47 309h92l47 -309l41 309h117l-91 -538h-112l-49 301l-48 -301h-112zM281 578v108h106v-108h-106zM139 578v108h106v-108h-106z" />
    <glyph glyph-name="Wgrave" unicode="&#x1e80;" horiz-adv-x="592" 
d="M109 -2l-106 702h125l51 -429l61 429h113l60 -429l52 429h122l-106 -702h-128l-58 415l-58 -415h-128zM346 735h-88l-99 77l101 50z" />
    <glyph glyph-name="wgrave" unicode="&#x1e81;" horiz-adv-x="526" 
d="M103 -2l-92 538h119l41 -309l47 309h92l47 -309l41 309h117l-91 -538h-112l-49 301l-48 -301h-112zM231 575l-99 98l93 49l86 -147h-80z" />
    <glyph glyph-name="Yacute" unicode="&#xdd;" horiz-adv-x="382" 
d="M130 0v276l-130 424h126l66 -262l67 262h123l-130 -424v-276h-122zM141 731l86 127l101 -50l-99 -77h-88z" />
    <glyph glyph-name="yacute" unicode="&#xfd;" horiz-adv-x="362" 
d="M179 220l56 316h116l-148 -666h-115v1l34 148l-111 517h117zM135 571l86 147l93 -49l-99 -98h-80z" />
    <glyph glyph-name="Ycircumflex" unicode="&#x176;" horiz-adv-x="382" 
d="M130 0v276l-130 424h126l66 -262l67 262h123l-130 -424v-276h-122zM70 731l74 119h96l74 -119h-82l-41 48l-41 -48h-80z" />
    <glyph glyph-name="ycircumflex" unicode="&#x177;" horiz-adv-x="362" 
d="M179 220l56 316h116l-148 -666h-115v1l34 148l-111 517h117zM60 571l78 139h88l78 -139h-77l-46 62l-46 -62h-75z" />
    <glyph glyph-name="Ydieresis" unicode="&#x178;" horiz-adv-x="382" 
d="M130 0v276l-130 424h126l66 -262l67 262h123l-130 -424v-276h-122zM213 734v108h108v-108h-108zM63 734v108h108v-108h-108z" />
    <glyph glyph-name="ydieresis" unicode="&#xff;" horiz-adv-x="362" 
d="M179 220l56 316h116l-148 -666h-115v1l34 148l-111 517h117zM200 574v108h106v-108h-106zM58 574v108h106v-108h-106z" />
    <glyph glyph-name="Ygrave" unicode="&#x1ef2;" horiz-adv-x="382" 
d="M130 0v276l-130 424h126l66 -262l67 262h123l-130 -424v-276h-122zM243 731h-88l-99 77l101 50z" />
    <glyph glyph-name="ygrave" unicode="&#x1ef3;" horiz-adv-x="362" 
d="M179 220l56 316h116l-148 -666h-115v1l34 148l-111 517h117zM149 571l-99 98l93 49l86 -147h-80z" />
    <glyph glyph-name="Zacute" unicode="&#x179;" horiz-adv-x="340" 
d="M23 0v97l161 488h-155v115h289v-97l-161 -488h161v-115h-295zM123 735l86 127l101 -50l-99 -77h-88z" />
    <glyph glyph-name="zacute" unicode="&#x17a;" horiz-adv-x="290" 
d="M12 0v84l141 352h-136v100h262v-84l-141 -352h141v-100h-267zM103 575l86 147l93 -49l-99 -98h-80z" />
    <glyph glyph-name="Zcaron" unicode="&#x17d;" horiz-adv-x="340" 
d="M23 0v97l161 488h-155v115h289v-97l-161 -488h161v-115h-295zM296 854l-74 -119h-96l-74 119h82l41 -48l41 48h80z" />
    <glyph glyph-name="zcaron" unicode="&#x17e;" horiz-adv-x="290" 
d="M12 0v84l141 352h-136v100h262v-84l-141 -352h141v-100h-267zM272 714l-78 -139h-88l-78 139h77l46 -62l46 62h75z" />
    <glyph glyph-name="Zdotaccent" unicode="&#x17b;" horiz-adv-x="340" 
d="M23 0v97l161 488h-155v115h289v-97l-161 -488h161v-115h-295zM119 738v108h110v-108h-110z" />
    <glyph glyph-name="zdotaccent" unicode="&#x17c;" horiz-adv-x="290" 
d="M12 0v84l141 352h-136v100h262v-84l-141 -352h141v-100h-267zM96 578v108h108v-108h-108z" />
    <glyph glyph-name="AE" unicode="&#xc6;" horiz-adv-x="549" 
d="M-7 0l184 700h346v-116h-146v-174h129v-116h-129v-178h149v-116h-271v139h-112l-32 -139h-118zM169 249h86v325h-9z" />
    <glyph glyph-name="ae" unicode="&#xe6;" horiz-adv-x="531" 
d="M131 -9c-75 0 -117 59 -117 158v17c0 120 48 170 119 170c24 0 48 -7 71 -20v32c0 56 -27 84 -75 84c-31 0 -60 -12 -89 -25v112c36 16 65 23 112 23c56 0 92 -22 116 -59c23 39 55 61 96 61c93 0 152 -92 152 -269v-62h-197c7 -84 42 -113 81 -113c36 0 59 15 94 39
l9 -108c-41 -27 -73 -41 -118 -41c-63 0 -111 33 -140 101c-19 -59 -59 -100 -114 -100zM318 306h87c0 89 -14 133 -41 133s-43 -37 -46 -133zM169 90c19 0 44 21 56 69c-4 21 -7 45 -8 70c-15 9 -31 15 -50 15c-24 0 -40 -20 -40 -71v-14c0 -51 15 -69 42 -69z" />
    <glyph glyph-name="AEacute" unicode="&#x1fc;" horiz-adv-x="549" 
d="M-7 0l184 700h346v-116h-146v-174h129v-116h-129v-178h149v-116h-271v139h-112l-32 -139h-118zM169 249h86v325h-9zM256 735l86 127l101 -50l-99 -77h-88z" />
    <glyph glyph-name="aeacute" unicode="&#x1fd;" horiz-adv-x="531" 
d="M131 -9c-75 0 -117 59 -117 158v17c0 120 48 170 119 170c24 0 48 -7 71 -20v32c0 56 -27 84 -75 84c-31 0 -60 -12 -89 -25v112c36 16 65 23 112 23c56 0 92 -22 116 -59c23 39 55 61 96 61c93 0 152 -92 152 -269v-62h-197c7 -84 42 -113 81 -113c36 0 59 15 94 39
l9 -108c-41 -27 -73 -41 -118 -41c-63 0 -111 33 -140 101c-19 -59 -59 -100 -114 -100zM318 306h87c0 89 -14 133 -41 133s-43 -37 -46 -133zM169 90c19 0 44 21 56 69c-4 21 -7 45 -8 70c-15 9 -31 15 -50 15c-24 0 -40 -20 -40 -71v-14c0 -51 15 -69 42 -69zM218 575
l86 147l93 -49l-99 -98h-80z" />
    <glyph glyph-name="OE" unicode="&#x152;" horiz-adv-x="556" 
d="M533 0h-264c-157 0 -245 111 -245 338v24c0 227 88 338 245 338h261v-116h-146v-174h129v-116h-129v-178h149v-116zM256 112h5v476h-5c-59 0 -108 -50 -108 -226v-24c0 -176 49 -226 108 -226z" />
    <glyph glyph-name="oe" unicode="&#x153;" horiz-adv-x="577" 
d="M189 -10c-96 0 -166 89 -166 261v32c0 172 70 261 166 261c49 0 87 -24 113 -71c25 47 61 71 108 71c93 0 152 -92 152 -269v-62h-197c7 -84 42 -113 81 -113c36 0 59 15 94 39l9 -108c-41 -27 -73 -41 -118 -41c-55 0 -97 25 -127 75c-25 -50 -64 -75 -115 -75zM364 306
h87c0 89 -14 133 -41 133s-43 -37 -46 -133zM189 95c31 0 48 50 48 154v36c0 107 -17 154 -48 154s-48 -47 -48 -154v-36c0 -104 17 -154 48 -154z" />
    <glyph glyph-name="Eth" unicode="&#xd0;" horiz-adv-x="427" 
d="M8 309v86h36v305h114c157 0 245 -111 245 -338v-24c0 -227 -88 -338 -245 -338h-114v309h-36zM279 338v24c0 176 -49 226 -108 226h-5v-193h54v-86h-54v-197h5c59 0 108 50 108 226z" />
    <glyph glyph-name="eth" unicode="&#xf0;" horiz-adv-x="378" 
d="M328 635l-49 -18c45 -88 74 -194 74 -315v-28c0 -198 -73 -284 -169 -284c-95 0 -161 93 -161 260v37c0 163 67 249 128 249c25 0 42 -10 63 -31c-11 27 -20 51 -33 75l-68 -25l-28 72l54 20c-14 19 -29 39 -46 58h129l16 -21l62 23zM187 94c32 0 48 52 48 157v34
c0 107 -19 157 -48 157c-27 0 -46 -50 -46 -157v-34c0 -105 15 -157 46 -157z" />
    <glyph glyph-name="Thorn" unicode="&#xde;" horiz-adv-x="385" 
d="M36 0v700h122v-96h1c101 0 212 -63 212 -236v-2c0 -157 -88 -234 -212 -242h-1v-124h-122zM158 237h1c51 3 90 40 90 125v2c0 89 -34 127 -87 127h-4v-254z" />
    <glyph glyph-name="thorn" unicode="&#xfe;" horiz-adv-x="384" 
d="M33 -130v835h118v-236c16 32 42 77 94 77c64 0 114 -61 114 -254v-48c0 -191 -50 -254 -114 -254c-53 0 -75 43 -94 75v-195h-118zM197 103c31 0 44 51 44 147v36c0 96 -13 147 -44 147s-47 -51 -47 -147v-36c0 -96 16 -147 47 -147z" />
    <glyph glyph-name="uni018F" unicode="&#x18f;" horiz-adv-x="399" 
d="M53 555l-10 115c41 25 78 40 125 40c125 0 207 -115 207 -343v-34c0 -232 -76 -343 -183 -343c-116 0 -166 111 -166 352v69h225c-5 137 -41 182 -93 182c-39 0 -74 -19 -105 -38zM194 102c35 0 55 56 58 205h-108c-1 -137 13 -205 50 -205z" />
    <glyph glyph-name="schwa" unicode="&#x259;" horiz-adv-x="350" 
d="M146 544c100 0 184 -91 184 -264v-26c0 -172 -74 -264 -163 -264c-93 0 -152 92 -152 269v62h197c-7 84 -42 113 -81 113c-36 0 -59 -15 -94 -39l-9 108c41 27 73 41 118 41zM213 228h-87c0 -89 14 -133 41 -133s43 37 46 133z" />
    <glyph glyph-name="germandbls" unicode="&#xdf;" horiz-adv-x="402" 
d="M199 -2v101c44 6 66 41 66 106v3c0 57 -19 97 -66 110v86c37 25 52 65 52 116v6c0 51 -17 78 -49 78c-34 0 -51 -34 -51 -102v-502h-118v498c0 124 60 209 172 209c104 0 159 -77 159 -165v-8c0 -80 -30 -128 -77 -160c60 -29 95 -81 95 -166v-7
c0 -124 -60 -199 -183 -203z" />
    <glyph glyph-name="uni0386" unicode="&#x386;" horiz-adv-x="398" 
d="M1 0l133 702h130l133 -702h-122l-23 139h-111l-22 -139h-118zM159 249h75l-37 231zM-9 553l10 147h95l-42 -147h-63z" />
    <glyph glyph-name="uni0388" unicode="&#x388;" horiz-adv-x="330" 
d="M36 0v700h268v-116h-146v-174h129v-116h-129v-178h149v-116h-271zM-85 553l10 147h95l-42 -147h-63z" />
    <glyph glyph-name="uni0389" unicode="&#x389;" horiz-adv-x="422" 
d="M36 0v700h122v-290h106v290h122v-700h-122v294h-106v-294h-122zM-85 553l10 147h95l-42 -147h-63z" />
    <glyph glyph-name="uni038A" unicode="&#x38a;" horiz-adv-x="198" 
d="M38 0v700h122v-700h-122zM-83 553l10 147h95l-42 -147h-63z" />
    <glyph glyph-name="uni038C" unicode="&#x38c;" horiz-adv-x="420" 
d="M210 -10c-111 0 -186 111 -186 342v36c0 231 75 342 186 342s186 -111 186 -342v-36c0 -231 -75 -342 -186 -342zM210 102c37 0 62 50 62 230v36c0 180 -25 230 -62 230s-62 -50 -62 -230v-36c0 -180 25 -230 62 -230zM-50 562l10 147h95l-42 -147h-63z" />
    <glyph glyph-name="uni038E" unicode="&#x38e;" horiz-adv-x="382" 
d="M130 0v276l-130 424h126l66 -262l67 262h123l-130 -424v-276h-122zM-113 553l10 147h95l-42 -147h-63z" />
    <glyph glyph-name="uni038F" unicode="&#x38f;" horiz-adv-x="432" 
d="M217 710c111 0 185 -86 185 -283v-13c0 -104 -31 -210 -79 -298h84v-116h-171v111c21 81 42 160 42 292v7c0 152 -26 188 -63 188c-36 0 -61 -34 -61 -186v-7c0 -132 20 -213 42 -294v-111h-171v116h84c-49 88 -79 194 -79 298v13c0 197 76 283 187 283zM-54 563l10 147
h95l-42 -147h-63z" />
    <glyph glyph-name="uni0386.calt" horiz-adv-x="398" 
d="M1 0l133 702h130l133 -702h-122l-23 139h-111l-22 -139h-118zM159 249h75l-37 231z" />
    <glyph glyph-name="uni0388.calt" horiz-adv-x="330" 
d="M36 0v700h268v-116h-146v-174h129v-116h-129v-178h149v-116h-271z" />
    <glyph glyph-name="uni0389.calt" horiz-adv-x="422" 
d="M36 0v700h122v-290h106v290h122v-700h-122v294h-106v-294h-122z" />
    <glyph glyph-name="uni038A.calt" horiz-adv-x="198" 
d="M38 0v700h122v-700h-122z" />
    <glyph glyph-name="uni038C.calt" horiz-adv-x="420" 
d="M210 -10c-111 0 -186 111 -186 342v36c0 231 75 342 186 342s186 -111 186 -342v-36c0 -231 -75 -342 -186 -342zM210 102c37 0 62 50 62 230v36c0 180 -25 230 -62 230s-62 -50 -62 -230v-36c0 -180 25 -230 62 -230z" />
    <glyph glyph-name="uni038E.calt" horiz-adv-x="382" 
d="M130 0v276l-130 424h126l66 -262l67 262h123l-130 -424v-276h-122z" />
    <glyph glyph-name="uni038F.calt" horiz-adv-x="432" 
d="M217 710c111 0 185 -86 185 -283v-13c0 -104 -31 -210 -79 -298h84v-116h-171v111c21 81 42 160 42 292v7c0 152 -26 188 -63 188c-36 0 -61 -34 -61 -186v-7c0 -132 20 -213 42 -294v-111h-171v116h84c-49 88 -79 194 -79 298v13c0 197 76 283 187 283z" />
    <glyph glyph-name="uni0399.calt" horiz-adv-x="198" 
d="M38 0v700h122v-700h-122zM121 738v108h108v-108h-108zM-29 738v108h108v-108h-108z" />
    <glyph glyph-name="uni03A5.calt" horiz-adv-x="382" 
d="M130 0v276l-130 424h126l66 -262l67 262h123l-130 -424v-276h-122zM213 734v108h108v-108h-108zM63 734v108h108v-108h-108z" />
    <glyph glyph-name="uni03AA" unicode="&#x3aa;" horiz-adv-x="198" 
d="M38 0v700h122v-700h-122zM121 738v108h108v-108h-108zM-29 738v108h108v-108h-108z" />
    <glyph glyph-name="uni03AB" unicode="&#x3ab;" horiz-adv-x="382" 
d="M130 0v276l-130 424h126l66 -262l67 262h123l-130 -424v-276h-122zM213 734v108h108v-108h-108zM63 734v108h108v-108h-108z" />
    <glyph glyph-name="uni03AC" unicode="&#x3ac;" horiz-adv-x="404" 
d="M401 99v-93c-19 -7 -43 -13 -72 -13c-40 0 -81 13 -92 74c-21 -40 -48 -77 -98 -77c-64 0 -114 61 -114 254v48c0 191 50 254 114 254c53 0 76 -43 94 -75v65h118v-407c0 -24 8 -32 28 -32c8 0 15 1 22 2zM187 103c31 0 47 51 47 147v36c0 96 -16 147 -47 147
s-44 -51 -44 -147v-36c0 -96 13 -147 44 -147zM164 580l53 147l97 -48l-76 -99h-74z" />
    <glyph glyph-name="uni03AD" unicode="&#x3ad;" horiz-adv-x="294" 
d="M242 217h-33c-49 0 -75 -15 -75 -62v-1c0 -37 18 -56 55 -56c25 0 50 5 85 22v-110c-27 -12 -67 -20 -102 -20c-100 0 -152 49 -152 148v2c0 61 26 107 86 131c-47 16 -84 52 -84 124v5c0 83 58 144 150 144c35 0 68 -7 98 -21v-112c-32 16 -54 25 -79 25
c-35 0 -55 -21 -55 -57v-2c0 -39 21 -58 77 -58h29v-102zM127 580l53 147l97 -48l-76 -99h-74z" />
    <glyph glyph-name="uni03AE" unicode="&#x3ae;" horiz-adv-x="379" 
d="M151 0h-118v536h118v-64c21 41 48 74 95 74c68 0 103 -57 103 -140v-536h-118v509c0 39 -15 61 -39 61s-41 -22 -41 -61v-379zM155 580l53 147l97 -48l-76 -99h-74z" />
    <glyph glyph-name="uni03AF" unicode="&#x3af;" horiz-adv-x="203" 
d="M32 98v438h118v-405c0 -24 8 -32 28 -32c8 0 15 1 22 2v-93c-19 -7 -43 -13 -72 -13c-44 0 -96 17 -96 103zM55 575l53 147l97 -48l-76 -99h-74z" />
    <glyph glyph-name="uni03CC" unicode="&#x3cc;" horiz-adv-x="378" 
d="M189 -10c-96 0 -166 89 -166 261v32c0 172 70 261 166 261s166 -89 166 -261v-32c0 -172 -70 -261 -166 -261zM189 95c31 0 48 50 48 154v36c0 107 -17 154 -48 154s-48 -47 -48 -154v-36c0 -104 17 -154 48 -154zM153 580l53 147l97 -48l-76 -99h-74z" />
    <glyph glyph-name="uni03CD" unicode="&#x3cd;" horiz-adv-x="380" 
d="M190 -10c-107 0 -160 61 -160 184v362h118v-368c0 -49 13 -70 42 -70s42 21 42 70v368h118v-362c0 -119 -57 -184 -160 -184zM154 571l53 147l97 -48l-76 -99h-74z" />
    <glyph glyph-name="uni03CE" unicode="&#x3ce;" horiz-adv-x="560" 
d="M225 426h110v-194c0 -85 15 -128 44 -128c21 0 38 18 38 101v3c0 108 -18 208 -66 328h122c41 -108 62 -202 62 -328v-2c0 -140 -45 -216 -133 -216c-68 0 -102 46 -123 103c-21 -57 -53 -103 -121 -103c-88 0 -133 76 -133 216v2c0 126 21 220 62 328h120
c-48 -119 -64 -220 -64 -328v-3c0 -83 17 -101 38 -101c29 0 44 43 44 128v194zM243 571l53 147l97 -48l-76 -99h-74z" />
    <glyph glyph-name="uni03CA" unicode="&#x3ca;" horiz-adv-x="203" 
d="M32 98v438h118v-405c0 -24 8 -32 28 -32c8 0 15 1 22 2v-93c-19 -7 -43 -13 -72 -13c-44 0 -96 17 -96 103zM110 578v108h106v-108h-106zM-32 578v108h106v-108h-106z" />
    <glyph glyph-name="uni03CB" unicode="&#x3cb;" horiz-adv-x="380" 
d="M190 -10c-107 0 -160 61 -160 184v362h118v-368c0 -49 13 -70 42 -70s42 21 42 70v368h118v-362c0 -119 -57 -184 -160 -184zM209 574v108h106v-108h-106zM67 574v108h106v-108h-106z" />
    <glyph glyph-name="uni0390" unicode="&#x390;" horiz-adv-x="203" 
d="M32 98v438h118v-405c0 -24 8 -32 28 -32c8 0 15 1 22 2v-93c-19 -7 -43 -13 -72 -13c-44 0 -96 17 -96 103zM163 578v103h99v-103h-99zM-78 578v103h99v-103h-99zM40 578l24 161l98 -21l-58 -140h-64z" />
    <glyph glyph-name="uni03B0" unicode="&#x3b0;" horiz-adv-x="380" 
d="M190 -10c-107 0 -160 61 -160 184v362h118v-368c0 -49 13 -70 42 -70s42 21 42 70v368h118v-362c0 -119 -57 -184 -160 -184zM262 574v103h99v-103h-99zM21 574v103h99v-103h-99zM139 574l24 161l98 -21l-58 -140h-64z" />
    <glyph glyph-name="uni0462" unicode="&#x462;" horiz-adv-x="442" 
d="M218 708v-77h96v-104h-96v-99c124 -5 211 -71 211 -208v-4c0 -140 -95 -216 -239 -216h-94v525h-81v106h81v77h122zM218 113h6c45 3 83 34 83 101v4c0 65 -35 99 -82 99h-7v-204z" />
    <glyph glyph-name="uni0472" unicode="&#x472;" horiz-adv-x="418" 
d="M209 -10c-109 0 -185 111 -185 342v36c0 231 76 342 185 342s185 -111 185 -342v-36c0 -231 -76 -342 -185 -342zM209 100c38 0 63 47 66 197h-133c3 -150 30 -197 67 -197zM209 600c-37 0 -64 -46 -67 -193h133c-3 147 -28 193 -66 193z" />
    <glyph glyph-name="uni0474" unicode="&#x474;" horiz-adv-x="404" 
d="M123 -2l-122 702h124l63 -456l41 287c19 127 68 171 162 171h4v-112h-2c-26 0 -40 -13 -54 -86l-90 -506h-126z" />
    <glyph glyph-name="uni0490" unicode="&#x490;" horiz-adv-x="300" 
d="M36 0v700h139v107h112v-223h-129v-584h-122z" />
    <glyph glyph-name="uni0404" unicode="&#x404;" horiz-adv-x="345" 
d="M225 -5c-114 0 -201 99 -201 343v24c0 245 93 343 209 343c35 0 58 -4 85 -16v-126c-25 15 -50 23 -73 23c-55 0 -94 -36 -99 -179h135v-110h-135c3 -156 45 -183 101 -183c19 0 48 7 73 22v-120c-28 -16 -60 -21 -95 -21z" />
    <glyph glyph-name="uni0406" unicode="&#x406;" horiz-adv-x="198" 
d="M38 0v700h122v-700h-122z" />
    <glyph glyph-name="uni0407" unicode="&#x407;" horiz-adv-x="198" 
d="M38 0v700h122v-700h-122zM121 738v108h108v-108h-108zM-29 738v108h108v-108h-108z" />
    <glyph glyph-name="uni0402" unicode="&#x402;" horiz-adv-x="453" 
d="M308 700v-116h-88v-121c16 2 33 3 50 3c108 0 170 -62 170 -247v-3c0 -171 -66 -217 -167 -217h-11v108h5c35 0 51 15 51 99v3c0 108 -13 138 -65 138c-13 0 -24 -1 -33 -3v-344h-122v584h-82v116h292z" />
    <glyph glyph-name="uni0408" unicode="&#x408;" horiz-adv-x="295" 
d="M93 -6c-31 0 -54 5 -77 10v121c19 -7 38 -12 59 -12c40 0 64 21 64 72v515h122v-524c0 -61 -16 -108 -47 -139c-29 -29 -69 -43 -121 -43z" />
    <glyph glyph-name="uni0409" unicode="&#x409;" horiz-adv-x="598" 
d="M255 0v579h-4l-140 -579h-118l184 700h199v-230c125 -5 208 -82 208 -231v-2c0 -156 -95 -237 -232 -237h-97zM376 114h1c47 3 85 37 85 120v2c0 85 -32 122 -83 122h-3v-244z" />
    <glyph glyph-name="uni040A" unicode="&#x40a;" horiz-adv-x="601" 
d="M258 0v294h-100v-294h-122v700h122v-290h100v290h121v-230c125 -5 208 -82 208 -231v-2c0 -156 -95 -237 -232 -237h-97zM379 114h1c47 3 85 37 85 120v2c0 85 -32 122 -83 122h-3v-244z" />
    <glyph glyph-name="uni040B" unicode="&#x40b;" horiz-adv-x="468" 
d="M308 700v-116h-88v-123c25 4 46 5 66 5c107 0 154 -55 154 -180v-286h-122v277c0 55 -11 70 -55 70c-11 0 -30 -1 -43 -4v-343h-122v584h-82v116h292z" />
    <glyph glyph-name="uni040F" unicode="&#x40f;" horiz-adv-x="422" 
d="M155 -112v112h-119v700h122v-584h106v584h122v-700h-119v-112h-112z" />
    <glyph glyph-name="uni040E" unicode="&#x40e;" horiz-adv-x="388" 
d="M204 0h-122l52 202l-132 498h124l71 -310l69 310h122zM196 725c-65 0 -114 35 -115 111h70c4 -26 19 -39 45 -39c24 0 41 12 45 39h70c-3 -76 -51 -111 -115 -111z" />
    <glyph glyph-name="uni0403" unicode="&#x403;" horiz-adv-x="300" 
d="M36 0v700h251v-116h-129v-584h-122zM111 735l86 127l101 -50l-99 -77h-88z" />
    <glyph glyph-name="uni0405" unicode="&#x405;" horiz-adv-x="325" 
d="M145 -5c-48 0 -89 12 -124 29v125c43 -25 71 -39 108 -39c39 0 67 22 67 69v1c0 22 -8 54 -67 119c-85 93 -118 143 -118 224v1c0 110 73 181 173 181c47 0 78 -10 105 -22v-125c-39 23 -61 32 -93 32c-35 0 -63 -22 -63 -63v-1c0 -27 10 -49 68 -115
c96 -112 117 -157 117 -233v-1c0 -109 -77 -182 -173 -182z" />
    <glyph glyph-name="uni040C" unicode="&#x40c;" horiz-adv-x="404" 
d="M36 0v700h122v-292h17l83 292h134l-108 -335l112 -365h-132l-89 296h-17v-296h-122zM159 731l86 127l101 -50l-99 -77h-88z" />
    <glyph glyph-name="uni0400" unicode="&#x400;" horiz-adv-x="330" 
d="M36 0v700h268v-116h-146v-174h129v-116h-129v-178h149v-116h-271zM223 735h-88l-99 77l101 50z" />
    <glyph glyph-name="uni040D" unicode="&#x40d;" horiz-adv-x="428" 
d="M392 0h-118v394l-123 -394h-115v700h118v-377l117 377h121v-700zM266 731h-88l-99 77l101 50z" />
    <glyph glyph-name="uni0492" unicode="&#x492;" horiz-adv-x="308" 
d="M44 0v295h-36v86h36v319h251v-116h-129v-203h67v-86h-67v-295h-122z" />
    <glyph glyph-name="uni0496" unicode="&#x496;" horiz-adv-x="639" 
d="M10 700h135l89 -293h16l-3 293h122l-3 -293h16l89 293h134l-114 -337l79 -247h59v-228h-112v112h-42l-94 297h-16l4 -297h-122l3 297h-16l-95 -297h-131l116 360z" />
    <glyph glyph-name="uni0498" unicode="&#x498;" horiz-adv-x="338" 
d="M94 -112l3 110c-27 4 -49 11 -72 22v124c31 -19 65 -33 100 -33c48 0 75 29 75 93v3c0 57 -24 90 -92 90h-39v110h38c61 0 92 33 92 98v2c0 55 -22 84 -70 84c-33 0 -67 -12 -96 -27v119c35 15 71 22 114 22c103 0 170 -57 170 -177v-5c0 -88 -40 -137 -100 -165
c64 -23 103 -76 103 -159v-5c0 -100 -45 -165 -118 -189l4 -117h-112z" />
    <glyph glyph-name="uni049A" unicode="&#x49a;" horiz-adv-x="431" 
d="M36 0v700h122v-292h17l83 292h134l-108 -335l76 -249h61v-228h-112v112h-45l-89 296h-17v-296h-122z" />
    <glyph glyph-name="uni049C" unicode="&#x49c;" horiz-adv-x="446" 
d="M241 605l-2 -166l73 261h122l-105 -330l109 -370h-120l-79 276l2 -166h-53l1 188h-33v-298h-120v700h120v-294h33l-1 199h53z" />
    <glyph glyph-name="uni04A0" unicode="&#x4a0;" horiz-adv-x="466" 
d="M15 586v114h205v-292h17l83 292h134l-108 -335l112 -365h-132l-89 296h-17v-296h-122v586h-83z" />
    <glyph glyph-name="uni04A2" unicode="&#x4a2;" horiz-adv-x="455" 
d="M330 -112v112h-66v294h-106v-294h-122v700h122v-290h106v290h122v-584h56v-228h-112z" />
    <glyph glyph-name="uni04A4" unicode="&#x4a4;" horiz-adv-x="505" 
d="M258 0v294h-100v-294h-122v700h122v-290h100v290h234v-116h-112v-584h-122z" />
    <glyph glyph-name="uni04AA" unicode="&#x4aa;" horiz-adv-x="336" 
d="M149 -112l4 121c-77 35 -129 137 -129 329v24c0 245 90 343 205 343c35 0 53 -4 80 -16v-126c-25 15 -45 23 -68 23c-53 0 -93 -47 -93 -223v-26c0 -184 39 -223 95 -223c21 0 43 7 68 22v-120c-18 -10 -36 -16 -54 -18l4 -110h-112z" />
    <glyph glyph-name="uni04AE" unicode="&#x4ae;" horiz-adv-x="382" 
d="M130 0v276l-130 424h126l66 -262l67 262h123l-130 -424v-276h-122z" />
    <glyph glyph-name="uni04B0" unicode="&#x4b0;" horiz-adv-x="382" 
d="M130 0v198h-78v86h75l-127 416h126l66 -262l67 262h123l-128 -416h76v-86h-78v-198h-122z" />
    <glyph glyph-name="uni04B2" unicode="&#x4b2;" horiz-adv-x="416" 
d="M254 0l-59 213l-60 -213h-127l114 357l-110 343h130l55 -203l56 203h127l-110 -343l77 -241h59v-228h-112v112h-40z" />
    <glyph glyph-name="uni04B6" unicode="&#x4b6;" horiz-adv-x="440" 
d="M248 0v239c-25 -4 -46 -5 -66 -5c-107 0 -154 55 -154 180v286h122v-277c0 -55 11 -70 55 -70c11 0 30 1 43 4v343h123v-584h56v-228h-112v112h-67z" />
    <glyph glyph-name="uni04B8" unicode="&#x4b8;" horiz-adv-x="422" 
d="M265 0v239c-12 -3 -23 -3 -34 -4l2 -155h-53l2 154c-109 4 -154 58 -154 182v284h120v-277c0 -43 5 -61 34 -68l-2 195h53l-3 -197c12 1 24 2 35 5v342h121v-700h-121z" />
    <glyph glyph-name="uni04BA" unicode="&#x4ba;" horiz-adv-x="407" 
d="M159 700v-239c25 4 46 5 66 5c107 0 154 -55 154 -180v-286h-122v277c0 55 -11 70 -55 70c-11 0 -30 -1 -43 -4v-343h-123v700h123z" />
    <glyph glyph-name="uni04C0" unicode="&#x4c0;" horiz-adv-x="198" 
d="M38 0v700h122v-700h-122z" />
    <glyph glyph-name="uni04C1" unicode="&#x4c1;" horiz-adv-x="615" 
d="M10 700h135l89 -293h16l-3 293h122l-3 -293h16l89 293h134l-114 -337l116 -363h-132l-94 297h-16l4 -297h-122l3 297h-16l-95 -297h-131l116 360zM307 729c-65 0 -114 35 -115 111h70c4 -26 19 -39 45 -39c24 0 41 12 45 39h70c-3 -76 -51 -111 -115 -111z" />
    <glyph glyph-name="uni04D0" unicode="&#x4d0;" horiz-adv-x="398" 
d="M1 0l133 702h130l133 -702h-122l-23 139h-111l-22 -139h-118zM159 249h75l-37 231zM200 734c-65 0 -114 35 -115 111h70c4 -26 19 -39 45 -39c24 0 41 12 45 39h70c-3 -76 -51 -111 -115 -111z" />
    <glyph glyph-name="uni04D2" unicode="&#x4d2;" horiz-adv-x="398" 
d="M1 0l133 702h130l133 -702h-122l-23 139h-111l-22 -139h-118zM159 249h75l-37 231zM221 743v108h108v-108h-108zM71 743v108h108v-108h-108z" />
    <glyph glyph-name="uni04D4" unicode="&#x4d4;" horiz-adv-x="549" 
d="M-7 0l184 700h346v-116h-146v-174h129v-116h-129v-178h149v-116h-271v139h-112l-32 -139h-118zM169 249h86v325h-9z" />
    <glyph glyph-name="uni04D6" unicode="&#x4d6;" horiz-adv-x="330" 
d="M36 0v700h268v-116h-146v-174h129v-116h-129v-178h149v-116h-271zM172 729c-65 0 -114 35 -115 111h70c4 -26 19 -39 45 -39c24 0 41 12 45 39h70c-3 -76 -51 -111 -115 -111z" />
    <glyph glyph-name="uni04D8" unicode="&#x4d8;" horiz-adv-x="399" 
d="M53 555l-10 115c41 25 78 40 125 40c125 0 207 -115 207 -343v-34c0 -232 -76 -343 -183 -343c-116 0 -166 111 -166 352v69h225c-5 137 -41 182 -93 182c-39 0 -74 -19 -105 -38zM194 102c35 0 55 56 58 205h-108c-1 -137 13 -205 50 -205z" />
    <glyph glyph-name="uni04DC" unicode="&#x4dc;" horiz-adv-x="615" 
d="M10 700h135l89 -293h16l-3 293h122l-3 -293h16l89 293h134l-114 -337l116 -363h-132l-94 297h-16l4 -297h-122l3 297h-16l-95 -297h-131l116 360zM328 738v108h108v-108h-108zM178 738v108h108v-108h-108z" />
    <glyph glyph-name="uni04DE" unicode="&#x4de;" horiz-adv-x="338" 
d="M33 564v119c35 15 71 22 114 22c103 0 170 -57 170 -177v-5c0 -88 -40 -137 -100 -165c64 -23 103 -76 103 -159v-5c0 -127 -72 -199 -185 -199c-40 0 -77 10 -110 25v124c31 -19 65 -33 100 -33c48 0 75 29 75 93v3c0 57 -24 90 -92 90h-39v110h38c61 0 92 33 92 98v2
c0 55 -22 84 -70 84c-33 0 -67 -12 -96 -27zM192 743v108h108v-108h-108zM42 743v108h108v-108h-108z" />
    <glyph glyph-name="uni04E2" unicode="&#x4e2;" horiz-adv-x="428" 
d="M392 0h-118v394l-123 -394h-115v700h118v-377l117 377h121v-700zM94 734v79h242v-79h-242z" />
    <glyph glyph-name="uni04E4" unicode="&#x4e4;" horiz-adv-x="428" 
d="M392 0h-118v394l-123 -394h-115v700h118v-377l117 377h121v-700zM236 734v108h108v-108h-108zM86 734v108h108v-108h-108z" />
    <glyph glyph-name="uni04E6" unicode="&#x4e6;" horiz-adv-x="420" 
d="M210 -10c-111 0 -186 111 -186 342v36c0 231 75 342 186 342s186 -111 186 -342v-36c0 -231 -75 -342 -186 -342zM210 102c37 0 62 50 62 230v36c0 180 -25 230 -62 230s-62 -50 -62 -230v-36c0 -180 25 -230 62 -230zM232 743v108h108v-108h-108zM82 743v108h108v-108
h-108z" />
    <glyph glyph-name="uni04E8" unicode="&#x4e8;" horiz-adv-x="418" 
d="M209 -10c-109 0 -185 111 -185 342v36c0 231 76 342 185 342s185 -111 185 -342v-36c0 -231 -76 -342 -185 -342zM209 100c38 0 63 47 66 197h-133c3 -150 30 -197 67 -197zM209 600c-37 0 -64 -46 -67 -193h133c-3 147 -28 193 -66 193z" />
    <glyph glyph-name="uni04EE" unicode="&#x4ee;" horiz-adv-x="388" 
d="M204 0h-122l52 202l-132 498h124l71 -310l69 310h122zM75 734v79h242v-79h-242z" />
    <glyph glyph-name="uni04F0" unicode="&#x4f0;" horiz-adv-x="388" 
d="M204 0h-122l52 202l-132 498h124l71 -310l69 310h122zM217 734v108h108v-108h-108zM67 734v108h108v-108h-108z" />
    <glyph glyph-name="uni04F2" unicode="&#x4f2;" horiz-adv-x="388" 
d="M204 0h-122l52 202l-132 498h124l71 -310l69 310h122zM208 731l44 64l-80 -64h-82l86 127l86 -48l32 48l91 -50l-95 -77h-82z" />
    <glyph glyph-name="uni04F4" unicode="&#x4f4;" horiz-adv-x="407" 
d="M248 0v239c-25 -4 -46 -5 -66 -5c-107 0 -154 55 -154 180v286h122v-277c0 -55 11 -70 55 -70c11 0 30 1 43 4v343h123v-700h-123zM221 734v108h108v-108h-108zM71 734v108h108v-108h-108z" />
    <glyph glyph-name="uni04F8" unicode="&#x4f8;" horiz-adv-x="568" 
d="M36 0v700h122v-230c128 -5 213 -80 213 -231v-2c0 -156 -94 -237 -237 -237h-98zM410 0v700h122v-700h-122zM158 114h1c51 3 90 37 90 120v2c0 85 -34 122 -87 122h-4v-244zM305 738v108h108v-108h-108zM155 738v108h108v-108h-108z" />
    <glyph glyph-name="uni0431.srb" horiz-adv-x="372" 
d="M186 -10c-95 0 -163 83 -163 240v13c0 107 33 220 133 244l-56 61c-20 23 -41 44 -41 79c0 48 32 78 99 78h156v-107l-120 1c-11 0 -17 -4 -17 -12c0 -7 4 -11 29 -36l30 -30c93 -93 113 -174 113 -275v-13c0 -156 -68 -243 -163 -243zM186 92c29 0 47 46 47 142v19
c0 97 -19 142 -47 142c-29 0 -47 -46 -47 -142v-19c0 -96 19 -142 47 -142z" />
    <glyph glyph-name="uni0463" unicode="&#x463;" horiz-adv-x="408" 
d="M323 440h-118v-72h1c99 0 189 -50 189 -180v-4c0 -119 -80 -184 -209 -184h-98v440h-76v96h76v169h117v-169h118v-96zM206 273v-178h4c39 0 67 27 67 86v2c0 63 -27 90 -66 90h-5z" />
    <glyph glyph-name="uni0473" unicode="&#x473;" horiz-adv-x="376" 
d="M188 -10c-96 0 -165 89 -165 262v30c0 173 69 262 165 262s165 -89 165 -262v-30c0 -173 -69 -262 -165 -262zM188 89c31 0 50 40 53 136h-106c3 -96 22 -136 53 -136zM188 445c-31 0 -49 -37 -53 -129h105c-3 92 -21 129 -52 129z" />
    <glyph glyph-name="uni0475" unicode="&#x475;" horiz-adv-x="374" 
d="M119 -2l-109 538h117l53 -348l29 187c21 137 72 163 147 163h11v-98h-1c-24 0 -40 -8 -53 -79l-73 -363h-121z" />
    <glyph glyph-name="uni0491" unicode="&#x491;" horiz-adv-x="273" 
d="M33 0v536h127v90h103v-201h-112v-425h-118z" />
    <glyph glyph-name="uni0454" unicode="&#x454;" horiz-adv-x="299" 
d="M253 320v-104l-113 1c4 -87 36 -115 76 -115c19 0 42 6 63 19v-112c-27 -13 -51 -19 -83 -19c-103 0 -173 89 -173 261v32c0 172 76 261 180 261c29 0 54 -5 75 -14v-116c-20 11 -41 18 -64 18c-39 0 -70 -29 -74 -114z" />
    <glyph glyph-name="uni0456" unicode="&#x456;" horiz-adv-x="186" 
d="M33 587v118h120v-118h-120zM34 0v536h118v-536h-118z" />
    <glyph glyph-name="uni0457" unicode="&#x457;" horiz-adv-x="186" 
d="M34 0v536h118v-536h-118zM112 578v108h106v-108h-106zM-30 578v108h106v-108h-106z" />
    <glyph glyph-name="uni0452" unicode="&#x452;" horiz-adv-x="376" 
d="M248 553h-97v-104c17 3 34 3 49 3c84 0 150 -30 150 -146v-303c0 -99 -48 -136 -128 -136c-19 0 -34 1 -47 4v93h13c31 0 44 11 44 48v280c0 39 -12 51 -47 51c-12 0 -23 -1 -34 -3v-340h-118v553h-60v90h60v62h118v-62h97v-90z" />
    <glyph glyph-name="uni0458" unicode="&#x458;" horiz-adv-x="186" 
d="M26 -133c-23 0 -31 1 -47 4v93h11c27 0 44 11 44 43v529h118v-539c0 -92 -47 -130 -126 -130zM33 587v118h120v-118h-120z" />
    <glyph glyph-name="uni0459" unicode="&#x459;" horiz-adv-x="562" 
d="M244 0v436h-2l-122 -436h-115l157 536h200v-155h1c99 0 186 -51 186 -185v-4c0 -124 -81 -192 -206 -192h-99zM362 97h3c39 0 66 32 66 91v3c0 63 -26 93 -65 93h-4v-187z" />
    <glyph glyph-name="uni045A" unicode="&#x45a;" horiz-adv-x="549" 
d="M349 536v-155h1c99 0 186 -51 186 -185v-4c0 -124 -81 -192 -206 -192h-99v215h-80v-215h-118v536h118v-210h80v210h118zM349 284v-187h3c39 0 66 32 66 91v3c0 63 -26 93 -65 93h-4z" />
    <glyph glyph-name="uni045B" unicode="&#x45b;" horiz-adv-x="376" 
d="M248 553h-97v-104c17 3 34 3 49 3c84 0 150 -30 150 -146v-306h-118v292c0 39 -12 51 -47 51c-12 0 -23 -1 -34 -3v-340h-118v553h-60v90h60v62h118v-62h97v-90z" />
    <glyph glyph-name="uni045F" unicode="&#x45f;" horiz-adv-x="386" 
d="M142 -98v98h-109v536h118v-425h84v425h118v-536h-108v-98h-103z" />
    <glyph glyph-name="uni045E" unicode="&#x45e;" horiz-adv-x="362" 
d="M179 220l56 316h116l-148 -666h-115v1l34 148l-111 517h117zM182 565c-63 0 -113 36 -118 119h70c4 -28 19 -47 48 -47s44 19 48 47h70c-5 -83 -55 -119 -118 -119z" />
    <glyph glyph-name="uni0453" unicode="&#x453;" horiz-adv-x="273" 
d="M33 0v536h230v-111h-112v-425h-118zM102 575l86 147l93 -49l-99 -98h-80z" />
    <glyph glyph-name="uni0455" unicode="&#x455;" horiz-adv-x="284" 
d="M126 -10c-35 0 -74 10 -109 25v116c40 -21 74 -35 101 -35c29 0 44 14 44 43v1c0 19 -8 39 -60 88c-55 53 -91 101 -91 169v2c0 89 60 145 152 145c33 0 57 -3 88 -14v-116c-25 13 -53 24 -81 24c-29 0 -45 -14 -45 -37v-1c0 -19 9 -35 64 -88c66 -63 87 -107 87 -168v-2
c0 -93 -65 -152 -150 -152z" />
    <glyph glyph-name="uni045C" unicode="&#x45c;" horiz-adv-x="365" 
d="M151 536v-211h16l69 211h126l-93 -258l91 -278h-128l-65 216h-16v-216h-118v536h118zM145 571l86 147l93 -49l-99 -98h-80z" />
    <glyph glyph-name="uni0450" unicode="&#x450;" horiz-adv-x="350" 
d="M204 -10c-100 0 -184 91 -184 264v26c0 172 74 264 163 264c93 0 152 -92 152 -269v-62h-197c7 -84 42 -113 81 -113c36 0 59 15 94 39l9 -108c-41 -27 -73 -41 -118 -41zM137 306h87c0 89 -14 133 -41 133s-43 -37 -46 -133zM149 580l-99 98l93 49l86 -147h-80z" />
    <glyph glyph-name="uni045D" unicode="&#x45d;" horiz-adv-x="385" 
d="M33 0v536h116v-271l93 271h110v-536h-116v271l-93 -271h-110zM162 571l-99 98l93 49l86 -147h-80z" />
    <glyph glyph-name="uni0493" unicode="&#x493;" horiz-adv-x="288" 
d="M48 0v214h-38v74h38v248h230v-111h-112v-137h56v-74h-56v-214h-118z" />
    <glyph glyph-name="uni0497" unicode="&#x497;" horiz-adv-x="557" 
d="M326 536l-4 -213h15l71 213h124l-94 -259l57 -171h54v-204h-103v98h-41l-68 218h-15l4 -218h-116l3 218h-15l-68 -218h-125l93 271l-94 265h125l69 -213h15l-3 213h116z" />
    <glyph glyph-name="uni0499" unicode="&#x499;" horiz-adv-x="291" 
d="M76 -98l4 91c-23 4 -43 9 -60 17v113c35 -19 61 -25 86 -25c36 0 54 19 54 57v1c0 41 -24 61 -80 61h-28v102h28c51 0 78 15 78 60v1c0 35 -15 56 -50 56c-25 0 -53 -10 -84 -27v110c32 15 67 25 106 25c88 0 142 -48 142 -144v-4c0 -67 -35 -106 -86 -125
c60 -21 88 -59 88 -128v-4c0 -75 -36 -121 -96 -140l5 -97h-107z" />
    <glyph glyph-name="uni049B" unicode="&#x49b;" horiz-adv-x="386" 
d="M151 536v-211h16l69 211h126l-93 -258l56 -172h53v-204h-103v98h-43l-65 216h-16v-216h-118v536h118z" />
    <glyph glyph-name="uni049D" unicode="&#x49d;" horiz-adv-x="411" 
d="M406 0h-120l-60 207l1 -133h-49l1 147h-29v-221h-117v536h117v-216h29l-1 154h49l-1 -143l64 205h118l-92 -259z" />
    <glyph glyph-name="uni04A1" unicode="&#x4a1;" horiz-adv-x="420" 
d="M12 431v105h194v-211h16l69 211h126l-93 -258l91 -278h-128l-65 216h-16v-216h-118v431h-76z" />
    <glyph glyph-name="uni04A3" unicode="&#x4a3;" horiz-adv-x="410" 
d="M295 -98v98h-60v215h-84v-215h-118v536h118v-210h84v210h118v-430h45v-204h-103z" />
    <glyph glyph-name="uni04A5" unicode="&#x4a5;" horiz-adv-x="464" 
d="M151 536v-210h80v210h223v-111h-105v-425h-118v215h-80v-215h-118v536h118z" />
    <glyph glyph-name="uni04AB" unicode="&#x4ab;" horiz-adv-x="286" 
d="M116 -98l5 104c-61 33 -98 116 -98 245v32c0 172 73 261 169 261c35 0 50 -3 74 -14v-121c-20 12 -38 20 -59 20c-37 0 -64 -39 -64 -144v-36c0 -104 27 -144 66 -144c17 0 38 10 58 23v-116c-19 -11 -32 -16 -49 -19l5 -91h-107z" />
    <glyph glyph-name="uni04AF" unicode="&#x4af;" horiz-adv-x="362" 
d="M240 -130h-118v137l-112 529h117l55 -337l55 337h115l-112 -529v-137z" />
    <glyph glyph-name="uni04B1" unicode="&#x4b1;" horiz-adv-x="362" 
d="M182 199l55 337h115l-98 -462h66v-74h-80v-130h-118v130h-80v74h66l-98 462h117z" />
    <glyph glyph-name="uni04B3" unicode="&#x4b3;" horiz-adv-x="366" 
d="M127 536l47 -160l47 160h120l-95 -261l59 -169h53v-204h-103v98h-36l-47 170l-47 -170h-122l97 275l-95 261h122z" />
    <glyph glyph-name="uni04B7" unicode="&#x4b7;" horiz-adv-x="400" 
d="M225 0v175c-17 -2 -34 -3 -49 -3c-84 0 -150 30 -150 146v218h118v-204c0 -39 12 -51 47 -51c11 0 23 1 34 3v252h118v-430h45v-204h-103v98h-60z" />
    <glyph glyph-name="uni04B9" unicode="&#x4b9;" horiz-adv-x="398" 
d="M220 66h-49l1 106c-99 1 -146 42 -146 151v213h117v-206c0 -29 5 -43 29 -47l-1 154h49l-1 -156l29 4v251h117v-536h-117v176c-11 -1 -20 -3 -29 -3z" />
    <glyph glyph-name="uni04BB" unicode="&#x4bb;" horiz-adv-x="379" 
d="M33 0v705h118v-233c21 41 48 74 95 74c68 0 103 -57 103 -140v-406h-118v379c0 39 -15 61 -39 61s-41 -22 -41 -61v-379h-118z" />
    <glyph glyph-name="uni04CF" unicode="&#x4cf;" horiz-adv-x="186" 
d="M34 0v705h118v-705h-118z" />
    <glyph glyph-name="uni04C2" unicode="&#x4c2;" horiz-adv-x="536" 
d="M326 536l-4 -213h15l71 213h124l-94 -259l93 -277h-126l-68 218h-15l4 -218h-116l3 218h-15l-68 -218h-125l93 271l-94 265h125l69 -213h15l-3 213h116zM268 569c-63 0 -113 36 -118 119h70c4 -28 19 -47 48 -47s44 19 48 47h70c-5 -83 -55 -119 -118 -119z" />
    <glyph glyph-name="uni04D1" unicode="&#x4d1;" horiz-adv-x="350" 
d="M115 -9c-60 0 -101 59 -101 158v17c0 120 48 170 119 170c24 0 48 -7 71 -20v32c0 56 -25 84 -75 84c-31 0 -62 -12 -89 -25v112c36 16 76 23 107 23c59 0 97 -14 126 -43c32 -32 48 -80 48 -143v-356h-118v57c-21 -44 -51 -66 -88 -66zM164 90c20 0 40 16 40 51v92
c-9 5 -26 11 -37 11c-24 0 -40 -20 -40 -71v-14c0 -53 16 -69 37 -69zM173 574c-63 0 -113 36 -118 119h70c4 -28 19 -47 48 -47s44 19 48 47h70c-5 -83 -55 -119 -118 -119z" />
    <glyph glyph-name="uni04D3" unicode="&#x4d3;" horiz-adv-x="350" 
d="M115 -9c-60 0 -101 59 -101 158v17c0 120 48 170 119 170c24 0 48 -7 71 -20v32c0 56 -25 84 -75 84c-31 0 -62 -12 -89 -25v112c36 16 76 23 107 23c59 0 97 -14 126 -43c32 -32 48 -80 48 -143v-356h-118v57c-21 -44 -51 -66 -88 -66zM164 90c20 0 40 16 40 51v92
c-9 5 -26 11 -37 11c-24 0 -40 -20 -40 -71v-14c0 -53 16 -69 37 -69zM191 583v108h106v-108h-106zM49 583v108h106v-108h-106z" />
    <glyph glyph-name="uni04D5" unicode="&#x4d5;" horiz-adv-x="531" 
d="M131 -9c-75 0 -117 59 -117 158v17c0 120 48 170 119 170c24 0 48 -7 71 -20v32c0 56 -27 84 -75 84c-31 0 -60 -12 -89 -25v112c36 16 65 23 112 23c56 0 92 -22 116 -59c23 39 55 61 96 61c93 0 152 -92 152 -269v-62h-197c7 -84 42 -113 81 -113c36 0 59 15 94 39
l9 -108c-41 -27 -73 -41 -118 -41c-63 0 -111 33 -140 101c-19 -59 -59 -100 -114 -100zM318 306h87c0 89 -14 133 -41 133s-43 -37 -46 -133zM169 90c19 0 44 21 56 69c-4 21 -7 45 -8 70c-15 9 -31 15 -50 15c-24 0 -40 -20 -40 -71v-14c0 -51 15 -69 42 -69z" />
    <glyph glyph-name="uni04D7" unicode="&#x4d7;" horiz-adv-x="350" 
d="M204 -10c-100 0 -184 91 -184 264v26c0 172 74 264 163 264c93 0 152 -92 152 -269v-62h-197c7 -84 42 -113 81 -113c36 0 59 15 94 39l9 -108c-41 -27 -73 -41 -118 -41zM137 306h87c0 89 -14 133 -41 133s-43 -37 -46 -133zM182 574c-63 0 -113 36 -118 119h70
c4 -28 19 -47 48 -47s44 19 48 47h70c-5 -83 -55 -119 -118 -119z" />
    <glyph glyph-name="uni04D9" unicode="&#x4d9;" horiz-adv-x="350" 
d="M146 544c100 0 184 -91 184 -264v-26c0 -172 -74 -264 -163 -264c-93 0 -152 92 -152 269v62h197c-7 84 -42 113 -81 113c-36 0 -59 -15 -94 -39l-9 108c41 27 73 41 118 41zM213 228h-87c0 -89 14 -133 41 -133s43 37 46 133z" />
    <glyph glyph-name="uni04DD" unicode="&#x4dd;" horiz-adv-x="536" 
d="M326 536l-4 -213h15l71 213h124l-94 -259l93 -277h-126l-68 218h-15l4 -218h-116l3 218h-15l-68 -218h-125l93 271l-94 265h125l69 -213h15l-3 213h116zM286 578v108h106v-108h-106zM144 578v108h106v-108h-106z" />
    <glyph glyph-name="uni04DF" unicode="&#x4df;" horiz-adv-x="291" 
d="M20 10v113c35 -19 61 -25 86 -25c36 0 54 19 54 57v1c0 41 -24 61 -80 61h-28v102h28c51 0 78 15 78 60v1c0 35 -15 56 -50 56c-25 0 -53 -10 -84 -27v110c32 15 67 25 106 25c88 0 142 -48 142 -144v-4c0 -67 -35 -106 -86 -125c60 -21 88 -59 88 -128v-4
c0 -96 -60 -149 -155 -149c-35 0 -71 8 -99 20zM166 583v108h106v-108h-106zM24 583v108h106v-108h-106z" />
    <glyph glyph-name="uni04E3" unicode="&#x4e3;" horiz-adv-x="385" 
d="M33 0v536h116v-271l93 271h110v-536h-116v271l-93 -271h-110zM79 574v78h232v-78h-232z" />
    <glyph glyph-name="uni04E5" unicode="&#x4e5;" horiz-adv-x="385" 
d="M33 0v536h116v-271l93 271h110v-536h-116v271l-93 -271h-110zM213 574v108h106v-108h-106zM71 574v108h106v-108h-106z" />
    <glyph glyph-name="uni04E7" unicode="&#x4e7;" horiz-adv-x="378" 
d="M189 -10c-96 0 -166 89 -166 261v32c0 172 70 261 166 261s166 -89 166 -261v-32c0 -172 -70 -261 -166 -261zM189 95c31 0 48 50 48 154v36c0 107 -17 154 -48 154s-48 -47 -48 -154v-36c0 -104 17 -154 48 -154zM208 583v108h106v-108h-106zM66 583v108h106v-108h-106z
" />
    <glyph glyph-name="uni04E9" unicode="&#x4e9;" horiz-adv-x="376" 
d="M188 -10c-96 0 -165 89 -165 262v30c0 173 69 262 165 262s165 -89 165 -262v-30c0 -173 -69 -262 -165 -262zM188 89c31 0 50 40 53 136h-106c3 -96 22 -136 53 -136zM188 445c-31 0 -49 -37 -53 -129h105c-3 92 -21 129 -52 129z" />
    <glyph glyph-name="uni04EF" unicode="&#x4ef;" horiz-adv-x="362" 
d="M179 220l56 316h116l-148 -666h-115v1l34 148l-111 517h117zM66 574v78h232v-78h-232z" />
    <glyph glyph-name="uni04F1" unicode="&#x4f1;" horiz-adv-x="362" 
d="M179 220l56 316h116l-148 -666h-115v1l34 148l-111 517h117zM200 574v108h106v-108h-106zM58 574v108h106v-108h-106z" />
    <glyph glyph-name="uni04F3" unicode="&#x4f3;" horiz-adv-x="362" 
d="M179 220l56 316h116l-148 -666h-115v1l34 148l-111 517h117zM81 571l86 147l83 -47l28 47l85 -48l-96 -99h-75l55 93l-91 -93h-75z" />
    <glyph glyph-name="uni04F5" unicode="&#x4f5;" horiz-adv-x="376" 
d="M225 0v175c-17 -2 -34 -3 -49 -3c-84 0 -150 30 -150 146v218h118v-204c0 -39 12 -51 47 -51c11 0 23 1 34 3v252h118v-536h-118zM203 574v108h106v-108h-106zM61 574v108h106v-108h-106z" />
    <glyph glyph-name="uni04F9" unicode="&#x4f9;" horiz-adv-x="526" 
d="M151 536v-155h1c96 0 188 -47 188 -185v-4c0 -124 -80 -192 -208 -192h-99v536h118zM151 284v-187h5c39 0 66 32 66 91v3c0 63 -26 93 -65 93h-6zM375 0v536h118v-536h-118zM281 578v108h106v-108h-106zM139 578v108h106v-108h-106z" />
    <glyph glyph-name="zero" unicode="0" horiz-adv-x="394" 
d="M197 -10c-113 0 -173 98 -173 341v38c0 242 60 341 173 341c111 0 173 -99 173 -341v-38c0 -243 -62 -341 -173 -341zM197 102c28 0 52 32 52 230v36c0 198 -24 230 -52 230c-29 0 -53 -32 -53 -230v-36c0 -198 24 -230 53 -230z" />
    <glyph glyph-name="one" unicode="1" horiz-adv-x="253" 
d="M87 0v571l-73 -23v123l108 34h87v-705h-122z" />
    <glyph glyph-name="two" unicode="2" horiz-adv-x="332" 
d="M21 0v103l127 268c40 86 51 121 51 154c0 35 -20 67 -67 67c-37 0 -69 -15 -97 -34v118c33 17 72 34 125 34c96 0 158 -60 158 -164v-5c0 -55 -13 -108 -54 -191l-113 -230h164v-120h-294z" />
    <glyph glyph-name="three" unicode="3" horiz-adv-x="328" 
d="M118 -10c-43 0 -75 7 -104 19v116c29 -12 51 -19 88 -19c49 0 87 36 87 100v8c0 73 -47 103 -122 108v80l114 179h-158v119h282v-109l-118 -183c71 -24 122 -74 122 -185v-11c0 -138 -82 -222 -191 -222z" />
    <glyph glyph-name="three.alt" horiz-adv-x="328" 
d="M120 -10c-43 0 -75 7 -106 19v116c29 -13 57 -19 82 -19c60 0 95 39 95 100v3c0 64 -42 100 -122 103v101h1c71 7 120 46 119 107v2c0 45 -30 73 -75 73c-33 0 -59 -11 -90 -27v113c35 17 67 29 114 29c92 0 169 -57 169 -174v-4c0 -84 -48 -137 -99 -161
c58 -24 103 -74 103 -168v-5c0 -132 -83 -208 -191 -208z" />
    <glyph glyph-name="four" unicode="4" horiz-adv-x="386" 
d="M204 0v129h-190v93l184 480h120v-468h57v-105h-57v-129h-114zM113 234h91v256z" />
    <glyph glyph-name="five" unicode="5" horiz-adv-x="333" 
d="M122 -10c-35 0 -70 8 -93 19v119c23 -12 53 -21 80 -21c57 0 89 46 89 122v7c0 75 -27 100 -67 100c-19 0 -31 -3 -48 -10l-59 39l19 335h249v-116h-159l-9 -142c13 3 27 5 47 5c75 0 147 -54 147 -210v-9c0 -152 -80 -238 -196 -238z" />
    <glyph glyph-name="six" unicode="6" horiz-adv-x="368" 
d="M188 -10c-39 0 -68 10 -95 37c-47 47 -69 138 -69 290v26c0 289 82 367 197 367c37 0 61 -7 84 -16v-115c-19 11 -46 21 -71 21c-55 0 -94 -38 -94 -177c25 21 46 30 79 30c64 0 131 -49 131 -204v-21c0 -144 -68 -238 -162 -238zM189 99c31 0 47 37 47 124v22
c0 80 -23 107 -52 107c-20 0 -32 -7 -43 -18v-86c0 -108 19 -149 48 -149z" />
    <glyph glyph-name="seven" unicode="7" horiz-adv-x="331" 
d="M57 0l133 577h-175v123h292v-86l-131 -614h-119z" />
    <glyph glyph-name="eight" unicode="8" horiz-adv-x="372" 
d="M186 -10c-96 0 -166 76 -166 204v7c0 92 44 147 81 174c-45 29 -71 80 -71 149v6c0 112 71 180 156 180s156 -68 156 -180v-6c0 -69 -26 -120 -71 -149c37 -27 81 -82 81 -174v-7c0 -128 -70 -204 -166 -204zM186 412c27 0 44 32 44 100v6c0 73 -20 96 -44 96
s-44 -23 -44 -96v-6c0 -68 17 -100 44 -100zM186 87c28 0 49 28 49 113v7c0 81 -21 111 -49 111s-49 -30 -49 -111v-7c0 -85 21 -113 49 -113z" />
    <glyph glyph-name="nine" unicode="9" horiz-adv-x="368" 
d="M134 100c52 0 91 38 94 168c-25 -21 -48 -29 -79 -29c-67 0 -131 51 -131 211v16c0 151 68 244 162 244c39 0 68 -10 95 -37c47 -47 69 -138 69 -290v-26c0 -289 -83 -367 -197 -367c-37 0 -66 8 -94 19v115c25 -13 54 -24 81 -24zM184 340c19 0 32 7 43 18v94
c0 108 -19 149 -48 149c-31 0 -47 -37 -47 -130v-17c0 -87 20 -114 52 -114z" />
    <glyph glyph-name="period" unicode="." horiz-adv-x="218" 
d="M40 0v139h138v-139h-138z" />
    <glyph glyph-name="comma" unicode="," horiz-adv-x="218" 
d="M28 -162l-10 49c74 16 89 69 84 113h-62v139h138v-114c0 -107 -50 -174 -150 -187z" />
    <glyph glyph-name="colon" unicode=":" horiz-adv-x="228" 
d="M45 397v139h138v-139h-138zM45 0v139h138v-139h-138z" />
    <glyph glyph-name="semicolon" unicode=";" horiz-adv-x="228" 
d="M45 397v139h138v-139h-138zM33 -162l-10 49c74 16 89 69 84 113h-62v139h138v-114c0 -107 -50 -174 -150 -187z" />
    <glyph glyph-name="ellipsis" unicode="&#x2026;" horiz-adv-x="734" 
d="M546 0v139h138v-139h-138zM298 0v139h138v-139h-138zM50 0v139h138v-139h-138z" />
    <glyph glyph-name="periodcentered" unicode="&#xb7;" horiz-adv-x="218" 
d="M40 240v139h138v-139h-138z" />
    <glyph glyph-name="ampersand" unicode="&#x26;" horiz-adv-x="434" 
d="M345 -13l-34 62c-33 -37 -69 -59 -130 -59c-91 0 -168 74 -168 189v6c0 85 39 147 107 206c-39 64 -59 110 -59 159v7c0 84 58 153 145 153c85 0 141 -61 141 -152v-7c0 -80 -38 -136 -99 -188l63 -120c5 23 8 51 15 94l94 -17c-9 -80 -25 -135 -45 -180l58 -99zM200 445
c31 31 43 66 43 103v8c0 35 -16 56 -39 56c-24 0 -39 -21 -39 -52v-10c0 -28 11 -58 35 -105zM196 96c27 0 46 12 63 33l-88 174c-27 -32 -41 -74 -41 -109v-8c0 -55 26 -90 66 -90z" />
    <glyph glyph-name="exclam" unicode="!" horiz-adv-x="222" 
d="M81 218l-42 462v20h144v-20l-42 -462h-60zM42 0v139h138v-139h-138z" />
    <glyph glyph-name="exclamdown" unicode="&#xa1;" horiz-adv-x="222" 
d="M42 561v139h138v-139h-138zM39 0v20l42 462h60l42 -462v-20h-144z" />
    <glyph glyph-name="question" unicode="?" horiz-adv-x="320" 
d="M97 218l-11 175l4 5c57 19 96 57 96 114v2c0 47 -34 79 -81 79c-35 0 -62 -9 -85 -24v110c31 15 61 26 109 26c106 0 177 -76 177 -179v-9c0 -98 -55 -152 -117 -179l-12 -120h-80zM70 0v139h138v-139h-138z" />
    <glyph glyph-name="questiondown" unicode="&#xbf;" horiz-adv-x="320" 
d="M112 561v139h138v-139h-138zM191 -5c-107 0 -177 76 -177 179v9c0 100 55 149 117 179l12 120h80l11 -175l-4 -5c-57 -19 -96 -57 -96 -114v-2c0 -47 34 -79 81 -79c35 0 62 9 85 24v-110c-31 -15 -61 -26 -109 -26z" />
    <glyph glyph-name="quotedblleft" unicode="&#x201c;" horiz-adv-x="415" 
d="M230 402v114c0 107 50 174 150 187l10 -49c-73 -16 -89 -70 -84 -113h62v-139h-138zM40 402v114c0 107 50 174 150 187l10 -49c-73 -16 -89 -70 -84 -113h62v-139h-138z" />
    <glyph glyph-name="quotedblright" unicode="&#x201d;" horiz-adv-x="415" 
d="M225 399l-10 49c74 16 89 69 84 113h-62v139h138v-114c0 -107 -50 -174 -150 -187zM35 399l-10 49c74 16 89 69 84 113h-62v139h138v-114c0 -107 -50 -174 -150 -187z" />
    <glyph glyph-name="quoteleft" unicode="&#x2018;" horiz-adv-x="225" 
d="M40 402v114c0 107 50 174 150 187l10 -49c-73 -16 -89 -70 -84 -113h62v-139h-138z" />
    <glyph glyph-name="quoteright" unicode="&#x2019;" horiz-adv-x="225" 
d="M35 399l-10 49c74 16 89 69 84 113h-62v139h138v-114c0 -107 -50 -174 -150 -187z" />
    <glyph glyph-name="quotedblbase" unicode="&#x201e;" horiz-adv-x="408" 
d="M218 -162l-10 49c74 16 89 69 84 113h-62v139h138v-114c0 -107 -50 -174 -150 -187zM28 -162l-10 49c74 16 89 69 84 113h-62v139h138v-114c0 -107 -50 -174 -150 -187z" />
    <glyph glyph-name="quotesinglbase" unicode="&#x201a;" horiz-adv-x="218" 
d="M28 -162l-10 49c74 16 89 69 84 113h-62v139h138v-114c0 -107 -50 -174 -150 -187z" />
    <glyph glyph-name="guillemotleft" unicode="&#xab;" horiz-adv-x="454" 
d="M350 43l-144 221v8l144 221l82 -48l-98 -176l101 -176zM167 43l-144 221v8l144 221l82 -48l-98 -176l101 -176z" />
    <glyph glyph-name="guillemotright" unicode="&#xbb;" horiz-adv-x="454" 
d="M287 43l-82 48l98 176l-101 176l85 50l144 -221v-8zM104 43l-82 48l98 176l-101 176l85 50l144 -221v-8z" />
    <glyph glyph-name="guilsinglleft" unicode="&#x2039;" horiz-adv-x="271" 
d="M167 43l-144 221v8l144 221l82 -48l-98 -176l101 -176z" />
    <glyph glyph-name="guilsinglright" unicode="&#x203a;" horiz-adv-x="271" 
d="M104 43l-82 48l98 176l-101 176l85 50l144 -221v-8z" />
    <glyph glyph-name="hyphen" unicode="-" horiz-adv-x="336" 
d="M39 250v120h258v-120h-258z" />
    <glyph glyph-name="endash" unicode="&#x2013;" horiz-adv-x="456" 
d="M39 251v118h378v-118h-378z" />
    <glyph glyph-name="emdash" unicode="&#x2014;" horiz-adv-x="674" 
d="M39 251v118h596v-118h-596z" />
    <glyph glyph-name="underscore" unicode="_" horiz-adv-x="452" 
d="M-2 -151v92h456v-92h-456z" />
    <glyph glyph-name="slash" unicode="/" horiz-adv-x="308" 
d="M-9 -98l219 866h99l-219 -866h-99z" />
    <glyph glyph-name="backslash" unicode="\" horiz-adv-x="308" 
d="M218 -98l-219 866h99l219 -866h-99z" />
    <glyph glyph-name="bar" unicode="|" horiz-adv-x="249" 
d="M78 -98v866h93v-866h-93z" />
    <glyph glyph-name="parenleft" unicode="(" horiz-adv-x="299" 
d="M272 -51v-88c-167 48 -230 223 -230 427v1c0 201 63 377 230 425v-88c-86 -46 -117 -175 -117 -338v-1c0 -161 31 -295 117 -338z" />
    <glyph glyph-name="parenright" unicode=")" horiz-adv-x="299" 
d="M27 -139v88c86 46 117 175 117 339v1c0 161 -31 291 -117 337v88c167 -48 230 -225 230 -426v-1c0 -203 -63 -378 -230 -426z" />
    <glyph glyph-name="bracketleft" unicode="[" horiz-adv-x="286" 
d="M62 -130v830h196v-84h-93v-662h93v-84h-196z" />
    <glyph glyph-name="bracketright" unicode="]" horiz-adv-x="286" 
d="M28 -130v84h93v662h-93v84h196v-830h-196z" />
    <glyph glyph-name="braceleft" unicode="{" horiz-adv-x="311" 
d="M281 -61v-80c-125 3 -186 70 -186 163c0 51 27 81 27 139c0 51 -31 78 -79 78h-19v96h19c47 0 79 27 79 78c0 58 -27 88 -27 139c0 93 61 160 186 163v-80c-41 0 -83 -29 -83 -79c0 -61 31 -90 31 -145c0 -72 -51 -113 -119 -124c68 -11 119 -51 119 -124
c0 -55 -31 -84 -31 -145c0 -50 42 -79 83 -79z" />
    <glyph glyph-name="braceright" unicode="}" horiz-adv-x="311" 
d="M30 -141v80c41 0 83 29 83 79c0 61 -31 90 -31 145c0 72 51 113 119 124c-68 11 -119 51 -119 124c0 55 31 84 31 145c0 50 -42 79 -83 79v80c125 -3 186 -70 186 -163c0 -51 -27 -81 -27 -139c0 -51 31 -78 79 -78h19v-96h-19c-47 0 -79 -27 -79 -78
c0 -58 27 -88 27 -139c0 -93 -61 -160 -186 -163z" />
    <glyph glyph-name="at" unicode="@" horiz-adv-x="636" 
d="M298 -137c-152 0 -274 116 -271 352c0 253 126 496 334 496c148 0 246 -140 246 -305c0 -169 -56 -338 -168 -338c-64 0 -92 36 -99 81c-27 -47 -57 -77 -98 -77c-47 0 -85 39 -85 120c0 164 67 315 147 315c43 0 63 -32 72 -64l10 56l96 -16l-44 -254
c-4 -23 -7 -40 -7 -67c0 -32 11 -45 31 -45c54 0 101 140 101 294c0 139 -76 258 -207 258c-173 0 -285 -230 -285 -459c0 -199 94 -306 232 -306c51 0 99 11 146 39l21 -35c-55 -33 -103 -45 -172 -45zM285 156c7 0 13 3 20 10c34 34 51 153 51 203c0 33 -11 45 -28 45
c-7 0 -13 -3 -20 -10c-34 -34 -51 -153 -51 -203c0 -33 11 -45 28 -45z" />
    <glyph glyph-name="copyright" unicode="&#xa9;" horiz-adv-x="522" 
d="M261 -10c-140 0 -237 132 -237 343v34c0 211 97 343 237 343s237 -132 237 -343v-34c0 -211 -97 -343 -237 -343zM261 26c124 0 199 122 199 306v36c0 184 -75 306 -199 306s-199 -122 -199 -306v-36c0 -184 75 -306 199 -306zM272 151c-61 0 -109 57 -109 191v18
c0 135 50 191 113 191c19 0 29 -2 44 -9v-72c-15 8 -25 13 -37 13c-30 0 -50 -26 -50 -122v-20c0 -100 20 -122 51 -122c11 0 24 4 37 13v-69c-15 -9 -30 -12 -49 -12z" />
    <glyph glyph-name="published" unicode="&#x2117;" horiz-adv-x="522" 
d="M261 -10c-140 0 -237 132 -237 343v34c0 211 97 343 237 343s237 -132 237 -343v-34c0 -211 -97 -343 -237 -343zM261 26c124 0 199 122 199 306v36c0 184 -75 306 -199 306s-199 -122 -199 -306v-36c0 -184 75 -306 199 -306zM187 164v385h60c73 0 124 -38 124 -129v-2
c0 -88 -48 -128 -116 -133h-1v-121h-67zM254 347h1c28 3 49 22 49 69v1c0 49 -17 70 -48 70h-2v-140z" />
    <glyph glyph-name="registered.alt" horiz-adv-x="522" 
d="M261 -10c-140 0 -237 132 -237 343v34c0 211 97 343 237 343s237 -132 237 -343v-34c0 -211 -97 -343 -237 -343zM261 26c124 0 199 122 199 306v36c0 184 -75 306 -199 306s-199 -122 -199 -306v-36c0 -184 75 -306 199 -306zM171 164v385h70c35 0 66 -10 86 -30
c21 -21 32 -52 32 -93v-5c0 -51 -18 -82 -45 -101l52 -156h-71l-44 134h-13v-134h-67zM238 359h4c29 0 50 17 50 62v4c0 49 -23 61 -52 61h-2v-127z" />
    <glyph glyph-name="registered" unicode="&#xae;" horiz-adv-x="312" 
d="M156 355c-76 0 -127 68 -127 173v16c0 105 51 173 127 173s127 -68 127 -173v-16c0 -105 -51 -173 -127 -173zM156 378c64 0 102 61 102 150v16c0 89 -38 150 -102 150s-102 -61 -102 -150v-16c0 -89 38 -150 102 -150zM108 443v192h41c39 0 62 -21 62 -61v-3
c0 -25 -11 -42 -26 -51l29 -77h-37l-25 66h-10v-66h-34zM142 540h7c15 0 26 10 26 31v2c0 24 -12 30 -27 30h-6v-63z" />
    <glyph glyph-name="servicemark" unicode="&#x2120;" horiz-adv-x="441" 
d="M198 385v315h67l36 -105l36 105h67v-315h-62v191l-41 -120h-1l-39 120v-191h-63zM81 383c-25 0 -45 5 -62 14v65c19 -11 38 -19 55 -19c15 0 25 8 25 23s-4 23 -27 46c-39 36 -58 59 -58 104c0 53 36 86 83 86c23 0 42 -3 55 -10v-66c-17 10 -33 15 -48 15
c-13 0 -24 -9 -24 -22c0 -15 4 -21 27 -44c43 -43 58 -66 58 -106c0 -52 -39 -86 -84 -86z" />
    <glyph glyph-name="trademark" unicode="&#x2122;" horiz-adv-x="431" 
d="M188 385v315h67l36 -105l36 105h67v-315h-62v191l-41 -120h-1l-39 120v-191h-63zM54 385v253h-39v62h142v-62h-39v-253h-64z" />
    <glyph glyph-name="asterisk" unicode="*" horiz-adv-x="298" 
d="M109 394l18 112l-74 -66l-40 70l91 37l-91 37l40 70l74 -66l-18 112h80l-18 -112l74 66l40 -70l-91 -37l91 -37l-40 -70l-74 66l18 -112h-80z" />
    <glyph glyph-name="dagger" unicode="&#x2020;" horiz-adv-x="238" 
d="M79 238l13 272l-74 -10v79l73 -11l-15 132h86l-15 -132l73 11v-79l-74 10l13 -272h-80z" />
    <glyph glyph-name="daggerdbl" unicode="&#x2021;" horiz-adv-x="248" 
d="M81 0l15 131l-73 -10v79l74 -11l-15 161l15 160l-74 -10v79l73 -11l-15 132h86l-15 -132l73 11v-79l-74 10l14 -160l-14 -161l74 11v-79l-73 10l15 -131h-86z" />
    <glyph glyph-name="bullet" unicode="&#x2022;" horiz-adv-x="351" 
d="M175 203c-64 0 -111 47 -111 142v18c0 95 47 142 111 142s111 -47 111 -142v-18c0 -95 -47 -142 -111 -142z" />
    <glyph glyph-name="dollar" unicode="$" horiz-adv-x="350" 
d="M303 683v-125c-39 23 -61 32 -93 32h-1c-32 0 -63 -22 -62 -63v-1c0 -27 10 -49 68 -115v-1c96 -110 117 -157 117 -232v-1c0 -88 -49 -151 -118 -174v-110h-79v103c-39 3 -71 13 -100 28v125c43 -25 71 -39 108 -39h1c37 0 67 22 66 69v1c0 22 -8 54 -67 119v1
c-85 91 -118 144 -118 223v1c0 84 42 147 110 171v79h79v-70c37 -3 65 -10 89 -21z" />
    <glyph glyph-name="sterling" unicode="&#xa3;" horiz-adv-x="350" 
d="M22 0v81l49 24v175h-46v111h46v111c0 76 14 125 51 162c27 27 69 44 118 44c35 0 57 -4 76 -9v-120c-15 5 -34 10 -55 10c-20 0 -36 -6 -48 -18c-16 -16 -20 -41 -20 -68v-112h96v-111h-96v-169h142v-111h-313z" />
    <glyph glyph-name="Euro" unicode="&#x20ac;" horiz-adv-x="379" 
d="M354 694v-126c-25 15 -45 23 -68 23c-40 0 -71 -28 -86 -113h101v-90h-108v-24v-28v-20h108v-90h-102c13 -92 46 -118 89 -117c21 0 43 7 68 22v-120c-28 -16 -55 -21 -90 -21c-94 0 -167 71 -191 236h-60v90h54v21v26v25h-54v90h62c24 161 102 233 197 232
c35 0 53 -4 80 -16z" />
    <glyph glyph-name="yen" unicode="&#xa5;" horiz-adv-x="402" 
d="M55 249v92h65l-110 359h122l70 -285l71 285h119l-110 -359h65v-92h-87v-60h87v-92h-87v-97h-118v97h-87v92h87v60h-87z" />
    <glyph glyph-name="cent" unicode="&#xa2;" horiz-adv-x="300" 
d="M214 705v-77c21 -1 35 -5 54 -13v-121c-20 12 -38 20 -59 20c-37 0 -64 -39 -64 -144v-36c0 -104 27 -144 66 -144c17 0 38 10 58 23v-116c-20 -11 -36 -18 -55 -21v-82h-79v91c-68 29 -110 112 -110 251v32c0 136 43 217 110 248v89h79z" />
    <glyph glyph-name="numbersign" unicode="#" horiz-adv-x="377" 
d="M346 268v-108h-67l-15 -160h-77l15 160h-64l-15 -160h-77l15 160h-48v108h59l16 168h-57v108h67l15 156h77l-15 -156h64l15 156h77l-15 -156h48v-108h-58l-16 -168h56zM164 436l-16 -168h64l16 168h-64z" />
    <glyph glyph-name="paragraph" unicode="&#xb6;" horiz-adv-x="360" 
d="M197 0v224h-1c-88 11 -182 80 -182 238v2c0 172 103 236 231 236h74v-700h-122z" />
    <glyph glyph-name="section" unicode="&#xa7;" horiz-adv-x="409" 
d="M309 222c21 -25 32 -55 32 -88v-1c0 -87 -65 -143 -156 -143c-40 0 -65 6 -93 17v112c34 -15 63 -23 86 -23c31 0 48 17 48 37v1c0 27 -19 41 -87 79c-65 38 -122 71 -122 147v2c0 47 29 93 84 116c-21 25 -32 55 -32 88v1c0 87 65 143 156 143c40 0 65 -6 93 -17v-112
c-34 15 -63 23 -86 23c-31 0 -48 -17 -48 -37v-1c0 -27 19 -41 87 -79c65 -38 122 -71 122 -147v-2c0 -47 -29 -93 -84 -116zM239 279l13 -7c21 17 27 38 27 51v2c0 21 -9 43 -108 96l-13 7c-21 -17 -27 -38 -27 -51v-2c0 -21 9 -43 108 -96z" />
    <glyph glyph-name="ordfeminine" unicode="&#xaa;" horiz-adv-x="250" 
d="M93 402c-32 0 -56 32 -56 87v9c0 67 26 93 65 93c13 0 27 -4 40 -11v17c0 31 -14 46 -42 46c-16 0 -33 -7 -49 -14v62c20 9 37 13 62 13c33 0 58 -10 73 -31c13 -17 20 -41 20 -72v-194h-65v32c-13 -25 -29 -37 -48 -37zM32 302v48h186v-48h-186zM120 457
c11 0 22 9 22 28v50c-5 3 -14 6 -21 6c-13 0 -22 -11 -22 -39v-7c0 -29 9 -38 21 -38z" />
    <glyph glyph-name="ordmasculine" unicode="&#xba;" horiz-adv-x="250" 
d="M125 401c-53 0 -91 48 -91 143v18c0 95 38 143 91 143s91 -48 91 -143v-18c0 -95 -38 -143 -91 -143zM35 302v48h180v-48h-180zM125 458c17 0 26 28 26 85v20c0 57 -9 85 -26 85s-26 -28 -26 -85v-20c0 -57 9 -85 26 -85z" />
    <glyph glyph-name="degree" unicode="&#xb0;" horiz-adv-x="274" 
d="M137 362c-68 0 -112 67 -112 166v12c0 99 44 166 112 166s112 -67 112 -166v-12c0 -99 -44 -166 -112 -166zM137 438c20 0 35 22 35 90v12c0 68 -15 90 -35 90s-35 -22 -35 -90v-12c0 -68 15 -90 35 -90z" />
    <glyph glyph-name="percent" unicode="%" horiz-adv-x="570" 
d="M137 332c-68 0 -112 67 -112 176v22c0 109 44 176 112 176s112 -67 112 -176v-22c0 -109 -44 -176 -112 -176zM137 625c-19 0 -30 -21 -30 -96v-20c0 -75 11 -96 30 -96s30 21 30 96v20c0 75 -11 96 -30 96zM258 364l156 336h71l-171 -364l-156 -336h-71zM433 -6
c-68 0 -112 67 -112 176v22c0 109 44 176 112 176s112 -67 112 -176v-22c0 -109 -44 -176 -112 -176zM433 75c19 0 30 21 30 96v20c0 75 -11 96 -30 96s-30 -21 -30 -96v-20c0 -75 11 -96 30 -96z" />
    <glyph glyph-name="perthousand" unicode="&#x2030;" horiz-adv-x="829" 
d="M137 413c19 0 30 21 30 96v20c0 75 -11 96 -30 96s-30 -21 -30 -96v-20c0 -75 11 -96 30 -96zM137 332c-68 0 -112 67 -112 176v22c0 109 44 176 112 176s112 -67 112 -176v-22c0 -109 -44 -176 -112 -176zM485 700l-171 -364l-156 -336h-71l171 364l156 336h71zM433 75
c19 0 30 21 30 96v20c0 75 -11 96 -30 96s-30 -21 -30 -96v-20c0 -75 11 -96 30 -96zM433 -6c-68 0 -112 67 -112 176v22c0 109 44 176 112 176s112 -67 112 -176v-22c0 -109 -44 -176 -112 -176zM692 75c19 0 30 21 30 96v20c0 75 -11 96 -30 96s-30 -21 -30 -96v-20
c0 -75 11 -96 30 -96zM692 -6c-68 0 -112 67 -112 176v22c0 109 44 176 112 176s112 -67 112 -176v-22c0 -109 -44 -176 -112 -176z" />
    <glyph glyph-name="quotedbl" unicode="&#x22;" horiz-adv-x="345" 
d="M210 381v319h120v-9l-76 -310h-44zM45 381v319h120v-9l-76 -310h-44z" />
    <glyph glyph-name="quotesingle" unicode="'" horiz-adv-x="180" 
d="M45 381v319h120v-9l-76 -310h-44z" />
    <glyph glyph-name="plus" unicode="+" horiz-adv-x="380" 
d="M135 173v122h-113v114h113v122h110v-122h113v-114h-113v-122h-110z" />
    <glyph glyph-name="minus" unicode="&#x2212;" horiz-adv-x="380" 
d="M356 292h-332v120h332v-120z" />
    <glyph glyph-name="divide" unicode="&#xf7;" horiz-adv-x="380" 
d="M133 458v116h114v-116h-114zM356 297h-332v110h332v-110zM133 130v116h114v-116h-114z" />
    <glyph glyph-name="equal" unicode="=" horiz-adv-x="380" 
d="M24 388v120h332v-120h-332zM24 196v120h332v-120h-332z" />
    <glyph glyph-name="multiply" unicode="&#xd7;" horiz-adv-x="380" 
d="M277 169l-87 102l-88 -102l-86 70l102 113l-102 113l87 70l87 -102l88 102l86 -70l-102 -113l102 -113z" />
    <glyph glyph-name="less" unicode="&#x3c;" horiz-adv-x="380" 
d="M346 106l-317 192v108l317 192v-141l-193 -104l193 -104v-143z" />
    <glyph glyph-name="greater" unicode="&#x3e;" horiz-adv-x="380" 
d="M34 106v141l192 104l-192 104v143l317 -192v-108z" />
    <glyph glyph-name="plusminus" unicode="&#xb1;" horiz-adv-x="380" 
d="M358 295h-113v-122h-110v122h-113v114h113v122h110v-122h113v-114zM356 0h-332v107h332v-107z" />
    <glyph glyph-name="zero.sup" unicode="&#x2070;" 
d="M120 456c-71 0 -100 55 -100 172v16c0 117 29 172 100 172s100 -55 100 -172v-16c0 -117 -29 -172 -100 -172zM120 747c-19 0 -26 -21 -26 -106v-10c0 -85 7 -106 26 -106s26 21 26 106v10c0 85 -7 106 -26 106z" />
    <glyph glyph-name="one.sup" unicode="&#xb9;" horiz-adv-x="195" 
d="M149 461h-79v271l-52 -24v75l75 31h56v-353z" />
    <glyph glyph-name="one.sup_alt" 
d="M224 461h-189v66h61v208l-59 -24v73l79 30h56v-287h52v-66z" />
    <glyph glyph-name="two.sup" unicode="&#xb2;" 
d="M28 461v64l75 115c23 35 34 51 34 71s-13 33 -34 33s-41 -11 -68 -40v78c19 19 46 34 82 34c56 0 98 -33 98 -94c0 -24 -5 -51 -36 -98l-60 -91h94v-72h-185z" />
    <glyph glyph-name="three.sup" unicode="&#xb3;" 
d="M106 456c-39 0 -64 14 -77 25v72c15 -13 40 -28 67 -28c31 0 47 14 47 43c0 27 -25 41 -76 42h-2l-1 52l61 79h-94v70h186v-56l-74 -89c43 -11 77 -37 77 -96c0 -72 -47 -114 -114 -114z" />
    <glyph glyph-name="four.sup" unicode="&#x2074;" 
d="M201 525v-64h-68v64h-117v66l84 222h101v-223h27v-65h-27zM137 590v140h-7l-53 -140h60z" />
    <glyph glyph-name="five.sup" unicode="&#x2075;" 
d="M105 456c-32 0 -61 10 -78 25v72c17 -15 41 -28 68 -28c29 0 49 19 49 50c0 27 -18 41 -42 41c-13 0 -24 -4 -35 -8l-43 19l15 184h166v-69h-107c-1 -20 -4 -42 -5 -61c10 2 20 3 29 3c51 0 99 -31 99 -107c0 -77 -55 -121 -116 -121z" />
    <glyph glyph-name="six.sup" unicode="&#x2076;" 
d="M122 456c-23 0 -44 7 -61 24c-25 23 -39 68 -39 140v13c0 139 51 183 119 183c25 0 44 -7 57 -15l-4 -73c-12 9 -29 20 -48 20c-27 0 -45 -21 -48 -68c11 7 21 13 44 13c37 0 79 -25 79 -113c0 -80 -44 -124 -99 -124zM123 523c15 0 27 13 27 53s-11 53 -30 53
c-10 0 -18 -3 -23 -10v-31c0 -47 7 -65 26 -65z" />
    <glyph glyph-name="seven.sup" unicode="&#x2077;" 
d="M120 461h-78l91 278h-109v72h189v-53z" />
    <glyph glyph-name="eight.sup" unicode="&#x2078;" 
d="M120 456c-64 0 -106 39 -106 102c0 47 22 73 45 88c-23 15 -38 41 -38 76c0 60 42 94 99 94s99 -34 99 -94c0 -35 -15 -61 -38 -76c23 -15 45 -41 45 -88c0 -63 -42 -102 -106 -102zM120 761c-19 0 -29 -14 -29 -43c0 -28 10 -42 29 -42s29 14 29 42c0 29 -10 43 -29 43z
M120 615c-21 0 -32 -17 -32 -52c0 -34 11 -51 32 -51s32 17 32 51c0 35 -11 52 -32 52z" />
    <glyph glyph-name="nine.sup" unicode="&#x2079;" 
d="M118 816c23 0 44 -7 61 -24c25 -23 39 -68 39 -140v-13c0 -139 -51 -183 -119 -183c-23 0 -41 7 -61 18v73c15 -12 35 -23 56 -23c27 0 45 18 48 65c-11 -7 -21 -13 -44 -13c-37 0 -79 26 -79 114c0 81 44 126 99 126zM120 640c10 0 18 3 23 10v32c0 48 -7 67 -26 67
c-15 0 -27 -14 -27 -55s11 -54 30 -54z" />
    <glyph glyph-name="zero.inf" unicode="&#x2080;" 
d="M120 -136c-71 0 -100 55 -100 172v16c0 117 29 172 100 172s100 -55 100 -172v-16c0 -117 -29 -172 -100 -172zM120 155c-19 0 -26 -21 -26 -106v-10c0 -85 7 -106 26 -106s26 21 26 106v10c0 85 -7 106 -26 106z" />
    <glyph glyph-name="one.inf" unicode="&#x2081;" horiz-adv-x="195" 
d="M149 -131h-79v271l-52 -24v75l75 31h56v-353z" />
    <glyph glyph-name="one.inf_alt" 
d="M224 -131h-189v66h61v208l-59 -24v73l79 30h56v-287h52v-66z" />
    <glyph glyph-name="two.inf" unicode="&#x2082;" 
d="M28 -131v64l75 115c23 35 34 51 34 71s-13 33 -34 33s-41 -11 -68 -40v78c19 19 46 34 82 34c56 0 98 -33 98 -94c0 -24 -5 -51 -36 -98l-60 -91h94v-72h-185z" />
    <glyph glyph-name="three.inf" unicode="&#x2083;" 
d="M106 -136c-39 0 -64 14 -77 25v72c15 -13 40 -28 67 -28c31 0 47 14 47 43c0 27 -25 41 -76 42h-2l-1 52l61 79h-94v70h186v-56l-74 -89c43 -11 77 -37 77 -96c0 -72 -47 -114 -114 -114z" />
    <glyph glyph-name="four.inf" unicode="&#x2084;" 
d="M201 -67v-64h-68v64h-117v66l84 222h101v-223h27v-65h-27zM137 -2v140h-7l-53 -140h60z" />
    <glyph glyph-name="five.inf" unicode="&#x2085;" 
d="M105 -136c-32 0 -61 10 -78 25v72c17 -15 41 -28 68 -28c29 0 49 19 49 50c0 27 -18 41 -42 41c-13 0 -24 -4 -35 -8l-43 19l15 184h166v-69h-107c-1 -20 -4 -42 -5 -61c10 2 20 3 29 3c51 0 99 -31 99 -107c0 -77 -55 -121 -116 -121z" />
    <glyph glyph-name="six.inf" unicode="&#x2086;" 
d="M122 -136c-23 0 -44 7 -61 24c-25 23 -39 68 -39 140v13c0 139 51 183 119 183c25 0 44 -7 57 -15l-4 -73c-12 9 -29 20 -48 20c-27 0 -45 -21 -48 -68c11 7 21 13 44 13c37 0 79 -25 79 -113c0 -80 -44 -124 -99 -124zM123 -69c15 0 27 13 27 53s-11 53 -30 53
c-10 0 -18 -3 -23 -10v-31c0 -47 7 -65 26 -65z" />
    <glyph glyph-name="seven.inf" unicode="&#x2087;" 
d="M120 -131h-78l91 278h-109v72h189v-53z" />
    <glyph glyph-name="eight.inf" unicode="&#x2088;" 
d="M120 -136c-64 0 -106 39 -106 102c0 47 22 73 45 88c-23 15 -38 41 -38 76c0 60 42 94 99 94s99 -34 99 -94c0 -35 -15 -61 -38 -76c23 -15 45 -41 45 -88c0 -63 -42 -102 -106 -102zM120 169c-19 0 -29 -14 -29 -43c0 -28 10 -42 29 -42s29 14 29 42c0 29 -10 43 -29 43
zM120 23c-21 0 -32 -17 -32 -52c0 -34 11 -51 32 -51s32 17 32 51c0 35 -11 52 -32 52z" />
    <glyph glyph-name="nine.inf" unicode="&#x2089;" 
d="M118 224c23 0 44 -7 61 -24c25 -23 39 -68 39 -140v-13c0 -139 -51 -183 -119 -183c-23 0 -41 7 -61 18v73c15 -12 35 -23 56 -23c27 0 45 18 48 65c-11 -7 -21 -13 -44 -13c-37 0 -79 26 -79 114c0 81 44 126 99 126zM120 48c10 0 18 3 23 10v32c0 48 -7 67 -26 67
c-15 0 -27 -14 -27 -55s11 -54 30 -54z" />
    <glyph glyph-name="zero.num" 
d="M120 345c-71 0 -100 55 -100 172v16c0 117 29 172 100 172s100 -55 100 -172v-16c0 -117 -29 -172 -100 -172zM120 636c-19 0 -26 -21 -26 -106v-10c0 -85 7 -106 26 -106s26 21 26 106v10c0 85 -7 106 -26 106z" />
    <glyph glyph-name="one.num" horiz-adv-x="195" 
d="M149 350h-79v271l-52 -24v75l75 31h56v-353z" />
    <glyph glyph-name="one.num_alt" 
d="M224 350h-189v66h61v208l-59 -24v73l79 30h56v-287h52v-66z" />
    <glyph glyph-name="two.num" 
d="M28 350v64l75 115c23 35 34 51 34 71s-13 33 -34 33s-41 -11 -68 -40v78c19 19 46 34 82 34c56 0 98 -33 98 -94c0 -24 -5 -51 -36 -98l-60 -91h94v-72h-185z" />
    <glyph glyph-name="three.num" 
d="M106 345c-39 0 -64 14 -77 25v72c15 -13 40 -28 67 -28c31 0 47 14 47 43c0 27 -25 41 -76 42h-2l-1 52l61 79h-94v70h186v-56l-74 -89c43 -11 77 -37 77 -96c0 -72 -47 -114 -114 -114z" />
    <glyph glyph-name="four.num" 
d="M201 414v-64h-68v64h-117v66l84 222h101v-223h27v-65h-27zM137 479v140h-7l-53 -140h60z" />
    <glyph glyph-name="five.num" 
d="M105 345c-32 0 -61 10 -78 25v72c17 -15 41 -28 68 -28c29 0 49 19 49 50c0 27 -18 41 -42 41c-13 0 -24 -4 -35 -8l-43 19l15 184h166v-69h-107c-1 -20 -4 -42 -5 -61c10 2 20 3 29 3c51 0 99 -31 99 -107c0 -77 -55 -121 -116 -121z" />
    <glyph glyph-name="six.num" 
d="M122 345c-23 0 -44 7 -61 24c-25 23 -39 68 -39 140v13c0 139 51 183 119 183c25 0 44 -7 57 -15l-4 -73c-12 9 -29 20 -48 20c-27 0 -45 -21 -48 -68c11 7 21 13 44 13c37 0 79 -25 79 -113c0 -80 -44 -124 -99 -124zM123 412c15 0 27 13 27 53s-11 53 -30 53
c-10 0 -18 -3 -23 -10v-31c0 -47 7 -65 26 -65z" />
    <glyph glyph-name="seven.num" 
d="M120 350h-78l91 278h-109v72h189v-53z" />
    <glyph glyph-name="eight.num" 
d="M120 345c-64 0 -106 39 -106 102c0 47 22 73 45 88c-23 15 -38 41 -38 76c0 60 42 94 99 94s99 -34 99 -94c0 -35 -15 -61 -38 -76c23 -15 45 -41 45 -88c0 -63 -42 -102 -106 -102zM120 650c-19 0 -29 -14 -29 -43c0 -28 10 -42 29 -42s29 14 29 42c0 29 -10 43 -29 43z
M120 504c-21 0 -32 -17 -32 -52c0 -34 11 -51 32 -51s32 17 32 51c0 35 -11 52 -32 52z" />
    <glyph glyph-name="nine.num" 
d="M118 705c23 0 44 -7 61 -24c25 -23 39 -68 39 -140v-13c0 -139 -51 -183 -119 -183c-23 0 -41 7 -61 18v73c15 -12 35 -23 56 -23c27 0 45 18 48 65c-11 -7 -21 -13 -44 -13c-37 0 -79 26 -79 114c0 81 44 126 99 126zM120 529c10 0 18 3 23 10v32c0 48 -7 67 -26 67
c-15 0 -27 -14 -27 -55s11 -54 30 -54z" />
    <glyph glyph-name="zero.den" 
d="M120 -5c-71 0 -100 55 -100 172v16c0 117 29 172 100 172s100 -55 100 -172v-16c0 -117 -29 -172 -100 -172zM120 286c-19 0 -26 -21 -26 -106v-10c0 -85 7 -106 26 -106s26 21 26 106v10c0 85 -7 106 -26 106z" />
    <glyph glyph-name="one.den" horiz-adv-x="195" 
d="M149 0h-79v271l-52 -24v75l75 31h56v-353z" />
    <glyph glyph-name="one.den_alt" 
d="M224 0h-189v66h61v208l-59 -24v73l79 30h56v-287h52v-66z" />
    <glyph glyph-name="two.den" 
d="M28 0v64l75 115c23 35 34 51 34 71s-13 33 -34 33s-41 -11 -68 -40v78c19 19 46 34 82 34c56 0 98 -33 98 -94c0 -24 -5 -51 -36 -98l-60 -91h94v-72h-185z" />
    <glyph glyph-name="three.den" 
d="M106 -5c-39 0 -64 14 -77 25v72c15 -13 40 -28 67 -28c31 0 47 14 47 43c0 27 -25 41 -76 42h-2l-1 52l61 79h-94v70h186v-56l-74 -89c43 -11 77 -37 77 -96c0 -72 -47 -114 -114 -114z" />
    <glyph glyph-name="four.den" 
d="M201 64v-64h-68v64h-117v66l84 222h101v-223h27v-65h-27zM137 129v140h-7l-53 -140h60z" />
    <glyph glyph-name="five.den" 
d="M105 -5c-32 0 -61 10 -78 25v72c17 -15 41 -28 68 -28c29 0 49 19 49 50c0 27 -18 41 -42 41c-13 0 -24 -4 -35 -8l-43 19l15 184h166v-69h-107c-1 -20 -4 -42 -5 -61c10 2 20 3 29 3c51 0 99 -31 99 -107c0 -77 -55 -121 -116 -121z" />
    <glyph glyph-name="six.den" 
d="M122 -5c-23 0 -44 7 -61 24c-25 23 -39 68 -39 140v13c0 139 51 183 119 183c25 0 44 -7 57 -15l-4 -73c-12 9 -29 20 -48 20c-27 0 -45 -21 -48 -68c11 7 21 13 44 13c37 0 79 -25 79 -113c0 -80 -44 -124 -99 -124zM123 62c15 0 27 13 27 53s-11 53 -30 53
c-10 0 -18 -3 -23 -10v-31c0 -47 7 -65 26 -65z" />
    <glyph glyph-name="seven.den" 
d="M120 0h-78l91 278h-109v72h189v-53z" />
    <glyph glyph-name="eight.den" 
d="M120 -5c-64 0 -106 39 -106 102c0 47 22 73 45 88c-23 15 -38 41 -38 76c0 60 42 94 99 94s99 -34 99 -94c0 -35 -15 -61 -38 -76c23 -15 45 -41 45 -88c0 -63 -42 -102 -106 -102zM120 300c-19 0 -29 -14 -29 -43c0 -28 10 -42 29 -42s29 14 29 42c0 29 -10 43 -29 43z
M120 154c-21 0 -32 -17 -32 -52c0 -34 11 -51 32 -51s32 17 32 51c0 35 -11 52 -32 52z" />
    <glyph glyph-name="nine.den" 
d="M118 355c23 0 44 -7 61 -24c25 -23 39 -68 39 -140v-13c0 -139 -51 -183 -119 -183c-23 0 -41 7 -61 18v73c15 -12 35 -23 56 -23c27 0 45 18 48 65c-11 -7 -21 -13 -44 -13c-37 0 -79 26 -79 114c0 81 44 126 99 126zM120 179c10 0 18 3 23 10v32c0 48 -7 67 -26 67
c-15 0 -27 -14 -27 -55s11 -54 30 -54z" />
    <glyph glyph-name="fraction" unicode="&#x2044;" horiz-adv-x="60" 
d="M-142 0l150 364l131 336h63l-150 -364l-131 -336h-63z" />
    <glyph glyph-name="onehalf" unicode="&#xbd;" horiz-adv-x="495" 
d="M276 0v64l75 115c23 35 34 51 34 71s-13 33 -34 33s-41 -11 -68 -40v78c19 19 46 34 82 34c56 0 98 -33 98 -94c0 -24 -5 -51 -36 -98l-60 -91h94v-72h-185zM152 350h-79v271l-52 -24v75l75 31h56v-353zM50 0l150 364l131 336h63l-150 -364l-131 -336h-63z" />
    <glyph glyph-name="onehalf.alt" horiz-adv-x="540" 
d="M219 350h-189v66h61v208l-59 -24v73l79 30h56v-287h52v-66zM330 0v64l75 115c23 35 34 51 34 71s-13 33 -34 33s-41 -11 -68 -40v78c19 19 46 34 82 34c56 0 98 -33 98 -94c0 -24 -5 -51 -36 -98l-60 -91h94v-72h-185zM105 0l150 364l131 336h63l-150 -364l-131 -336h-63
z" />
    <glyph glyph-name="onethird" unicode="&#x2153;" horiz-adv-x="495" 
d="M368 -5c-39 0 -64 14 -77 25v72c15 -13 40 -28 67 -28c31 0 47 14 47 43c0 27 -25 41 -76 42h-2l-1 52l61 79h-94v70h186v-56l-74 -89c43 -11 77 -37 77 -96c0 -72 -47 -114 -114 -114zM152 350h-79v271l-52 -24v75l75 31h56v-353zM50 0l150 364l131 336h63l-150 -364
l-131 -336h-63z" />
    <glyph glyph-name="onethird.alt" horiz-adv-x="540" 
d="M219 350h-189v66h61v208l-59 -24v73l79 30h56v-287h52v-66zM410 -5c-39 0 -64 14 -77 25v72c15 -13 40 -28 67 -28c31 0 47 14 47 43c0 27 -25 41 -76 42h-2l-1 52l61 79h-94v70h186v-56l-74 -89c43 -11 77 -37 77 -96c0 -72 -47 -114 -114 -114zM100 0l150 364l131 336
h63l-150 -364l-131 -336h-63z" />
    <glyph glyph-name="twothirds" unicode="&#x2154;" horiz-adv-x="540" 
d="M420 -5c-39 0 -64 14 -77 25v72c15 -13 40 -28 67 -28c31 0 47 14 47 43c0 27 -25 41 -76 42h-2l-1 52l61 79h-94v70h186v-56l-74 -89c43 -11 77 -37 77 -96c0 -72 -47 -114 -114 -114zM25 350v64l75 115c23 35 34 51 34 71s-13 33 -34 33s-41 -11 -68 -40v78
c19 19 46 34 82 34c56 0 98 -33 98 -94c0 -24 -5 -51 -36 -98l-60 -91h94v-72h-185zM98 0l150 364l131 336h63l-150 -364l-131 -336h-63z" />
    <glyph glyph-name="onequarter" unicode="&#xbc;" horiz-adv-x="495" 
d="M152 350h-79v271l-52 -24v75l75 31h56v-353zM65 0l150 364l131 336h63l-150 -364l-131 -336h-63zM444 64v-64h-68v64h-117v66l84 222h101v-223h27v-65h-27zM380 129v140h-7l-53 -140h60z" />
    <glyph glyph-name="onequarter.alt" horiz-adv-x="540" 
d="M224 350h-189v66h61v208l-59 -24v73l79 30h56v-287h52v-66zM115 0l150 364l131 336h63l-150 -364l-131 -336h-63zM491 64v-64h-68v64h-117v66l84 222h101v-223h27v-65h-27zM427 129v140h-7l-53 -140h60z" />
    <glyph glyph-name="threequarters" unicode="&#xbe;" horiz-adv-x="540" 
d="M107 345c-39 0 -64 14 -77 25v72c15 -13 40 -28 67 -28c31 0 47 14 47 43c0 27 -25 41 -76 42h-2l-1 52l61 79h-94v70h186v-56l-74 -89c43 -11 77 -37 77 -96c0 -72 -47 -114 -114 -114zM110 0l150 364l131 336h63l-150 -364l-131 -336h-63zM495 64v-64h-68v64h-117v66
l84 222h101v-223h27v-65h-27zM431 129v140h-7l-53 -140h60z" />
    <glyph glyph-name="onefifth" unicode="&#x2155;" horiz-adv-x="495" 
d="M357 -5c-32 0 -61 10 -78 25v72c17 -15 41 -28 68 -28c29 0 49 19 49 50c0 27 -18 41 -42 41c-13 0 -24 -4 -35 -8l-43 19l15 184h166v-69h-107c-1 -20 -4 -42 -5 -61c10 2 20 3 29 3c51 0 99 -31 99 -107c0 -77 -55 -121 -116 -121zM152 350h-79v271l-52 -24v75l75 31
h56v-353zM45 0l150 364l131 336h63l-150 -364l-131 -336h-63z" />
    <glyph glyph-name="onefifth.alt" horiz-adv-x="540" 
d="M219 350h-189v66h61v208l-59 -24v73l79 30h56v-287h52v-66zM409 -5c-32 0 -61 10 -78 25v72c17 -15 41 -28 68 -28c29 0 49 19 49 50c0 27 -18 41 -42 41c-13 0 -24 -4 -35 -8l-43 19l15 184h166v-69h-107c-1 -20 -4 -42 -5 -61c10 2 20 3 29 3c51 0 99 -31 99 -107
c0 -77 -55 -121 -116 -121zM105 0l150 364l131 336h63l-150 -364l-131 -336h-63z" />
    <glyph glyph-name="twofifths" unicode="&#x2156;" horiz-adv-x="540" 
d="M25 350v64l75 115c23 35 34 51 34 71s-13 33 -34 33s-41 -11 -68 -40v78c19 19 46 34 82 34c56 0 98 -33 98 -94c0 -24 -5 -51 -36 -98l-60 -91h94v-72h-185zM103 0l150 364l131 336h63l-150 -364l-131 -336h-63zM414 -5c-32 0 -61 10 -78 25v72c17 -15 41 -28 68 -28
c29 0 49 19 49 50c0 27 -18 41 -42 41c-13 0 -24 -4 -35 -8l-43 19l15 184h166v-69h-107c-1 -20 -4 -42 -5 -61c10 2 20 3 29 3c51 0 99 -31 99 -107c0 -77 -55 -121 -116 -121z" />
    <glyph glyph-name="threefifths" unicode="&#x2157;" horiz-adv-x="540" 
d="M414 -5c-32 0 -61 10 -78 25v72c17 -15 41 -28 68 -28c29 0 49 19 49 50c0 27 -18 41 -42 41c-13 0 -24 -4 -35 -8l-43 19l15 184h166v-69h-107c-1 -20 -4 -42 -5 -61c10 2 20 3 29 3c51 0 99 -31 99 -107c0 -77 -55 -121 -116 -121zM95 0l150 364l131 336h63l-150 -364
l-131 -336h-63zM112 345c-39 0 -64 14 -77 25v72c15 -13 40 -28 67 -28c31 0 47 14 47 43c0 27 -25 41 -76 42h-2l-1 52l61 79h-94v70h186v-56l-74 -89c43 -11 77 -37 77 -96c0 -72 -47 -114 -114 -114z" />
    <glyph glyph-name="fourfifths" unicode="&#x2158;" horiz-adv-x="540" 
d="M193 414v-64h-68v64h-117v66l84 222h101v-223h27v-65h-27zM129 479v140h-7l-53 -140h60zM414 -5c-32 0 -61 10 -78 25v72c17 -15 41 -28 68 -28c29 0 49 19 49 50c0 27 -18 41 -42 41c-13 0 -24 -4 -35 -8l-43 19l15 184h166v-69h-107c-1 -20 -4 -42 -5 -61
c10 2 20 3 29 3c51 0 99 -31 99 -107c0 -77 -55 -121 -116 -121zM97 0l150 364l131 336h63l-150 -364l-131 -336h-63z" />
    <glyph glyph-name="onesixth" unicode="&#x2159;" horiz-adv-x="495" 
d="M365 -5c-23 0 -44 7 -61 24c-25 23 -39 68 -39 140v13c0 139 51 183 119 183c25 0 44 -7 57 -15l-4 -73c-12 9 -29 20 -48 20c-27 0 -45 -21 -48 -68c11 7 21 13 44 13c37 0 79 -25 79 -113c0 -80 -44 -124 -99 -124zM366 62c15 0 27 13 27 53s-11 53 -30 53
c-10 0 -18 -3 -23 -10v-31c0 -47 7 -65 26 -65zM152 350h-79v271l-52 -24v75l75 31h56v-353zM53 0l150 364l131 336h63l-150 -364l-131 -336h-63z" />
    <glyph glyph-name="onesixth.alt" horiz-adv-x="540" 
d="M219 350h-189v66h61v208l-59 -24v73l79 30h56v-287h52v-66zM426 -5c-23 0 -44 7 -61 24c-25 23 -39 68 -39 140v13c0 139 51 183 119 183c25 0 44 -7 57 -15l-4 -73c-12 9 -29 20 -48 20c-27 0 -45 -21 -48 -68c11 7 21 13 44 13c37 0 79 -25 79 -113
c0 -80 -44 -124 -99 -124zM427 62c15 0 27 13 27 53s-11 53 -30 53c-10 0 -18 -3 -23 -10v-31c0 -47 7 -65 26 -65zM110 0l150 364l131 336h63l-150 -364l-131 -336h-63z" />
    <glyph glyph-name="fivesixths" unicode="&#x215a;" horiz-adv-x="540" 
d="M416 -5c-23 0 -44 7 -61 24c-25 23 -39 68 -39 140v13c0 139 51 183 119 183c25 0 44 -7 57 -15l-4 -73c-12 9 -29 20 -48 20c-27 0 -45 -21 -48 -68c11 7 21 13 44 13c37 0 79 -25 79 -113c0 -80 -44 -124 -99 -124zM417 62c15 0 27 13 27 53s-11 53 -30 53
c-10 0 -18 -3 -23 -10v-31c0 -47 7 -65 26 -65zM109 345c-32 0 -61 10 -78 25v72c17 -15 41 -28 68 -28c29 0 49 19 49 50c0 27 -18 41 -42 41c-13 0 -24 -4 -35 -8l-43 19l15 184h166v-69h-107c-1 -20 -4 -42 -5 -61c10 2 20 3 29 3c51 0 99 -31 99 -107
c0 -77 -55 -121 -116 -121zM95 0l150 364l131 336h63l-150 -364l-131 -336h-63z" />
    <glyph glyph-name="oneeighth" unicode="&#x215b;" horiz-adv-x="495" 
d="M364 -5c-64 0 -106 39 -106 102c0 47 22 73 45 88c-23 15 -38 41 -38 76c0 60 42 94 99 94s99 -34 99 -94c0 -35 -15 -61 -38 -76c23 -15 45 -41 45 -88c0 -63 -42 -102 -106 -102zM364 300c-19 0 -29 -14 -29 -43c0 -28 10 -42 29 -42s29 14 29 42c0 29 -10 43 -29 43z
M364 154c-21 0 -32 -17 -32 -52c0 -34 11 -51 32 -51s32 17 32 51c0 35 -11 52 -32 52zM152 350h-79v271l-52 -24v75l75 31h56v-353zM46 0l150 364l131 336h63l-150 -364l-131 -336h-63z" />
    <glyph glyph-name="oneeighth.alt" horiz-adv-x="540" 
d="M214 350h-189v66h61v208l-59 -24v73l79 30h56v-287h52v-66zM424 -5c-64 0 -106 39 -106 102c0 47 22 73 45 88c-23 15 -38 41 -38 76c0 60 42 94 99 94s99 -34 99 -94c0 -35 -15 -61 -38 -76c23 -15 45 -41 45 -88c0 -63 -42 -102 -106 -102zM424 300
c-19 0 -29 -14 -29 -43c0 -28 10 -42 29 -42s29 14 29 42c0 29 -10 43 -29 43zM424 154c-21 0 -32 -17 -32 -52c0 -34 11 -51 32 -51s32 17 32 51c0 35 -11 52 -32 52zM105 0l150 364l131 336h63l-150 -364l-131 -336h-63z" />
    <glyph glyph-name="threeeighths" unicode="&#x215c;" horiz-adv-x="540" 
d="M421 -5c-64 0 -106 39 -106 102c0 47 22 73 45 88c-23 15 -38 41 -38 76c0 60 42 94 99 94s99 -34 99 -94c0 -35 -15 -61 -38 -76c23 -15 45 -41 45 -88c0 -63 -42 -102 -106 -102zM421 300c-19 0 -29 -14 -29 -43c0 -28 10 -42 29 -42s29 14 29 42c0 29 -10 43 -29 43z
M421 154c-21 0 -32 -17 -32 -52c0 -34 11 -51 32 -51s32 17 32 51c0 35 -11 52 -32 52zM95 0l150 364l131 336h63l-150 -364l-131 -336h-63zM112 345c-39 0 -64 14 -77 25v72c15 -13 40 -28 67 -28c31 0 47 14 47 43c0 27 -25 41 -76 42h-2l-1 52l61 79h-94v70h186v-56
l-74 -89c43 -11 77 -37 77 -96c0 -72 -47 -114 -114 -114z" />
    <glyph glyph-name="fiveeighths" unicode="&#x215d;" horiz-adv-x="540" 
d="M421 -5c-64 0 -106 39 -106 102c0 47 22 73 45 88c-23 15 -38 41 -38 76c0 60 42 94 99 94s99 -34 99 -94c0 -35 -15 -61 -38 -76c23 -15 45 -41 45 -88c0 -63 -42 -102 -106 -102zM421 300c-19 0 -29 -14 -29 -43c0 -28 10 -42 29 -42s29 14 29 42c0 29 -10 43 -29 43z
M421 154c-21 0 -32 -17 -32 -52c0 -34 11 -51 32 -51s32 17 32 51c0 35 -11 52 -32 52zM111 345c-32 0 -61 10 -78 25v72c17 -15 41 -28 68 -28c29 0 49 19 49 50c0 27 -18 41 -42 41c-13 0 -24 -4 -35 -8l-43 19l15 184h166v-69h-107c-1 -20 -4 -42 -5 -61c10 2 20 3 29 3
c51 0 99 -31 99 -107c0 -77 -55 -121 -116 -121zM95 0l150 364l131 336h63l-150 -364l-131 -336h-63z" />
    <glyph glyph-name="seveneighths" unicode="&#x215e;" horiz-adv-x="540" 
d="M392 -5c-64 0 -106 39 -106 102c0 47 22 73 45 88c-23 15 -38 41 -38 76c0 60 42 94 99 94s99 -34 99 -94c0 -35 -15 -61 -38 -76c23 -15 45 -41 45 -88c0 -63 -42 -102 -106 -102zM392 300c-19 0 -29 -14 -29 -43c0 -28 10 -42 29 -42s29 14 29 42c0 29 -10 43 -29 43z
M392 154c-21 0 -32 -17 -32 -52c0 -34 11 -51 32 -51s32 17 32 51c0 35 -11 52 -32 52zM134 350h-78l91 278h-109v72h189v-53zM60 0l150 364l131 336h63l-150 -364l-131 -336h-63z" />
    <glyph glyph-name="zero.tab" horiz-adv-x="360" 
d="M180 -10c-113 0 -165 98 -165 341v37c0 244 52 342 165 342c112 0 165 -98 165 -341v-37c0 -244 -53 -342 -165 -342zM180 597c-33 0 -49 -34 -49 -229v-35c0 -196 16 -230 49 -230c32 0 48 34 48 229v35c0 196 -16 230 -48 230z" />
    <glyph glyph-name="one.tab" horiz-adv-x="360" 
d="M352 0h-318v107h108v465l-105 -51v122l141 62h86v-598h88v-107z" />
    <glyph glyph-name="two.tab" horiz-adv-x="360" 
d="M336 0h-308v104l134 266c40 80 51 126 51 155c0 48 -30 66 -63 66c-32 0 -70 -19 -114 -56v120c37 35 82 55 137 55c92 0 160 -60 160 -164v-4c0 -55 -12 -105 -65 -212l-104 -208h172v-122z" />
    <glyph glyph-name="three.tab" horiz-adv-x="360" 
d="M136 -10c-48 0 -86 10 -115 30v115c27 -15 57 -29 96 -29c60 0 97 36 97 100v8c0 73 -52 103 -133 108h-3l-1 81l121 177h-169v120h302v-109l-131 -182c80 -24 136 -74 136 -186v-11c0 -138 -84 -222 -200 -222z" />
    <glyph glyph-name="three.tab_alt" horiz-adv-x="360" 
d="M136 -10c-51 0 -88 13 -113 29v114c27 -16 62 -27 95 -27c57 0 97 34 97 103c0 65 -41 99 -129 102h-3v102h4c80 7 125 45 125 105c0 51 -32 77 -80 77c-35 0 -67 -12 -99 -35v111c24 19 65 39 126 39c96 0 173 -59 173 -176c0 -87 -48 -139 -103 -163
c60 -24 107 -72 107 -170c0 -132 -88 -211 -200 -211z" />
    <glyph glyph-name="four.tab" horiz-adv-x="360" 
d="M196 0v130h-182l-2 95l148 477h145v-467h45v-105h-45v-130h-109zM196 235v268h-9l-80 -268h89z" />
    <glyph glyph-name="five.tab" horiz-adv-x="360" 
d="M139 -10c-39 0 -80 11 -104 30v118c30 -21 61 -31 94 -31c63 0 88 44 88 120v4c0 75 -28 101 -67 101c-28 0 -49 -12 -60 -23l-61 40l20 351h263v-117h-171l-9 -150c7 3 27 11 52 11c80 0 155 -53 155 -209v-6c0 -151 -81 -239 -200 -239z" />
    <glyph glyph-name="six.tab" horiz-adv-x="360" 
d="M215 457c67 0 128 -51 128 -208v-18c0 -144 -63 -241 -159 -241c-38 0 -69 12 -94 35c-45 47 -67 138 -67 295v21c0 288 75 369 196 369c35 0 58 -7 81 -18v-115c-21 12 -47 22 -71 22c-60 0 -86 -50 -87 -171c16 15 36 29 73 29zM185 100c31 0 43 39 43 126v19
c0 80 -16 110 -47 110c-23 0 -29 -10 -40 -22v-84c0 -108 13 -149 44 -149z" />
    <glyph glyph-name="seven.tab" horiz-adv-x="360" 
d="M207 576h-184v124h305v-88l-152 -612h-121z" />
    <glyph glyph-name="eight.tab" horiz-adv-x="360" 
d="M180 -10c-100 0 -165 75 -165 204v7c0 92 37 146 77 173c-44 29 -66 79 -66 150v5c0 113 63 181 154 181s154 -68 154 -181v-5c0 -71 -22 -121 -66 -150c40 -27 77 -81 77 -173v-7c0 -129 -65 -204 -165 -204zM180 412c28 0 46 31 46 99v6c0 72 -19 96 -46 96
s-46 -24 -46 -96v-6c0 -68 18 -99 46 -99zM180 88c29 0 52 29 52 112v7c0 80 -21 110 -52 110s-52 -30 -52 -110v-7c0 -83 21 -112 52 -112z" />
    <glyph glyph-name="nine.tab" horiz-adv-x="360" 
d="M145 235c-67 0 -128 55 -128 212v18c0 145 63 245 159 245c38 0 69 -12 94 -35c45 -47 67 -138 67 -295v-21c0 -288 -77 -369 -196 -369c-35 0 -60 6 -91 21v115c31 -17 58 -25 81 -25c60 0 84 48 87 163c-16 -15 -37 -29 -73 -29zM175 600c-31 0 -43 -43 -43 -130v-20
c0 -80 16 -114 47 -114c23 0 29 10 40 22v92c0 108 -13 150 -44 150z" />
    <glyph glyph-name="dollar.tab" horiz-adv-x="360" 
d="M253 774l-6 -73c27 -4 47 -12 66 -20v-127c-39 23 -65 34 -100 34h-1c-33 0 -65 -23 -64 -60v-1c0 -32 16 -49 72 -113v-1c91 -96 122 -146 122 -226v-2c0 -105 -65 -171 -149 -187l-8 -105h-80l8 106c-29 5 -53 15 -78 28v126c44 -27 82 -41 113 -41h1c41 0 71 25 70 68
v1c0 28 -11 50 -70 115v1c-87 87 -123 138 -123 222v2c0 100 57 166 141 181l6 72h80z" />
    <glyph glyph-name="sterling.tab" horiz-adv-x="360" 
d="M73 391v110c0 76 14 125 51 162c28 28 70 45 121 45c39 0 60 -6 80 -13v-119c-19 7 -37 12 -57 12c-24 0 -38 -6 -49 -17c-17 -17 -21 -42 -21 -70v-110h99v-111h-99v-168h147v-112h-322v82l50 24v174h-48v111h48z" />
    <glyph glyph-name="Euro.tab" horiz-adv-x="360" 
d="M13 388v90h54c24 161 102 232 194 232c29 0 49 -4 76 -19v-125c-25 16 -44 25 -65 25c-36 0 -67 -29 -80 -113h93v-90h-100v-24v-27v-21h100v-90h-94c13 -91 44 -118 83 -117c17 0 39 8 65 24v-118c-29 -19 -55 -25 -86 -25c-91 0 -166 72 -187 236h-53v90h47v21v25v26
h-47z" />
    <glyph glyph-name="yen.tab" horiz-adv-x="360" 
d="M40 189h82v61h-82v92h62l-99 358h122l56 -287l57 287h119l-100 -358h63v-92h-82v-61h82v-92h-82v-97h-116v97h-82v92z" />
    <glyph glyph-name="cent.tab" horiz-adv-x="360" 
d="M245 705v-77c33 -3 56 -14 76 -26v-120c-27 17 -51 32 -83 32c-52 0 -87 -38 -87 -145v-34c0 -104 32 -144 87 -144c31 0 57 15 84 34v-114c-19 -15 -42 -30 -77 -35v-82h-80v88c-85 25 -135 111 -135 255v30c0 141 51 226 135 253v85h80z" />
    <glyph glyph-name="numbersign.tab" horiz-adv-x="360" 
d="M12 268h53l12 168h-47v108h55l11 156h76l-11 -156h65l11 156h76l-11 -156h47v-108h-55l-12 -168h49v-108h-57l-11 -160h-76l11 160h-65l-11 -160h-76l11 160h-45v108zM153 436l-12 -168h65l12 168h-65z" />
    <glyph glyph-name="paragraph.tab" horiz-adv-x="360" 
d="M193 0v224h-1c-85 11 -177 80 -177 238v2c0 171 102 236 222 236h80v-700h-124z" />
    <glyph glyph-name="section.tab" horiz-adv-x="360" 
d="M163 -10c-23 0 -60 5 -91 20v112c31 -17 57 -26 80 -26c27 0 42 14 42 37v2c0 28 -38 50 -78 77c-57 38 -106 71 -106 147v2c0 48 26 97 77 118c-21 29 -32 58 -32 87v2c0 92 58 142 142 142c23 0 60 -5 91 -20v-112c-31 17 -57 26 -80 26c-27 0 -42 -14 -42 -37v-2
c0 -28 38 -50 78 -77c57 -38 106 -71 106 -147v-2c0 -48 -26 -97 -77 -118c21 -29 32 -58 32 -87v-2c0 -92 -58 -142 -142 -142zM139 430c-21 -16 -27 -40 -27 -53v-2c0 -22 12 -48 88 -94c4 -1 20 -11 21 -11c21 16 27 40 27 53v2c0 22 -12 48 -88 94c-4 1 -20 11 -21 11z
" />
    <glyph glyph-name="degree.tab" horiz-adv-x="360" 
d="M180 302c-83 0 -136 79 -136 195v14c0 116 53 195 136 195s136 -79 136 -195v-14c0 -116 -53 -195 -136 -195zM180 388c32 0 51 37 51 109v14c0 72 -19 109 -51 109s-51 -37 -51 -109v-14c0 -72 19 -109 51 -109z" />
    <glyph glyph-name="percent.tab" horiz-adv-x="360" 
d="M108 706c69 0 99 -61 99 -176v-36c0 -8 0 -16 -1 -24l81 230h61l-134 -327c11 6 23 9 38 9c69 0 99 -61 99 -176v-36c0 -115 -30 -176 -99 -176s-99 61 -99 176v36v23l-80 -229h-61l134 326c-12 -5 -25 -8 -38 -8c-69 0 -99 61 -99 176v36c0 115 30 176 99 176zM250 311
c-20 0 -27 -25 -27 -105v-36c0 -80 7 -105 27 -105s28 25 28 105v36c0 80 -8 105 -28 105zM110 635c-20 0 -28 -25 -28 -105v-36c0 -80 8 -105 28 -105s27 25 27 105v36c0 80 -7 105 -27 105z" />
    <glyph glyph-name="quotedbl.tab" horiz-adv-x="360" 
d="M217 381l2 319h122v-9l-79 -310h-45zM48 381l2 319h122v-9l-78 -310h-46z" />
    <glyph glyph-name="quotesingle.tab" horiz-adv-x="180" 
d="M44 381l2 319h122v-9l-78 -310h-46z" />
    <glyph glyph-name="period.tab" horiz-adv-x="180" 
d="M30 0v150h120v-150h-120z" />
    <glyph glyph-name="comma.tab" horiz-adv-x="180" 
d="M16 -157l-11 47c64 15 81 65 76 110h-51v150h120v-125c0 -108 -42 -170 -134 -182z" />
    <glyph glyph-name="colon.tab" horiz-adv-x="180" 
d="M30 386v150h120v-150h-120zM30 0v150h120v-150h-120z" />
    <glyph glyph-name="semicolon.tab" horiz-adv-x="180" 
d="M30 386v150h120v-150h-120zM16 -157l-11 47c64 15 81 65 76 110h-51v150h120v-125c0 -108 -42 -170 -134 -182z" />
    <glyph glyph-name="twodotleader.tab" horiz-adv-x="360" 
d="M210 0v146h120v-146h-120zM30 0v146h120v-146h-120z" />
    <glyph glyph-name="periodcentered.tab" horiz-adv-x="180" 
d="M30 235v149h120v-149h-120z" />
    <glyph glyph-name="slash.tab" horiz-adv-x="360" 
d="M353 769l-254 -868h-101l255 868h100z" />
    <glyph glyph-name="bar.tab" horiz-adv-x="180" 
d="M43 -99v868h94v-868h-94z" />
    <glyph glyph-name="underscore.tab" horiz-adv-x="360" 
d="M-2 -151v93h364v-93h-364z" />
    <glyph glyph-name="plus.tab" horiz-adv-x="360" 
d="M342 298h-110v-118h-104v118h-110v108h110v118h104v-118h110v-108z" />
    <glyph glyph-name="minus.tab" horiz-adv-x="360" 
d="M340 293h-320v118h320v-118z" />
    <glyph glyph-name="divide.tab" horiz-adv-x="360" 
d="M126 458v113h108v-113h-108zM340 298h-320v108h320v-108zM126 133v113h108v-113h-108z" />
    <glyph glyph-name="equal.tab" horiz-adv-x="360" 
d="M339 389h-318v117h318v-117zM339 198h-318v117h318v-117z" />
    <glyph glyph-name="multiply.tab" horiz-adv-x="360" 
d="M267 171l-87 101l-88 -101l-82 69l100 112l-100 112l83 69l87 -101l88 101l82 -69l-100 -112l100 -112z" />
    <glyph glyph-name="less.tab" horiz-adv-x="360" 
d="M331 108l-304 193v102l304 193v-137l-179 -106l179 -106v-139z" />
    <glyph glyph-name="greater.tab" horiz-adv-x="360" 
d="M332 301l-304 -193v137l179 106l-179 106v139l304 -193v-102z" />
    <glyph glyph-name="plusminus.tab" horiz-adv-x="360" 
d="M342 303h-110v-119h-104v119h-110v107h110v119h104v-119h110v-107zM340 0h-320v104h320v-104z" />
    <glyph glyph-name="baht" unicode="&#xe3f;" horiz-adv-x="392" 
d="M200 793h79l-14 -116c61 -25 103 -74 103 -155v-5c0 -90 -51 -134 -101 -158c59 -27 110 -67 110 -156v-9c0 -112 -79 -180 -195 -192l-14 -125h-79l14 123h-67v700h104c16 0 32 -1 48 -3zM156 113h3c56 0 96 32 96 91v5c0 59 -40 91 -96 91h-3v-187zM156 406h2
c55 0 90 31 90 92v2c0 61 -35 87 -90 87h-2v-181z" />
    <glyph glyph-name="colonmonetary" unicode="&#x20a1;" horiz-adv-x="334" 
d="M255 779h36l-8 -80c8 -3 17 -6 26 -10v-126c-25 15 -45 23 -68 23c-53 0 -93 -47 -93 -223v-26c0 -184 39 -223 95 -223c21 0 43 7 68 22v-120c-28 -16 -55 -21 -90 -21h-13l-12 -113h-36l13 119c-18 6 -35 15 -51 27l-16 -146h-36l20 179c-41 56 -66 144 -66 277v24
c0 189 53 291 132 327l9 90h36l-8 -78c11 3 23 4 36 4c7 0 11 0 18 -1z" />
    <glyph glyph-name="florin" unicode="&#x192;" horiz-adv-x="333" 
d="M66 -5c-24 0 -40 3 -55 6v106c8 -3 14 -3 26 -3c23 0 40 14 43 51l15 207h-45v96h52l7 97c7 100 61 150 141 150c37 0 57 -4 72 -8v-107c-11 3 -23 6 -39 6c-32 0 -54 -19 -57 -63l-6 -75h81v-96h-88l-16 -222c-8 -107 -56 -145 -131 -145z" />
    <glyph glyph-name="naira" unicode="&#x20a6;" horiz-adv-x="532" 
d="M520 192h-76v-192h-108l-69 198v1l-60 172v-371h-119v192h-76v104h76v112h-76v104h76v188h114l59 -169v-1l64 -184v354h119v-188h76v-104h-76v-111h76v-105z" />
    <glyph glyph-name="peso" unicode="&#x20b1;" horiz-adv-x="498" 
d="M79 0v403h-76v104h76v193h109c121 0 208 -60 224 -193h78v-104h-81c-19 -117 -101 -175 -207 -183h-1v-220h-122zM201 333h1c51 3 90 40 90 125v2c0 89 -34 127 -87 127h-4v-254z" />
    <glyph glyph-name="R_p" horiz-adv-x="710" 
d="M30 0v700h120c112 0 193 -67 193 -223v-9c0 -92 -30 -146 -73 -183l84 -285h-121l-72 247h-17v-247h-114zM386 -130v666h110v-67c16 32 37 77 88 77c61 0 107 -61 107 -254v-48c0 -191 -46 -254 -107 -254c-50 0 -72 43 -88 75v-195h-110zM535 98c29 0 38 51 38 147v46
c0 96 -9 147 -38 147c-28 0 -40 -51 -40 -147v-46c0 -96 12 -147 40 -147zM144 351h5c47 0 81 33 81 118v8c0 92 -38 115 -83 115h-3v-241z" />
    <glyph glyph-name="rupee" unicode="&#x20a8;" horiz-adv-x="627" 
d="M30 0v700h120c112 0 193 -67 193 -223v-9c0 -92 -30 -146 -73 -183l84 -285h-121l-72 247h-17v-247h-114zM482 -10c-35 0 -73 8 -106 23v110c39 -20 72 -30 99 -30c24 0 42 17 42 44v2c0 25 -7 43 -57 93c-53 53 -86 97 -86 165v2c0 89 56 145 145 145c32 0 55 -1 86 -12
v-110c-27 13 -54 19 -79 19c-27 0 -44 -16 -44 -39v-2c0 -22 8 -39 61 -92c64 -64 82 -103 82 -164v-2c0 -93 -59 -152 -143 -152zM144 351h5c47 0 81 33 81 118v8c0 92 -38 115 -83 115h-3v-241z" />
    <glyph glyph-name="won" unicode="&#x20a9;" horiz-adv-x="685" 
d="M634 700l-29 -188h78v-104h-93l-17 -111h110v-105h-126l-29 -194h-128l-32 229v1l-26 185v-1l-26 -185v-1l-32 -228h-128l-30 194h-124v104h109l-17 112h-92v104h76l-28 188h125l24 -202v-1l27 -226v1l33 231v1l28 196h113l28 -200v-1l32 -228v1l28 230v1l24 197h122z
" />
    <glyph glyph-name="hryvnia" unicode="&#x20b4;" horiz-adv-x="367" 
d="M25 417l5 47l137 -23l1 2v1c29 40 38 68 38 91v1c0 37 -24 57 -59 56c-29 0 -58 -10 -90 -29v118c35 15 72 24 111 24c100 0 162 -58 162 -161v-1c0 -44 -14 -83 -35 -122l61 -10l-5 -47l-83 13l-6 -9v-1l-28 -40l112 -18l-5 -47l-136 22l-6 -9v-1
c-35 -48 -44 -80 -44 -107v-1c0 -39 24 -59 61 -58c31 0 63 11 102 32v-121c-35 -15 -77 -24 -116 -24c-115 0 -171 66 -171 165v1c0 44 15 92 44 144l-60 10l5 47l83 -14l34 50z" />
    <glyph glyph-name="numero" unicode="&#x2116;" horiz-adv-x="649" 
d="M36 0v700h104l98 -338v338h110v-700h-100l-102 355v-355h-110zM509 281c-65 0 -114 67 -114 199v25c0 132 49 200 114 200s114 -68 114 -200v-25c0 -132 -49 -199 -114 -199zM509 358c20 0 30 40 30 121v27c0 81 -10 121 -30 121s-30 -40 -30 -121v-27
c0 -81 10 -121 30 -121zM396 160v74h226v-74h-226z" />
    <glyph glyph-name="sheqel" unicode="&#x20aa;" horiz-adv-x="454" 
d="M162 139l-17 183h60l13 -125c5 -52 24 -74 57 -74h60v413h82v-536h-142c-61 0 -104 43 -113 139zM241 214v124c0 50 -16 75 -49 75h-73v-413h-82v536h171c51 0 93 -46 93 -126v-196h-60z" />
    <glyph glyph-name="Delta" unicode="&#x2206;" horiz-adv-x="402" 
d="M27 0l-12 98l120 604h132l120 -604l-12 -98h-348zM134 112h130l-65 386z" />
    <glyph glyph-name="Omega" unicode="&#x2126;" horiz-adv-x="432" 
d="M217 710c111 0 185 -86 185 -283v-13c0 -104 -31 -210 -79 -298h84v-116h-171v111c21 81 42 160 42 292v7c0 152 -26 188 -63 188c-36 0 -61 -34 -61 -186v-7c0 -132 20 -213 42 -294v-111h-171v116h84c-49 88 -79 194 -79 298v13c0 197 76 283 187 283z" />
    <glyph glyph-name="mu" unicode="&#xb5;" horiz-adv-x="406" 
d="M403 100v-93c-20 -8 -41 -13 -70 -13s-53 12 -66 45c-17 -37 -38 -44 -58 -44c-27 0 -52 17 -68 61h-2c7 -43 10 -78 10 -131v-55h-116v666h118v-374c0 -41 14 -61 42 -61s42 20 42 61v374h118v-413c1 -19 9 -25 28 -25c8 0 15 1 22 2z" />
    <glyph glyph-name="asciicircum" unicode="^" horiz-adv-x="500" 
d="M128 502l73 191h97l74 -191h-76l-47 129l-47 -129h-74z" />
    <glyph glyph-name="asciitilde" unicode="~" horiz-adv-x="369" 
d="M246 254c-31 0 -50 13 -67 25c-15 11 -27 20 -46 20c-17 0 -29 -16 -38 -49l-58 18c8 80 51 110 86 110c31 0 50 -13 67 -25c15 -11 27 -20 46 -20c17 0 29 16 38 49l58 -18c-8 -80 -51 -110 -86 -110z" />
    <glyph glyph-name="hcoslug" horiz-adv-x="694" 
d="M247 18h26c1 15 -5 22 -19 22c-12 0 -20 -8 -20 -21c1 -13 8 -20 21 -20c10 0 16 5 18 14h-7c-1 -5 -4 -7 -9 -7c-7 0 -10 4 -10 12zM254 35c5 0 7 -4 7 -12h-14c0 8 2 12 7 12zM195 78c-5 0 -8 5 -8 16c0 10 3 15 8 15s8 -5 8 -15c0 -11 -3 -16 -8 -16zM210 4
c-5 0 -8 5 -8 16c0 10 3 15 8 15s8 -5 8 -15c0 -11 -3 -16 -8 -16zM210 -1c12 0 21 9 21 21s-9 20 -21 20s-21 -8 -21 -20c0 -13 9 -21 21 -21zM546 4c-5 0 -8 5 -8 16c0 10 3 15 8 15s8 -5 8 -15c0 -11 -3 -16 -8 -16zM546 -1c12 0 21 9 21 21s-9 20 -21 20s-21 -8 -21 -20
c0 -13 9 -21 21 -21zM125 81v-7h30v7h-10v16h4c3 0 5 -3 6 -8h7v23h-7c-1 -5 -3 -8 -6 -8h-4v18h12c7 0 8 -2 11 -13h8v20h-51v-7h7v-41h-7zM195 73c12 0 21 9 21 21s-9 20 -21 20s-21 -8 -21 -20c0 -13 9 -21 21 -21zM644 700v-800h-594v800h594zM498 -1c15 0 23 8 24 23
h-8c-1 -11 -6 -16 -14 -16c-11 0 -16 7 -16 22s5 22 14 22c7 0 12 -5 15 -16h8v22h-8l-1 -6c-5 5 -10 7 -16 7c-15 0 -27 -11 -27 -30s10 -28 29 -28zM372 80c-5 0 -8 4 -8 13s3 13 8 13s7 -4 7 -13s-2 -13 -7 -13zM276 7v-7h23v7h-5v25h14v-25h-5v-7h23v7h-6v52l-10 -2
c-3 1 -6 2 -9 2c-11 0 -19 -6 -19 -19v-1h-7v-7h7v-25h-6zM368 7v-7h26v7h-8v16c3 6 5 9 7 9v-1c0 -4 2 -6 6 -6c5 0 7 2 7 7s-3 8 -8 8s-9 -4 -12 -11v10h-18v-7h6v-25h-6zM352 125v-52h6l4 8c3 -5 8 -8 14 -8c12 0 16 12 16 21c0 13 -5 20 -15 20c-7 0 -11 -3 -13 -9v27
h-18v-7h6zM400 75c-5 0 -7 -2 -7 -7c0 -6 4 -9 11 -9c8 0 14 5 18 16l13 31h5v7h-17v-7h5l-8 -20l-9 20h6v7h-25v-7h5c1 -3 3 -8 6 -13l10 -20c-1 -5 -4 -8 -8 -8c3 3 2 10 -5 10zM247 428c0 17 11 29 27 29c17 0 29 -15 29 -38c0 -17 -7 -33 -18 -50c-23 23 -38 36 -38 59z
M302 88v-14h7l1 4c3 -3 6 -5 13 -5c9 0 14 4 14 13c0 16 -24 10 -24 18c0 3 2 4 5 4s7 -2 10 -7h7v13h-6l-2 -5c-2 3 -6 5 -11 5c-9 0 -14 -5 -14 -12c0 -16 24 -11 24 -19c0 -3 -2 -4 -5 -4c-4 0 -8 3 -12 9h-7zM261 219c-31 0 -52 23 -52 54c0 16 5 29 16 40
c19 -17 46 -47 74 -82c-10 -8 -23 -12 -38 -12zM286 124l-12 -2v-9h-7v-7h7v-20c0 -9 4 -13 12 -13c7 0 12 4 14 13l-5 2c-1 -5 -2 -7 -5 -7s-4 2 -4 5v20h13v7h-13v11zM428 306c9 -15 24 -25 43 -25c28 0 50 23 50 54s-22 52 -50 52c-23 0 -43 -13 -60 -38
c-3 27 -22 38 -49 37c6 10 9 21 9 34c0 36 -33 74 -95 74c-67 0 -109 -41 -109 -85c0 -29 10 -46 31 -69c-55 -19 -82 -49 -82 -91c0 -53 49 -93 109 -93c42 0 77 15 104 45c33 -35 54 -45 85 -45c43 0 77 35 80 94l-7 2c-11 -17 -22 -29 -43 -29c-20 0 -37 12 -62 41
c15 20 31 33 46 42zM219 81v-7h22v7h-4v15c0 7 2 10 7 10c4 0 6 -2 6 -7v-18h-4v-7h22v7h-6v19c0 9 -4 14 -12 14c-6 0 -11 -4 -14 -11v10h-17v-7h6v-25h-6zM464 33h-18v-7h6c-1 -3 -3 -6 -6 -9l-12 13c7 3 11 7 11 12c0 7 -5 12 -14 12c-11 0 -17 -6 -17 -14
c0 -4 2 -8 6 -12c-9 -3 -13 -8 -13 -15c0 -9 6 -14 18 -14c6 0 11 2 15 6c3 -4 7 -6 12 -6c7 0 11 4 13 12l-5 1c-1 -3 -2 -5 -4 -5s-4 2 -6 5c4 4 6 7 9 14h5v7zM429 6c-7 0 -10 3 -10 10c0 3 1 6 4 9c5 -5 9 -9 14 -16c-3 -2 -5 -3 -8 -3zM294 39v3c0 9 2 12 6 12
c1 0 2 0 3 -1c-1 -1 -1 -3 -1 -4c0 -3 2 -5 6 -5v-5h-14zM425 43c0 3 2 5 5 5c4 0 6 -2 6 -6s-2 -7 -5 -9c-4 4 -6 7 -6 10zM312 342c20 13 34 25 42 34c23 -23 18 -47 -1 -80c-13 15 -25 30 -41 46zM340 18h26c1 15 -5 22 -19 22c-11 0 -20 -9 -20 -21c0 -13 7 -20 21 -20
c9 0 15 5 18 14h-7c-1 -5 -4 -7 -9 -7c-7 0 -10 4 -10 12zM347 35c5 0 7 -4 7 -12h-14c0 8 2 12 7 12zM124 7v-7h29v7h-8v18h22v-18h-8v-7h29v7h-8v41h8v7h-29v-7h8v-16h-22v16h8v7h-29v-7h8v-41h-8zM576 13c-5 0 -7 -2 -7 -7s2 -7 7 -7s7 2 7 7s-2 7 -7 7z" />
    <glyph glyph-name="C" unicode="C" horiz-adv-x="336" 
d="M221 -5c-112 0 -197 99 -197 343v24c0 245 90 343 205 343c35 0 53 -4 80 -16v-126c-25 15 -45 23 -68 23c-53 0 -93 -47 -93 -223v-26c0 -184 39 -223 95 -223c21 0 43 7 68 22v-120c-28 -16 -55 -21 -90 -21z" />
    <glyph glyph-name="uni00A0" unicode="&#xa0;" horiz-adv-x="25000" 
 />
    <glyph glyph-name="emspace" unicode="&#x2003;" horiz-adv-x="1000" 
 />
    <glyph glyph-name="enspace" unicode="&#x2002;" horiz-adv-x="500" 
 />
    <glyph glyph-name="threeperemspace" unicode="&#x2004;" horiz-adv-x="333" 
 />
    <glyph glyph-name="fourperemspace" unicode="&#x2005;" horiz-adv-x="250" 
 />
    <glyph glyph-name="thinspace" unicode="&#x2009;" horiz-adv-x="133" 
 />
    <glyph glyph-name="hairspace" unicode="&#x200a;" horiz-adv-x="75" 
 />
    <glyph glyph-name="space.tab" horiz-adv-x="180" 
 />
    <glyph glyph-name="figurespace" unicode="&#x2007;" horiz-adv-x="360" 
 />
    <glyph glyph-name="A" unicode="A" horiz-adv-x="398" 
d="M1 0l133 702h130l133 -702h-122l-23 139h-111l-22 -139h-118zM159 249h75l-37 231z" />
    <glyph glyph-name="acute" unicode="&#xb4;" horiz-adv-x="500" 
d="M156 575l86 147l93 -49l-99 -98h-80z" />
    <glyph glyph-name="hungarumlaut" unicode="&#x2dd;" horiz-adv-x="500" 
d="M107 575l86 147l83 -47l28 47l85 -48l-96 -99h-75l55 93l-91 -93h-75z" />
    <glyph glyph-name="grave" unicode="`" horiz-adv-x="500" 
d="M252 575l-99 98l93 49l86 -147h-80z" />
    <glyph glyph-name="caron.alt" horiz-adv-x="500" 
d="M175 560l10 145h79v-2l-38 -143h-51z" />
    <glyph glyph-name="circumflex" unicode="&#x2c6;" horiz-adv-x="500" 
d="M128 575l78 139h88l78 -139h-77l-46 62l-46 -62h-75z" />
    <glyph glyph-name="caron" unicode="&#x2c7;" horiz-adv-x="500" 
d="M372 714l-78 -139h-88l-78 139h77l46 -62l46 62h75z" />
    <glyph glyph-name="breve" unicode="&#x2d8;" horiz-adv-x="500" 
d="M250 569c-63 0 -113 36 -118 119h70c4 -28 19 -47 48 -47s44 19 48 47h70c-5 -83 -55 -119 -118 -119z" />
    <glyph glyph-name="tilde" unicode="&#x2dc;" horiz-adv-x="500" 
d="M313 574c-20 0 -43 11 -63 20c-17 8 -31 15 -42 15c-15 0 -20 -8 -28 -39l-65 16c13 79 33 106 72 106c20 0 43 -11 63 -20c17 -8 31 -15 42 -15c15 0 20 8 28 39l65 -16c-13 -79 -33 -106 -72 -106z" />
    <glyph glyph-name="macron" unicode="&#xaf;" horiz-adv-x="500" 
d="M134 578v78h232v-78h-232z" />
    <glyph glyph-name="dieresis" unicode="&#xa8;" horiz-adv-x="500" 
d="M268 578v108h106v-108h-106zM126 578v108h106v-108h-106z" />
    <glyph glyph-name="dotaccent" unicode="&#x2d9;" horiz-adv-x="500" 
d="M196 578v108h108v-108h-108z" />
    <glyph glyph-name="ring" unicode="&#x2da;" horiz-adv-x="500" 
d="M250 569c-48 0 -87 37 -87 90c0 52 39 90 87 90s87 -37 87 -90c0 -52 -39 -90 -87 -90zM250 614c23 0 39 18 39 45s-16 45 -39 45s-39 -18 -39 -45s16 -45 39 -45z" />
    <glyph glyph-name="commaaccent" unicode="&#x326;" horiz-adv-x="500" 
d="M199 -225l-5 40c43 7 55 18 54 53h-48v90h106v-81c0 -71 -38 -97 -107 -102z" />
    <glyph glyph-name="cedilla" unicode="&#xb8;" horiz-adv-x="500" 
d="M251 -127l-100 38l73 109h75z" />
    <glyph glyph-name="ogonek" unicode="&#x2db;" horiz-adv-x="500" 
d="M315 -79v-68c-15 -3 -29 -4 -41 -4c-63 0 -97 24 -97 71c0 37 18 61 46 90h80c-21 -27 -29 -44 -29 -61c0 -23 14 -31 41 -28z" />
    <glyph glyph-name="uni0384" unicode="&#x384;" horiz-adv-x="500" 
d="M172 575l53 147l97 -48l-76 -99h-74z" />
    <glyph glyph-name="uni0385" unicode="&#x385;" horiz-adv-x="500" 
d="M321 578v103h99v-103h-99zM80 578v103h99v-103h-99zM198 578l24 161l98 -21l-58 -140h-64z" />
    <glyph glyph-name="uni0387" unicode="&#x387;" horiz-adv-x="228" 
d="M45 397v139h138v-139h-138z" />
    <glyph glyph-name="descendercyrillic" horiz-adv-x="500" 
d="M196 -98l8 163h91l8 -163h-107z" />
    <glyph glyph-name="descendercyrillic.cap" horiz-adv-x="500" 
d="M194 -112l6 177h100l6 -177h-112z" />
    <glyph glyph-name="straightdescendercyrillic" horiz-adv-x="500" 
d="M198 -98v204h103v-204h-103z" />
    <glyph glyph-name="straightdescendercyrillic.cap" horiz-adv-x="500" 
d="M194 -112v112h-6v116h118v-228h-112z" />
    <glyph glyph-name="acute.cap" horiz-adv-x="500" 
d="M156 735l86 127l101 -50l-99 -77h-88z" />
    <glyph glyph-name="hungarumlaut.cap" horiz-adv-x="500" 
d="M218 735l44 64l-80 -64h-82l86 127l86 -48l32 48l91 -50l-95 -77h-82z" />
    <glyph glyph-name="grave.cap" horiz-adv-x="500" 
d="M332 735h-88l-99 77l101 50z" />
    <glyph glyph-name="circumflex.cap" horiz-adv-x="500" 
d="M128 735l74 119h96l74 -119h-82l-41 48l-41 -48h-80z" />
    <glyph glyph-name="caron.cap" horiz-adv-x="500" 
d="M372 854l-74 -119h-96l-74 119h82l41 -48l41 48h80z" />
    <glyph glyph-name="breve.cap" horiz-adv-x="500" 
d="M250 729c-65 0 -114 35 -115 111h70c4 -26 19 -39 45 -39c24 0 41 12 45 39h70c-3 -76 -51 -111 -115 -111z" />
    <glyph glyph-name="tilde.cap" horiz-adv-x="500" 
d="M313 734c-21 0 -43 10 -62 19c-17 8 -32 16 -43 16c-13 0 -18 -8 -26 -39l-69 17c13 80 34 109 74 109c23 0 46 -10 66 -21c16 -7 28 -14 39 -14c13 0 18 8 26 39l69 -17c-13 -80 -34 -109 -74 -109z" />
    <glyph glyph-name="macron.cap" horiz-adv-x="500" 
d="M129 738v79h242v-79h-242z" />
    <glyph glyph-name="dieresis.cap" horiz-adv-x="500" 
d="M271 738v108h108v-108h-108zM121 738v108h108v-108h-108z" />
    <glyph glyph-name="dotaccent.cap" horiz-adv-x="500" 
d="M195 738v108h110v-108h-110z" />
    <glyph glyph-name="ring.cap" horiz-adv-x="500" 
d="M250 729c-48 0 -87 35 -87 84c0 48 39 84 87 84s87 -35 87 -84c0 -48 -39 -84 -87 -84zM250 773c23 0 39 17 39 40s-16 40 -39 40s-39 -17 -39 -40s16 -40 39 -40z" />
    <glyph glyph-name="uni0384.cap" horiz-adv-x="500" 
d="M175 553l10 147h95l-42 -147h-63z" />
    <glyph glyph-name="commaaccent.rot" horiz-adv-x="500" 
d="M304 761l5 -40c-43 -7 -55 -18 -54 -53h48v-90h-106v81c0 71 38 97 107 102z" />
    <glyph glyph-name="B" unicode="B" horiz-adv-x="392" 
d="M36 0v700h104c72 0 141 -18 182 -59c31 -31 46 -68 46 -119v-5c0 -90 -51 -134 -101 -158c59 -27 110 -67 110 -156v-9c0 -124 -96 -194 -232 -194h-109zM248 498v2c0 61 -35 87 -90 87h-2v-181h2c55 0 90 31 90 92zM255 204v5c0 59 -40 91 -96 91h-3v-187h3
c56 0 96 32 96 91z" />
    </font>
</defs>
</svg>
